G04 #@! TF.GenerationSoftware,KiCad,Pcbnew,(7.0.0)*
G04 #@! TF.CreationDate,2023-04-27T00:17:56+08:00*
G04 #@! TF.ProjectId,DRV-24to12-BrushedMotorDriver,4452562d-3234-4746-9f31-322d42727573,rev?*
G04 #@! TF.SameCoordinates,Original*
G04 #@! TF.FileFunction,Copper,L1,Top*
G04 #@! TF.FilePolarity,Positive*
%FSLAX46Y46*%
G04 Gerber Fmt 4.6, Leading zero omitted, Abs format (unit mm)*
G04 Created by KiCad (PCBNEW (7.0.0)) date 2023-04-27 00:17:56*
%MOMM*%
%LPD*%
G01*
G04 APERTURE LIST*
G04 Aperture macros list*
%AMRoundRect*
0 Rectangle with rounded corners*
0 $1 Rounding radius*
0 $2 $3 $4 $5 $6 $7 $8 $9 X,Y pos of 4 corners*
0 Add a 4 corners polygon primitive as box body*
4,1,4,$2,$3,$4,$5,$6,$7,$8,$9,$2,$3,0*
0 Add four circle primitives for the rounded corners*
1,1,$1+$1,$2,$3*
1,1,$1+$1,$4,$5*
1,1,$1+$1,$6,$7*
1,1,$1+$1,$8,$9*
0 Add four rect primitives between the rounded corners*
20,1,$1+$1,$2,$3,$4,$5,0*
20,1,$1+$1,$4,$5,$6,$7,0*
20,1,$1+$1,$6,$7,$8,$9,0*
20,1,$1+$1,$8,$9,$2,$3,0*%
G04 Aperture macros list end*
G04 #@! TA.AperFunction,SMDPad,CuDef*
%ADD10R,3.150000X1.000000*%
G04 #@! TD*
G04 #@! TA.AperFunction,SMDPad,CuDef*
%ADD11RoundRect,0.250000X-0.312500X-0.625000X0.312500X-0.625000X0.312500X0.625000X-0.312500X0.625000X0*%
G04 #@! TD*
G04 #@! TA.AperFunction,SMDPad,CuDef*
%ADD12RoundRect,0.250000X0.625000X-0.312500X0.625000X0.312500X-0.625000X0.312500X-0.625000X-0.312500X0*%
G04 #@! TD*
G04 #@! TA.AperFunction,SMDPad,CuDef*
%ADD13RoundRect,0.250000X-2.500000X0.250000X-2.500000X-0.250000X2.500000X-0.250000X2.500000X0.250000X0*%
G04 #@! TD*
G04 #@! TA.AperFunction,SMDPad,CuDef*
%ADD14RoundRect,0.250000X-1.250000X0.550000X-1.250000X-0.550000X1.250000X-0.550000X1.250000X0.550000X0*%
G04 #@! TD*
G04 #@! TA.AperFunction,SMDPad,CuDef*
%ADD15R,1.910000X0.610000*%
G04 #@! TD*
G04 #@! TA.AperFunction,SMDPad,CuDef*
%ADD16R,1.205000X1.550000*%
G04 #@! TD*
G04 #@! TA.AperFunction,SMDPad,CuDef*
%ADD17R,3.360000X4.860000*%
G04 #@! TD*
G04 #@! TA.AperFunction,SMDPad,CuDef*
%ADD18R,1.390000X1.400000*%
G04 #@! TD*
G04 #@! TA.AperFunction,SMDPad,CuDef*
%ADD19RoundRect,0.250000X-1.000000X-0.650000X1.000000X-0.650000X1.000000X0.650000X-1.000000X0.650000X0*%
G04 #@! TD*
G04 #@! TA.AperFunction,ComponentPad*
%ADD20C,3.600000*%
G04 #@! TD*
G04 #@! TA.AperFunction,ConnectorPad*
%ADD21C,6.400000*%
G04 #@! TD*
G04 #@! TA.AperFunction,SMDPad,CuDef*
%ADD22RoundRect,0.225000X0.225000X0.250000X-0.225000X0.250000X-0.225000X-0.250000X0.225000X-0.250000X0*%
G04 #@! TD*
G04 #@! TA.AperFunction,SMDPad,CuDef*
%ADD23RoundRect,0.200000X-0.200000X-0.275000X0.200000X-0.275000X0.200000X0.275000X-0.200000X0.275000X0*%
G04 #@! TD*
G04 #@! TA.AperFunction,SMDPad,CuDef*
%ADD24RoundRect,0.200000X0.200000X0.275000X-0.200000X0.275000X-0.200000X-0.275000X0.200000X-0.275000X0*%
G04 #@! TD*
G04 #@! TA.AperFunction,SMDPad,CuDef*
%ADD25RoundRect,0.150000X0.512500X0.150000X-0.512500X0.150000X-0.512500X-0.150000X0.512500X-0.150000X0*%
G04 #@! TD*
G04 #@! TA.AperFunction,SMDPad,CuDef*
%ADD26RoundRect,0.250000X-0.650000X0.412500X-0.650000X-0.412500X0.650000X-0.412500X0.650000X0.412500X0*%
G04 #@! TD*
G04 #@! TA.AperFunction,SMDPad,CuDef*
%ADD27RoundRect,0.200000X-0.275000X0.200000X-0.275000X-0.200000X0.275000X-0.200000X0.275000X0.200000X0*%
G04 #@! TD*
G04 #@! TA.AperFunction,SMDPad,CuDef*
%ADD28RoundRect,0.750000X-2.250000X-0.750000X2.250000X-0.750000X2.250000X0.750000X-2.250000X0.750000X0*%
G04 #@! TD*
G04 #@! TA.AperFunction,SMDPad,CuDef*
%ADD29RoundRect,0.250000X0.400000X1.075000X-0.400000X1.075000X-0.400000X-1.075000X0.400000X-1.075000X0*%
G04 #@! TD*
G04 #@! TA.AperFunction,SMDPad,CuDef*
%ADD30RoundRect,0.200000X0.275000X-0.200000X0.275000X0.200000X-0.275000X0.200000X-0.275000X-0.200000X0*%
G04 #@! TD*
G04 #@! TA.AperFunction,SMDPad,CuDef*
%ADD31R,5.900000X2.450000*%
G04 #@! TD*
G04 #@! TA.AperFunction,SMDPad,CuDef*
%ADD32RoundRect,0.150000X0.150000X-0.825000X0.150000X0.825000X-0.150000X0.825000X-0.150000X-0.825000X0*%
G04 #@! TD*
G04 #@! TA.AperFunction,SMDPad,CuDef*
%ADD33RoundRect,0.225000X-0.225000X-0.250000X0.225000X-0.250000X0.225000X0.250000X-0.225000X0.250000X0*%
G04 #@! TD*
G04 #@! TA.AperFunction,SMDPad,CuDef*
%ADD34RoundRect,0.250000X1.500000X0.550000X-1.500000X0.550000X-1.500000X-0.550000X1.500000X-0.550000X0*%
G04 #@! TD*
G04 #@! TA.AperFunction,SMDPad,CuDef*
%ADD35RoundRect,0.100000X-0.687500X-0.100000X0.687500X-0.100000X0.687500X0.100000X-0.687500X0.100000X0*%
G04 #@! TD*
G04 #@! TA.AperFunction,SMDPad,CuDef*
%ADD36R,3.400000X5.000000*%
G04 #@! TD*
G04 #@! TA.AperFunction,SMDPad,CuDef*
%ADD37RoundRect,0.225000X-0.250000X0.225000X-0.250000X-0.225000X0.250000X-0.225000X0.250000X0.225000X0*%
G04 #@! TD*
G04 #@! TA.AperFunction,SMDPad,CuDef*
%ADD38RoundRect,0.250000X0.650000X-0.325000X0.650000X0.325000X-0.650000X0.325000X-0.650000X-0.325000X0*%
G04 #@! TD*
G04 #@! TA.AperFunction,Conductor*
%ADD39C,0.150000*%
G04 #@! TD*
G04 #@! TA.AperFunction,Conductor*
%ADD40C,0.400000*%
G04 #@! TD*
G04 #@! TA.AperFunction,Conductor*
%ADD41C,0.600000*%
G04 #@! TD*
G04 #@! TA.AperFunction,Conductor*
%ADD42C,1.200000*%
G04 #@! TD*
G04 #@! TA.AperFunction,Conductor*
%ADD43C,0.250000*%
G04 #@! TD*
G04 #@! TA.AperFunction,Conductor*
%ADD44C,1.000000*%
G04 #@! TD*
G04 #@! TA.AperFunction,Conductor*
%ADD45C,0.350000*%
G04 #@! TD*
G04 #@! TA.AperFunction,Conductor*
%ADD46C,1.600000*%
G04 #@! TD*
G04 #@! TA.AperFunction,Conductor*
%ADD47C,0.800000*%
G04 #@! TD*
G04 APERTURE END LIST*
D10*
X215545621Y-72195797D03*
X210495621Y-72195797D03*
X215545621Y-69655797D03*
X210495621Y-69655797D03*
X215545621Y-67115797D03*
X210495621Y-67115797D03*
X215545621Y-64575797D03*
X210495621Y-64575797D03*
D11*
X229931500Y-74549000D03*
X232856500Y-74549000D03*
D12*
X233680000Y-61787500D03*
X233680000Y-58862500D03*
D13*
X243745000Y-76835000D03*
X243745000Y-78835000D03*
D14*
X245995000Y-74435000D03*
X245995000Y-81235000D03*
D15*
X221810820Y-81785701D03*
X221810820Y-80515701D03*
X221810820Y-79245701D03*
X221810820Y-77975701D03*
X216250820Y-77975701D03*
X216250820Y-79245701D03*
X216250820Y-80515701D03*
X216250820Y-81785701D03*
D16*
X219633320Y-80655701D03*
X219633320Y-79105701D03*
X218428320Y-80655701D03*
X218428320Y-79105701D03*
D17*
X219094320Y-87659701D03*
D18*
X218174320Y-83677701D03*
X220014320Y-83677701D03*
D19*
X241999000Y-71374000D03*
X245999000Y-71374000D03*
D20*
X205000000Y-90000000D03*
D21*
X205000000Y-90000000D03*
D22*
X237376000Y-57912000D03*
X235826000Y-57912000D03*
D23*
X221806000Y-68961000D03*
X223456000Y-68961000D03*
D24*
X218630000Y-60960000D03*
X216980000Y-60960000D03*
D25*
X229138750Y-63033750D03*
X229138750Y-62083750D03*
X229138750Y-61133750D03*
X226863750Y-61133750D03*
X226863750Y-63033750D03*
D26*
X231308750Y-60079250D03*
X231308750Y-63204250D03*
D27*
X223266000Y-65850000D03*
X223266000Y-67500000D03*
D28*
X207010000Y-82550000D03*
D29*
X223191000Y-72771000D03*
X220091000Y-72771000D03*
D26*
X227761321Y-77302202D03*
X227761321Y-80427202D03*
D30*
X223951321Y-78914702D03*
X223951321Y-77264702D03*
D12*
X233586613Y-66354569D03*
X233586613Y-63429569D03*
D31*
X226491320Y-88484701D03*
X226491320Y-82934701D03*
D20*
X245000000Y-90000000D03*
D21*
X245000000Y-90000000D03*
D32*
X235966000Y-64959000D03*
X237236000Y-64959000D03*
X238506000Y-64959000D03*
X239776000Y-64959000D03*
X239776000Y-60009000D03*
X238506000Y-60009000D03*
X237236000Y-60009000D03*
X235966000Y-60009000D03*
D11*
X225232500Y-74549000D03*
X228157500Y-74549000D03*
D33*
X229730000Y-72644000D03*
X231280000Y-72644000D03*
D20*
X205000000Y-60000000D03*
D21*
X205000000Y-60000000D03*
D19*
X241967000Y-84328000D03*
X245967000Y-84328000D03*
D26*
X224704750Y-60079250D03*
X224704750Y-63204250D03*
D20*
X245000000Y-60000000D03*
D21*
X245000000Y-60000000D03*
D34*
X237015000Y-79502000D03*
X231615000Y-79502000D03*
D22*
X234201000Y-68072000D03*
X232651000Y-68072000D03*
D35*
X225169500Y-66885000D03*
X225169500Y-67535000D03*
X225169500Y-68185000D03*
X225169500Y-68835000D03*
X225169500Y-69485000D03*
X225169500Y-70135000D03*
X225169500Y-70785000D03*
X225169500Y-71435000D03*
X230894500Y-71435000D03*
X230894500Y-70785000D03*
X230894500Y-70135000D03*
X230894500Y-69485000D03*
X230894500Y-68835000D03*
X230894500Y-68185000D03*
X230894500Y-67535000D03*
X230894500Y-66885000D03*
D36*
X228031999Y-69159999D03*
D24*
X225538321Y-80375702D03*
X223888321Y-80375702D03*
D11*
X233741500Y-71882000D03*
X236666500Y-71882000D03*
D28*
X207010000Y-77470000D03*
D33*
X232651000Y-69977000D03*
X234201000Y-69977000D03*
D37*
X222300321Y-83410702D03*
X222300321Y-84960702D03*
D23*
X236779000Y-67691000D03*
X238429000Y-67691000D03*
D22*
X238392000Y-69215000D03*
X236842000Y-69215000D03*
D38*
X213791321Y-80707702D03*
X213791321Y-77757702D03*
D39*
X235966000Y-67691000D02*
X236779000Y-67691000D01*
X234830000Y-66555000D02*
X235966000Y-67691000D01*
X234830000Y-65829538D02*
X234830000Y-66555000D01*
X234151462Y-65151000D02*
X234830000Y-65829538D01*
X232156000Y-65913000D02*
X232918000Y-65151000D01*
X232918000Y-65151000D02*
X234151462Y-65151000D01*
X232156000Y-66941330D02*
X232156000Y-65913000D01*
X231562330Y-67535000D02*
X232156000Y-66941330D01*
D40*
X232410000Y-64643000D02*
X234315214Y-64643000D01*
X234315214Y-64643000D02*
X235266000Y-65593786D01*
X230894500Y-66158500D02*
X232410000Y-64643000D01*
X230894500Y-66885000D02*
X230894500Y-66158500D01*
X238506000Y-69101000D02*
X238392000Y-69215000D01*
X238506000Y-65467000D02*
X238506000Y-69101000D01*
X236842000Y-69215000D02*
X237579000Y-68478000D01*
D41*
X213791321Y-77757702D02*
X215279321Y-79245702D01*
D40*
X225169500Y-68835000D02*
X227707000Y-68835000D01*
D42*
X228032000Y-71434000D02*
X228032000Y-69160000D01*
D41*
X239776000Y-64959000D02*
X239776000Y-64334761D01*
D43*
X246820000Y-80410000D02*
X245995000Y-81235000D01*
D40*
X221361000Y-76454000D02*
X223140619Y-76454000D01*
D43*
X245995000Y-74435000D02*
X246820000Y-75260000D01*
D40*
X230049893Y-66885000D02*
X228032000Y-68902893D01*
D43*
X239649000Y-57912000D02*
X237376000Y-57912000D01*
D40*
X245995000Y-84300000D02*
X245967000Y-84328000D01*
D42*
X226695000Y-72771000D02*
X228032000Y-71434000D01*
D40*
X223140619Y-76454000D02*
X223951321Y-77264702D01*
D41*
X235418660Y-61528000D02*
X233969910Y-60079250D01*
D44*
X220014321Y-83677702D02*
X220014321Y-81036702D01*
D41*
X239776000Y-64334761D02*
X236969239Y-61528000D01*
D43*
X239776000Y-65467000D02*
X240092000Y-65467000D01*
D44*
X218174321Y-83677702D02*
X218174321Y-80909702D01*
D43*
X239776000Y-65467000D02*
X239776000Y-63119000D01*
D41*
X210566000Y-77757702D02*
X207297702Y-77757702D01*
D45*
X235280000Y-66025817D02*
X235280000Y-65607786D01*
D40*
X236982000Y-66548000D02*
X235802183Y-66548000D01*
D41*
X218288321Y-79245702D02*
X218428321Y-79105702D01*
D40*
X210495622Y-77687324D02*
X210566000Y-77757702D01*
X210495622Y-64575798D02*
X210495622Y-77687324D01*
D44*
X220014321Y-81036702D02*
X219633321Y-80655702D01*
D43*
X246820000Y-75260000D02*
X246820000Y-80410000D01*
X239776000Y-65467000D02*
X239776000Y-64135000D01*
D39*
X230894500Y-66839250D02*
X230894500Y-66885000D01*
D41*
X233969910Y-60079250D02*
X231308750Y-60079250D01*
D40*
X245995000Y-81235000D02*
X245995000Y-84300000D01*
D44*
X229730000Y-72644000D02*
X228032000Y-70946000D01*
D43*
X231308750Y-60298001D02*
X229523001Y-62083750D01*
D40*
X228032000Y-68902893D02*
X228032000Y-69160000D01*
X230894500Y-66885000D02*
X230049893Y-66885000D01*
X220091000Y-72771000D02*
X220091000Y-75184000D01*
D41*
X215279321Y-79245702D02*
X216250821Y-79245702D01*
D43*
X229523001Y-62083750D02*
X229138750Y-62083750D01*
D40*
X228032000Y-69160000D02*
X228357000Y-68835000D01*
X219633321Y-75641679D02*
X219633321Y-79105702D01*
D44*
X228032000Y-70946000D02*
X228032000Y-69160000D01*
D41*
X216250821Y-79245702D02*
X218288321Y-79245702D01*
X236969239Y-61528000D02*
X235418660Y-61528000D01*
D43*
X240092000Y-65467000D02*
X245999000Y-71374000D01*
D40*
X235802183Y-66548000D02*
X235305000Y-66050817D01*
D43*
X231361750Y-60132250D02*
X231308750Y-60079250D01*
D40*
X227723821Y-77264702D02*
X227761321Y-77302202D01*
X224704750Y-60079250D02*
X231308750Y-60079250D01*
X220091000Y-75184000D02*
X221361000Y-76454000D01*
X228357000Y-68835000D02*
X230894500Y-68835000D01*
X237579000Y-67145000D02*
X236982000Y-66548000D01*
X223951321Y-77264702D02*
X227723821Y-77264702D01*
X235305000Y-66050817D02*
X235312592Y-66058409D01*
D44*
X218174321Y-80909702D02*
X218428321Y-80655702D01*
D40*
X220091000Y-75184000D02*
X219633321Y-75641679D01*
D45*
X235312592Y-66058409D02*
X235280000Y-66025817D01*
D42*
X226695000Y-76235881D02*
X226695000Y-72771000D01*
D43*
X231308750Y-60079250D02*
X231308750Y-60298001D01*
X245999000Y-74431000D02*
X245995000Y-74435000D01*
X241046000Y-59309000D02*
X239649000Y-57912000D01*
D41*
X213791321Y-77757702D02*
X210566000Y-77757702D01*
D42*
X227761321Y-77302202D02*
X226695000Y-76235881D01*
D40*
X237579000Y-68478000D02*
X237579000Y-67145000D01*
D45*
X235280000Y-65607786D02*
X235266000Y-65593786D01*
D41*
X207297702Y-77757702D02*
X207010000Y-77470000D01*
D39*
X226441000Y-70751000D02*
X228032000Y-69160000D01*
D40*
X227707000Y-68835000D02*
X228032000Y-69160000D01*
D43*
X239776000Y-63119000D02*
X241046000Y-61849000D01*
X245999000Y-71374000D02*
X245999000Y-74431000D01*
X241046000Y-61849000D02*
X241046000Y-59309000D01*
D39*
X232366000Y-70135000D02*
X230894500Y-70135000D01*
X232651000Y-69850000D02*
X232366000Y-70135000D01*
X233807000Y-69850000D02*
X233184000Y-69227000D01*
X234201000Y-69850000D02*
X233807000Y-69850000D01*
X232017000Y-69227000D02*
X231759000Y-69485000D01*
X233184000Y-69227000D02*
X232017000Y-69227000D01*
X231759000Y-69485000D02*
X230894500Y-69485000D01*
D40*
X233680000Y-66359500D02*
X234201000Y-66880500D01*
X234818000Y-73274000D02*
X231280000Y-73274000D01*
X231280000Y-71820500D02*
X230894500Y-71435000D01*
D41*
X234201000Y-68072000D02*
X235151000Y-69022000D01*
D40*
X231280000Y-72644000D02*
X231280000Y-71820500D01*
D44*
X232283000Y-76708000D02*
X231280000Y-75705000D01*
D41*
X235151000Y-72951000D02*
X234823000Y-73279000D01*
D40*
X231280000Y-73274000D02*
X231280000Y-72644000D01*
D44*
X236220000Y-79502000D02*
X233426000Y-76708000D01*
X233426000Y-76708000D02*
X232283000Y-76708000D01*
D40*
X234823000Y-73279000D02*
X234818000Y-73274000D01*
D44*
X237015000Y-79502000D02*
X236220000Y-79502000D01*
D40*
X234201000Y-66880500D02*
X234201000Y-68072000D01*
D44*
X231280000Y-75705000D02*
X231280000Y-72644000D01*
D41*
X235151000Y-69022000D02*
X235151000Y-72951000D01*
D39*
X230894500Y-68185000D02*
X232637000Y-68185000D01*
D46*
X210693000Y-82550000D02*
X212535298Y-80707702D01*
D41*
X216248998Y-80513879D02*
X216250821Y-80515702D01*
D46*
X207010000Y-82550000D02*
X210693000Y-82550000D01*
D41*
X213791321Y-80707702D02*
X213985144Y-80513879D01*
X213985144Y-80513879D02*
X216248998Y-80513879D01*
D46*
X212535298Y-80707702D02*
X213791321Y-80707702D01*
D40*
X213614000Y-68326000D02*
X220218000Y-68326000D01*
X212979000Y-66548000D02*
X212979000Y-67691000D01*
X220894750Y-63204250D02*
X224704750Y-63204250D01*
X226863750Y-63033750D02*
X224875250Y-63033750D01*
X225134500Y-67500000D02*
X225169500Y-67535000D01*
X212979000Y-60960000D02*
X216281000Y-57658000D01*
X220853000Y-68961000D02*
X220218000Y-68326000D01*
X224875250Y-63033750D02*
X224704750Y-63204250D01*
X235572000Y-57658000D02*
X235826000Y-57912000D01*
X213741000Y-65786000D02*
X218313000Y-65786000D01*
X220218000Y-68326000D02*
X220953202Y-67590798D01*
X223266000Y-67500000D02*
X225134500Y-67500000D01*
X212979000Y-66548000D02*
X213741000Y-65786000D01*
X216281000Y-57658000D02*
X235572000Y-57658000D01*
X223175202Y-67590798D02*
X223266000Y-67500000D01*
X220953202Y-67590798D02*
X223175202Y-67590798D01*
X235966000Y-58928000D02*
X235966000Y-60009000D01*
X212979000Y-66548000D02*
X212979000Y-60960000D01*
X221806000Y-68961000D02*
X220853000Y-68961000D01*
X212979000Y-67691000D02*
X213614000Y-68326000D01*
X218313000Y-65786000D02*
X220894750Y-63204250D01*
X235826000Y-58788000D02*
X235966000Y-58928000D01*
X235826000Y-57912000D02*
X235826000Y-58788000D01*
D47*
X240506000Y-78835000D02*
X243745000Y-78835000D01*
X236220000Y-74549000D02*
X240506000Y-78835000D01*
D40*
X240506000Y-82867000D02*
X240506000Y-78835000D01*
D47*
X232869000Y-74549000D02*
X236220000Y-74549000D01*
D40*
X241967000Y-84328000D02*
X240506000Y-82867000D01*
X240538000Y-72835000D02*
X240538000Y-76835000D01*
D47*
X236679000Y-71755000D02*
X236679000Y-72976000D01*
X240538000Y-76835000D02*
X243745000Y-76835000D01*
D40*
X241999000Y-71374000D02*
X240538000Y-72835000D01*
D47*
X236679000Y-72976000D02*
X240538000Y-76835000D01*
D39*
X222202751Y-69711000D02*
X215600824Y-69711000D01*
X215600824Y-69711000D02*
X215545622Y-69655798D01*
X222998751Y-68185000D02*
X222603751Y-68580000D01*
X222603751Y-68580000D02*
X222603751Y-69310000D01*
X225169500Y-68185000D02*
X222998751Y-68185000D01*
X222603751Y-69310000D02*
X222202751Y-69711000D01*
X225169500Y-70135000D02*
X225085500Y-70219000D01*
X225085500Y-70219000D02*
X219976000Y-70219000D01*
X217999202Y-72195798D02*
X215545622Y-72195798D01*
X219976000Y-70219000D02*
X217999202Y-72195798D01*
X225109500Y-66825000D02*
X224241000Y-66825000D01*
X224241000Y-66825000D02*
X223266000Y-65850000D01*
X222000202Y-67115798D02*
X215545622Y-67115798D01*
X225169500Y-66885000D02*
X225109500Y-66825000D01*
X223266000Y-65850000D02*
X222000202Y-67115798D01*
X223456000Y-68580000D02*
X224361000Y-69485000D01*
X224361000Y-69485000D02*
X225169500Y-69485000D01*
X223186658Y-78914702D02*
X223951321Y-78914702D01*
X222247658Y-77975702D02*
X223186658Y-78914702D01*
X223951321Y-78914702D02*
X223951321Y-80312702D01*
X223951321Y-80312702D02*
X223888321Y-80375702D01*
X221810821Y-77975702D02*
X222247658Y-77975702D01*
D40*
X224839000Y-74930000D02*
X225220000Y-74549000D01*
X221615000Y-74422000D02*
X222123000Y-74930000D01*
X222077000Y-70785000D02*
X221615000Y-71247000D01*
X222123000Y-74930000D02*
X224839000Y-74930000D01*
X221615000Y-71247000D02*
X221615000Y-74422000D01*
X225169500Y-70785000D02*
X222077000Y-70785000D01*
D44*
X228170000Y-74549000D02*
X229919000Y-74549000D01*
D39*
X215545622Y-62394378D02*
X216980000Y-60960000D01*
X215545622Y-64575798D02*
X215545622Y-62394378D01*
X233995500Y-62103000D02*
X233680000Y-61787500D01*
X236220000Y-62103000D02*
X235077000Y-62103000D01*
X235077000Y-62103000D02*
X233995500Y-62103000D01*
X235966000Y-64959000D02*
X235966000Y-62992000D01*
X237236000Y-64959000D02*
X237236000Y-63119000D01*
X235966000Y-62992000D02*
X235077000Y-62103000D01*
X237236000Y-63119000D02*
X236220000Y-62103000D01*
X233491500Y-58674000D02*
X233680000Y-58862500D01*
X218630000Y-60960000D02*
X220916000Y-58674000D01*
X220916000Y-58674000D02*
X233491500Y-58674000D01*
D40*
X228648433Y-61133750D02*
X227965000Y-61817183D01*
X229138750Y-61133750D02*
X228648433Y-61133750D01*
D39*
X229138750Y-63033750D02*
X228825209Y-63033750D01*
D40*
X227965000Y-61817183D02*
X227965000Y-62350317D01*
X228648433Y-63033750D02*
X229138750Y-63033750D01*
X231308750Y-63204250D02*
X233449750Y-63204250D01*
X233449750Y-63204250D02*
X233680000Y-63434500D01*
X231138250Y-63033750D02*
X231308750Y-63204250D01*
X229138750Y-63033750D02*
X231138250Y-63033750D01*
X227965000Y-62350317D02*
X228648433Y-63033750D01*
G04 #@! TA.AperFunction,Conductor*
G36*
X243683606Y-78824186D02*
G01*
X243690469Y-78828211D01*
X243693172Y-78835693D01*
X243690465Y-78843174D01*
X243683600Y-78847195D01*
X241151661Y-79315538D01*
X241147014Y-79315459D01*
X240236235Y-79114661D01*
X240229375Y-79110229D01*
X240227085Y-79102389D01*
X240230480Y-79094963D01*
X240779780Y-78545663D01*
X240782674Y-78543547D01*
X241145767Y-78355870D01*
X241153270Y-78354761D01*
X243683606Y-78824186D01*
G37*
G04 #@! TD.AperFunction*
G04 #@! TA.AperFunction,Conductor*
G36*
X226297597Y-62747063D02*
G01*
X226844093Y-63023308D01*
X226849732Y-63029544D01*
X226849732Y-63037954D01*
X226844092Y-63044191D01*
X226297598Y-63320435D01*
X226289745Y-63321406D01*
X225987724Y-63253261D01*
X225910374Y-63235808D01*
X225903812Y-63231702D01*
X225901250Y-63224396D01*
X225901250Y-62843104D01*
X225903812Y-62835798D01*
X225910374Y-62831691D01*
X226289746Y-62746093D01*
X226297597Y-62747063D01*
G37*
G04 #@! TD.AperFunction*
G04 #@! TA.AperFunction,Conductor*
G36*
X229130447Y-61132536D02*
G01*
X229137445Y-61135370D01*
X229141255Y-61141887D01*
X229198428Y-61423092D01*
X229196948Y-61431522D01*
X229190124Y-61436688D01*
X228669349Y-61582815D01*
X228666188Y-61583250D01*
X228592990Y-61583250D01*
X228592575Y-61583310D01*
X228592567Y-61583311D01*
X228525753Y-61593046D01*
X228525750Y-61593046D01*
X228524857Y-61593177D01*
X228524044Y-61593574D01*
X228524042Y-61593575D01*
X228420636Y-61644127D01*
X228419767Y-61644552D01*
X228419088Y-61645230D01*
X228419078Y-61645238D01*
X228417135Y-61647181D01*
X228408863Y-61650605D01*
X228400592Y-61647178D01*
X228135663Y-61382249D01*
X228132527Y-61376568D01*
X228132901Y-61370089D01*
X228136668Y-61364808D01*
X228472766Y-61098496D01*
X228480685Y-61095985D01*
X229130447Y-61132536D01*
G37*
G04 #@! TD.AperFunction*
G04 #@! TA.AperFunction,Conductor*
G36*
X230568115Y-62565120D02*
G01*
X230889606Y-62842176D01*
X231298249Y-63194339D01*
X231301947Y-63200307D01*
X231301563Y-63207317D01*
X231297236Y-63212846D01*
X230479448Y-63774616D01*
X230472575Y-63776669D01*
X230465795Y-63774326D01*
X229750922Y-63237260D01*
X229747483Y-63233134D01*
X229746250Y-63227906D01*
X229746250Y-62842176D01*
X229748456Y-62835339D01*
X229754241Y-62831079D01*
X230556774Y-62562886D01*
X230562739Y-62562504D01*
X230568115Y-62565120D01*
G37*
G04 #@! TD.AperFunction*
G04 #@! TA.AperFunction,Conductor*
G36*
X223739068Y-65762611D02*
G01*
X223744245Y-65768982D01*
X223971029Y-66444399D01*
X223971328Y-66450799D01*
X223968211Y-66456396D01*
X223872729Y-66551878D01*
X223866805Y-66555067D01*
X223860104Y-66554465D01*
X223111278Y-66254393D01*
X223106408Y-66250733D01*
X223104038Y-66245121D01*
X223104811Y-66239079D01*
X223262880Y-65855152D01*
X223266308Y-65850539D01*
X223271520Y-65848115D01*
X223730980Y-65761210D01*
X223739068Y-65762611D01*
G37*
G04 #@! TD.AperFunction*
G04 #@! TA.AperFunction,Conductor*
G36*
X241997713Y-71374997D02*
G01*
X242002112Y-71380178D01*
X242384948Y-72262993D01*
X242385826Y-72269081D01*
X242383495Y-72274773D01*
X242378599Y-72278495D01*
X240740110Y-72940774D01*
X240735725Y-72941627D01*
X240353214Y-72941627D01*
X240346510Y-72939516D01*
X240342225Y-72933944D01*
X240341906Y-72926923D01*
X240514172Y-72278495D01*
X240746731Y-71403115D01*
X240750826Y-71396909D01*
X240757834Y-71394424D01*
X241991176Y-71373135D01*
X241997713Y-71374997D01*
G37*
G04 #@! TD.AperFunction*
G04 #@! TA.AperFunction,Conductor*
G36*
X223959068Y-78920546D02*
G01*
X224343353Y-79260055D01*
X224347236Y-79267543D01*
X224345074Y-79275697D01*
X224029825Y-79709876D01*
X224025670Y-79713426D01*
X224020357Y-79714702D01*
X223882285Y-79714702D01*
X223876972Y-79713426D01*
X223872817Y-79709876D01*
X223557567Y-79275697D01*
X223555405Y-79267543D01*
X223559286Y-79260057D01*
X223943574Y-78920545D01*
X223951321Y-78917614D01*
X223959068Y-78920546D01*
G37*
G04 #@! TD.AperFunction*
G04 #@! TA.AperFunction,Conductor*
G36*
X217111821Y-81423613D02*
G01*
X217157208Y-81469000D01*
X217173821Y-81531000D01*
X217173821Y-82519126D01*
X217160702Y-82574637D01*
X217133613Y-82607043D01*
X217135143Y-82608573D01*
X217128872Y-82614842D01*
X217121775Y-82620156D01*
X217116465Y-82627248D01*
X217116461Y-82627253D01*
X217040840Y-82728270D01*
X217040837Y-82728274D01*
X217035525Y-82735371D01*
X217032425Y-82743680D01*
X217032425Y-82743682D01*
X216987941Y-82862949D01*
X216987940Y-82862952D01*
X216985230Y-82870219D01*
X216984400Y-82877929D01*
X216984400Y-82877934D01*
X216979176Y-82926521D01*
X216979175Y-82926533D01*
X216978821Y-82929829D01*
X216978821Y-82933150D01*
X216978821Y-82933151D01*
X216978821Y-84422262D01*
X216978821Y-84422280D01*
X216978822Y-84425574D01*
X216979174Y-84428852D01*
X216979175Y-84428863D01*
X216984400Y-84477470D01*
X216984401Y-84477475D01*
X216985230Y-84485185D01*
X216987940Y-84492451D01*
X216987941Y-84492455D01*
X217005282Y-84538948D01*
X217035525Y-84620033D01*
X217040839Y-84627132D01*
X217040840Y-84627133D01*
X217087359Y-84689275D01*
X217121775Y-84735248D01*
X217236990Y-84821498D01*
X217371838Y-84871793D01*
X217431448Y-84878202D01*
X218917193Y-84878201D01*
X218976804Y-84871793D01*
X219050988Y-84844123D01*
X219094321Y-84836306D01*
X219137653Y-84844123D01*
X219211838Y-84871793D01*
X219271448Y-84878202D01*
X220757193Y-84878201D01*
X220816804Y-84871793D01*
X220951652Y-84821498D01*
X221066867Y-84735248D01*
X221153117Y-84620033D01*
X221203412Y-84485185D01*
X221209821Y-84425575D01*
X221209820Y-84394906D01*
X221228822Y-84328941D01*
X221280008Y-84283191D01*
X221347688Y-84271684D01*
X221411117Y-84297947D01*
X221493262Y-84363434D01*
X221618029Y-84416748D01*
X221681615Y-84434292D01*
X221816064Y-84452500D01*
X222756947Y-84452500D01*
X222761000Y-84452500D01*
X222891834Y-84435275D01*
X222895757Y-84434223D01*
X222895761Y-84434223D01*
X222905859Y-84431517D01*
X222954139Y-84428350D01*
X222999956Y-84443902D01*
X223036333Y-84475803D01*
X223049692Y-84493212D01*
X223049696Y-84493216D01*
X223052171Y-84496442D01*
X223097558Y-84541829D01*
X223202250Y-84622163D01*
X223324166Y-84672662D01*
X223386166Y-84689275D01*
X223517000Y-84706500D01*
X223521053Y-84706500D01*
X224332082Y-84706500D01*
X224379621Y-84715975D01*
X226231750Y-85484783D01*
X229793540Y-86963262D01*
X229833725Y-86990149D01*
X229860573Y-87030362D01*
X229870000Y-87077786D01*
X229870000Y-89919000D01*
X229853387Y-89981000D01*
X229808000Y-90026387D01*
X229746000Y-90043000D01*
X215135000Y-90043000D01*
X215073000Y-90026387D01*
X215027613Y-89981000D01*
X215011000Y-89919000D01*
X215011000Y-81617139D01*
X215027584Y-81555189D01*
X215072898Y-81509810D01*
X215221774Y-81423670D01*
X215283875Y-81407000D01*
X217049821Y-81407000D01*
X217111821Y-81423613D01*
G37*
G04 #@! TD.AperFunction*
G04 #@! TA.AperFunction,Conductor*
G36*
X224484203Y-69285642D02*
G01*
X225115256Y-69469681D01*
X225121620Y-69474283D01*
X225123641Y-69481873D01*
X225120406Y-69489030D01*
X225113375Y-69492530D01*
X224387043Y-69579735D01*
X224382301Y-69579329D01*
X224378113Y-69577069D01*
X224191147Y-69419670D01*
X224187572Y-69414387D01*
X224187299Y-69408015D01*
X224190407Y-69402448D01*
X224284531Y-69308324D01*
X224291580Y-69304963D01*
X224479715Y-69285239D01*
X224484203Y-69285642D01*
G37*
G04 #@! TD.AperFunction*
G04 #@! TA.AperFunction,Conductor*
G36*
X238825000Y-78629613D02*
G01*
X238870387Y-78675000D01*
X238887000Y-78737000D01*
X238887000Y-80308780D01*
X238877673Y-80355962D01*
X238851094Y-80396046D01*
X238811264Y-80423000D01*
X231676765Y-83437578D01*
X229893141Y-84191222D01*
X229844878Y-84201000D01*
X223517000Y-84201000D01*
X223455000Y-84184387D01*
X223409613Y-84139000D01*
X223393000Y-84077000D01*
X223393000Y-81464032D01*
X223404336Y-81412235D01*
X223436273Y-81369909D01*
X223436539Y-81369680D01*
X223438939Y-81367623D01*
X223494615Y-81340304D01*
X223548150Y-81342949D01*
X223548428Y-81341556D01*
X223554854Y-81342834D01*
X223561125Y-81344788D01*
X223631705Y-81351202D01*
X224142118Y-81351202D01*
X224144937Y-81351202D01*
X224215517Y-81344788D01*
X224377927Y-81294180D01*
X224523506Y-81206174D01*
X224643793Y-81085887D01*
X224731799Y-80940308D01*
X224782407Y-80777898D01*
X224788821Y-80707318D01*
X224788821Y-80267614D01*
X224800165Y-80215800D01*
X224832123Y-80173466D01*
X225136173Y-79912852D01*
X225173850Y-79890702D01*
X225216871Y-79883000D01*
X228720998Y-79883000D01*
X228727000Y-79883000D01*
X229216645Y-79786991D01*
X229270875Y-79788452D01*
X229319295Y-79812928D01*
X229352631Y-79855733D01*
X229364500Y-79908673D01*
X229364500Y-80098858D01*
X229364500Y-80098877D01*
X229364501Y-80102008D01*
X229364820Y-80105140D01*
X229364821Y-80105141D01*
X229374312Y-80198061D01*
X229374313Y-80198069D01*
X229375001Y-80204797D01*
X229377129Y-80211219D01*
X229377130Y-80211223D01*
X229425092Y-80355962D01*
X229430186Y-80371334D01*
X229433977Y-80377480D01*
X229518497Y-80514511D01*
X229518500Y-80514515D01*
X229522288Y-80520656D01*
X229646344Y-80644712D01*
X229652485Y-80648500D01*
X229652488Y-80648502D01*
X229709558Y-80683702D01*
X229795666Y-80736814D01*
X229962203Y-80791999D01*
X230064991Y-80802500D01*
X233165008Y-80802499D01*
X233267797Y-80791999D01*
X233434334Y-80736814D01*
X233583656Y-80644712D01*
X233707712Y-80520656D01*
X233799814Y-80371334D01*
X233854999Y-80204797D01*
X233865500Y-80102009D01*
X233865499Y-78977497D01*
X233878337Y-78922553D01*
X233914192Y-78878985D01*
X233965637Y-78855816D01*
X235192183Y-78615316D01*
X235216042Y-78613000D01*
X238763000Y-78613000D01*
X238825000Y-78629613D01*
G37*
G04 #@! TD.AperFunction*
G04 #@! TA.AperFunction,Conductor*
G36*
X223624831Y-67117799D02*
G01*
X224133194Y-67297245D01*
X224138851Y-67301521D01*
X224141000Y-67308278D01*
X224141000Y-67691722D01*
X224138851Y-67698479D01*
X224133194Y-67702755D01*
X223624831Y-67882200D01*
X223618100Y-67882518D01*
X223612310Y-67879071D01*
X223450767Y-67702755D01*
X223272240Y-67507902D01*
X223269168Y-67500000D01*
X223272240Y-67492097D01*
X223612312Y-67120926D01*
X223618100Y-67117481D01*
X223624831Y-67117799D01*
G37*
G04 #@! TD.AperFunction*
G04 #@! TA.AperFunction,Conductor*
G36*
X233054641Y-62873221D02*
G01*
X233059167Y-62875744D01*
X233668426Y-63423201D01*
X233672084Y-63429635D01*
X233671149Y-63436976D01*
X233665996Y-63442288D01*
X232848874Y-63866451D01*
X232842424Y-63867719D01*
X232836309Y-63865308D01*
X232247025Y-63407763D01*
X232243692Y-63403667D01*
X232242500Y-63398522D01*
X232242500Y-63014200D01*
X232245287Y-63006620D01*
X232252320Y-63002652D01*
X232629110Y-62941321D01*
X233049469Y-62872900D01*
X233054641Y-62873221D01*
G37*
G04 #@! TD.AperFunction*
G04 #@! TA.AperFunction,Conductor*
G36*
X221459298Y-68567442D02*
G01*
X221800155Y-68953253D01*
X221803087Y-68961000D01*
X221800155Y-68968747D01*
X221459298Y-69354557D01*
X221453009Y-69358244D01*
X221445757Y-69357492D01*
X221012927Y-69164095D01*
X221007883Y-69159779D01*
X221006000Y-69153413D01*
X221006000Y-68768587D01*
X221007883Y-68762221D01*
X221012927Y-68757905D01*
X221094590Y-68721416D01*
X221445758Y-68564506D01*
X221453009Y-68563755D01*
X221459298Y-68567442D01*
G37*
G04 #@! TD.AperFunction*
G04 #@! TA.AperFunction,Conductor*
G36*
X216590920Y-60798811D02*
G01*
X216974845Y-60956879D01*
X216979460Y-60960308D01*
X216981885Y-60965523D01*
X217068789Y-61424980D01*
X217067388Y-61433068D01*
X217061017Y-61438245D01*
X216385600Y-61665029D01*
X216379200Y-61665328D01*
X216373603Y-61662211D01*
X216278121Y-61566729D01*
X216274932Y-61560805D01*
X216275533Y-61554107D01*
X216575607Y-60805275D01*
X216579266Y-60800408D01*
X216584878Y-60798038D01*
X216590920Y-60798811D01*
G37*
G04 #@! TD.AperFunction*
G04 #@! TA.AperFunction,Conductor*
G36*
X222406094Y-70812773D02*
G01*
X222451789Y-70862205D01*
X222464922Y-70928229D01*
X222441622Y-70991385D01*
X222388757Y-71033061D01*
X222320759Y-71061226D01*
X222320754Y-71061228D01*
X222313250Y-71064337D01*
X222306806Y-71069280D01*
X222306800Y-71069285D01*
X222211789Y-71142191D01*
X222211782Y-71142196D01*
X222208558Y-71144671D01*
X222205685Y-71147543D01*
X222205677Y-71147551D01*
X222166051Y-71187177D01*
X222166043Y-71187185D01*
X222163171Y-71190058D01*
X222160696Y-71193282D01*
X222160691Y-71193289D01*
X222087785Y-71288300D01*
X222087780Y-71288306D01*
X222082837Y-71294750D01*
X222079728Y-71302254D01*
X222079726Y-71302259D01*
X222033893Y-71412910D01*
X222033889Y-71412920D01*
X222032338Y-71416666D01*
X222031288Y-71420582D01*
X222031286Y-71420590D01*
X222016775Y-71474745D01*
X222016773Y-71474754D01*
X222015725Y-71478666D01*
X222015196Y-71482677D01*
X222015194Y-71482692D01*
X221999029Y-71605480D01*
X221998500Y-71609500D01*
X221998500Y-74044000D01*
X221999028Y-74048017D01*
X221999029Y-74048019D01*
X222015194Y-74170807D01*
X222015196Y-74170819D01*
X222015725Y-74174834D01*
X222016773Y-74178748D01*
X222016775Y-74178754D01*
X222031286Y-74232909D01*
X222032338Y-74236834D01*
X222033891Y-74240584D01*
X222033893Y-74240589D01*
X222066687Y-74319761D01*
X222082837Y-74358750D01*
X222087783Y-74365196D01*
X222087785Y-74365199D01*
X222144195Y-74438712D01*
X222163171Y-74463442D01*
X222208558Y-74508829D01*
X222313250Y-74589163D01*
X222435166Y-74639662D01*
X222497166Y-74656275D01*
X222628000Y-74673500D01*
X223969048Y-74673500D01*
X223972316Y-74673500D01*
X224078204Y-74662285D01*
X224129001Y-74651403D01*
X224230193Y-74618256D01*
X224322196Y-74564646D01*
X224364078Y-74533909D01*
X224442810Y-74462217D01*
X224515994Y-74379885D01*
X224570455Y-74306095D01*
X224593681Y-74267781D01*
X224633907Y-74185379D01*
X224658586Y-74097066D01*
X224666681Y-74052999D01*
X224675000Y-73961668D01*
X224675000Y-73906065D01*
X224675637Y-73893509D01*
X224675873Y-73891198D01*
X224681526Y-73864770D01*
X224691887Y-73833501D01*
X224704049Y-73807420D01*
X224718905Y-73783334D01*
X224736756Y-73760758D01*
X224756758Y-73740756D01*
X224779334Y-73722905D01*
X224803420Y-73708049D01*
X224829506Y-73695886D01*
X224860763Y-73685528D01*
X224887154Y-73679877D01*
X224919550Y-73676569D01*
X225011458Y-73658455D01*
X225055344Y-73645484D01*
X225142339Y-73610720D01*
X225221425Y-73560499D01*
X225257617Y-73532493D01*
X225326072Y-73468545D01*
X225377821Y-73410326D01*
X225426683Y-73376708D01*
X225485569Y-73369627D01*
X225541008Y-73390705D01*
X225580316Y-73435119D01*
X225594500Y-73492708D01*
X225594500Y-75568000D01*
X225577887Y-75630000D01*
X225532500Y-75675387D01*
X225470500Y-75692000D01*
X221786894Y-75692000D01*
X221744681Y-75684594D01*
X221707511Y-75663259D01*
X221024617Y-75094181D01*
X220991707Y-75051517D01*
X220980000Y-74998922D01*
X220980000Y-74469730D01*
X220989439Y-74422277D01*
X221016319Y-74382049D01*
X221047128Y-74351240D01*
X221083712Y-74314656D01*
X221175814Y-74165334D01*
X221230999Y-73998797D01*
X221241500Y-73896009D01*
X221241499Y-71645992D01*
X221230999Y-71543203D01*
X221175814Y-71376666D01*
X221083712Y-71227344D01*
X221016319Y-71159951D01*
X220989439Y-71119723D01*
X220980000Y-71072270D01*
X220980000Y-70918500D01*
X220996613Y-70856500D01*
X221042000Y-70811113D01*
X221104000Y-70794500D01*
X222341304Y-70794500D01*
X222406094Y-70812773D01*
G37*
G04 #@! TD.AperFunction*
G04 #@! TA.AperFunction,Conductor*
G36*
X236433646Y-67298967D02*
G01*
X236773155Y-67683253D01*
X236776087Y-67691000D01*
X236773155Y-67698747D01*
X236433646Y-68083032D01*
X236426158Y-68086915D01*
X236418004Y-68084753D01*
X235983826Y-67769504D01*
X235980276Y-67765349D01*
X235979000Y-67760036D01*
X235979000Y-67621964D01*
X235980276Y-67616651D01*
X235983826Y-67612496D01*
X236415634Y-67298967D01*
X236418005Y-67297245D01*
X236426158Y-67295084D01*
X236433646Y-67298967D01*
G37*
G04 #@! TD.AperFunction*
G04 #@! TA.AperFunction,Conductor*
G36*
X231623448Y-69293576D02*
G01*
X231790136Y-69344142D01*
X231795013Y-69347065D01*
X231889363Y-69441415D01*
X231892531Y-69447238D01*
X231892025Y-69453848D01*
X231888009Y-69459123D01*
X231680095Y-69611601D01*
X231675898Y-69613545D01*
X231671275Y-69613711D01*
X231044125Y-69510457D01*
X230947563Y-69494559D01*
X230940731Y-69490800D01*
X230937779Y-69483580D01*
X230940020Y-69476109D01*
X230946459Y-69471708D01*
X231617054Y-69293466D01*
X231623448Y-69293576D01*
G37*
G04 #@! TD.AperFunction*
G04 #@! TA.AperFunction,Conductor*
G36*
X234656362Y-67893362D02*
G01*
X235119896Y-68564153D01*
X235121923Y-68571860D01*
X235118544Y-68579077D01*
X234708022Y-68989599D01*
X234700851Y-68992974D01*
X234693174Y-68991004D01*
X234076666Y-68572179D01*
X234046957Y-68551996D01*
X234042442Y-68546046D01*
X234042447Y-68538577D01*
X234198589Y-68076334D01*
X234201135Y-68072082D01*
X234205213Y-68069265D01*
X234642281Y-67889194D01*
X234650056Y-67888794D01*
X234656362Y-67893362D01*
G37*
G04 #@! TD.AperFunction*
G04 #@! TA.AperFunction,Conductor*
G36*
X209872467Y-81388749D02*
G01*
X210350884Y-81759709D01*
X210351988Y-81760682D01*
X211469386Y-82878080D01*
X211472748Y-82885117D01*
X211470939Y-82892704D01*
X211464764Y-82897469D01*
X209997330Y-83379515D01*
X209990545Y-83379671D01*
X207042276Y-82559878D01*
X207036304Y-82555952D01*
X207033730Y-82549285D01*
X207035514Y-82542365D01*
X207040988Y-82537774D01*
X209860879Y-81387161D01*
X209866885Y-81386403D01*
X209872467Y-81388749D01*
G37*
G04 #@! TD.AperFunction*
G04 #@! TA.AperFunction,Conductor*
G36*
X232061518Y-62564633D02*
G01*
X232865133Y-63000929D01*
X232869605Y-63005228D01*
X232871250Y-63011210D01*
X232871250Y-63397290D01*
X232869605Y-63403272D01*
X232865133Y-63407570D01*
X232383891Y-63668845D01*
X232061521Y-63843865D01*
X232054690Y-63845216D01*
X232048301Y-63842446D01*
X231539826Y-63404250D01*
X231318033Y-63213112D01*
X231314449Y-63207556D01*
X231314449Y-63200944D01*
X231318034Y-63195387D01*
X232048303Y-62566051D01*
X232054690Y-62563283D01*
X232061518Y-62564633D01*
G37*
G04 #@! TD.AperFunction*
G04 #@! TA.AperFunction,Conductor*
G36*
X219236396Y-60257788D02*
G01*
X219331878Y-60353270D01*
X219335067Y-60359194D01*
X219334465Y-60365895D01*
X219034393Y-61114721D01*
X219030733Y-61119591D01*
X219025121Y-61121961D01*
X219019079Y-61121188D01*
X218635156Y-60963121D01*
X218630539Y-60959691D01*
X218628114Y-60954476D01*
X218541210Y-60495019D01*
X218542611Y-60486931D01*
X218548982Y-60481754D01*
X219224400Y-60254969D01*
X219230799Y-60254671D01*
X219236396Y-60257788D01*
G37*
G04 #@! TD.AperFunction*
G04 #@! TA.AperFunction,Conductor*
G36*
X234399623Y-67149025D02*
G01*
X234403925Y-67154398D01*
X234630650Y-67727746D01*
X234631058Y-67735127D01*
X234626959Y-67741279D01*
X234208189Y-68067401D01*
X234201000Y-68069870D01*
X234193811Y-68067401D01*
X233775040Y-67741279D01*
X233770941Y-67735127D01*
X233771348Y-67727748D01*
X233998075Y-67154398D01*
X234002377Y-67149025D01*
X234008955Y-67147000D01*
X234393045Y-67147000D01*
X234399623Y-67149025D01*
G37*
G04 #@! TD.AperFunction*
G04 #@! TA.AperFunction,Conductor*
G36*
X237310023Y-63685642D02*
G01*
X237314323Y-63690109D01*
X237522171Y-64072166D01*
X237523544Y-64076691D01*
X237523015Y-64081390D01*
X237247122Y-64925953D01*
X237242870Y-64931791D01*
X237236000Y-64934020D01*
X237229130Y-64931791D01*
X237224878Y-64925953D01*
X236948984Y-64081390D01*
X236948455Y-64076691D01*
X236949827Y-64072168D01*
X237157677Y-63690109D01*
X237161977Y-63685642D01*
X237167955Y-63684000D01*
X237304045Y-63684000D01*
X237310023Y-63685642D01*
G37*
G04 #@! TD.AperFunction*
G04 #@! TA.AperFunction,Conductor*
G36*
X223260477Y-65848114D02*
G01*
X223265691Y-65850539D01*
X223269121Y-65855156D01*
X223427188Y-66239079D01*
X223427961Y-66245121D01*
X223425591Y-66250733D01*
X223420721Y-66254393D01*
X222671895Y-66554465D01*
X222665194Y-66555067D01*
X222659270Y-66551878D01*
X222563788Y-66456396D01*
X222560671Y-66450799D01*
X222560970Y-66444399D01*
X222627882Y-66245121D01*
X222787754Y-65768981D01*
X222792931Y-65762611D01*
X222801019Y-65761210D01*
X223260477Y-65848114D01*
G37*
G04 #@! TD.AperFunction*
G04 #@! TA.AperFunction,Conductor*
G36*
X231624044Y-67994305D02*
G01*
X231844002Y-68092958D01*
X231875088Y-68106900D01*
X231880121Y-68111216D01*
X231882000Y-68117575D01*
X231882000Y-68252425D01*
X231880121Y-68258784D01*
X231875088Y-68263100D01*
X231624046Y-68375693D01*
X231616264Y-68376328D01*
X230936223Y-68196309D01*
X230929947Y-68192137D01*
X230927518Y-68185000D01*
X230929947Y-68177864D01*
X230936223Y-68173690D01*
X231616266Y-67993671D01*
X231624044Y-67994305D01*
G37*
G04 #@! TD.AperFunction*
G04 #@! TA.AperFunction,Conductor*
G36*
X223862393Y-68709922D02*
G01*
X224186624Y-69201843D01*
X224188495Y-69209465D01*
X224185128Y-69216555D01*
X224087907Y-69313776D01*
X224082964Y-69316719D01*
X223741218Y-69418198D01*
X223733656Y-69417890D01*
X223727866Y-69413017D01*
X223461126Y-68969982D01*
X223459749Y-68961321D01*
X223464779Y-68954136D01*
X223846254Y-68706546D01*
X223855019Y-68704909D01*
X223862393Y-68709922D01*
G37*
G04 #@! TD.AperFunction*
G04 #@! TA.AperFunction,Conductor*
G36*
X243683171Y-76824105D02*
G01*
X243690039Y-76828135D01*
X243692737Y-76835627D01*
X243690016Y-76843110D01*
X243683136Y-76847119D01*
X241143904Y-77310261D01*
X241139036Y-77310119D01*
X240244972Y-77092361D01*
X240238260Y-77087849D01*
X240236078Y-77080062D01*
X240239467Y-77072721D01*
X240788983Y-76523205D01*
X240792295Y-76520883D01*
X241145931Y-76355617D01*
X241153016Y-76354714D01*
X243683171Y-76824105D01*
G37*
G04 #@! TD.AperFunction*
G04 #@! TA.AperFunction,Conductor*
G36*
X224484736Y-66685797D02*
G01*
X225119205Y-66870833D01*
X225125518Y-66875361D01*
X225127602Y-66882847D01*
X225124536Y-66889988D01*
X225117674Y-66893633D01*
X224390417Y-67003368D01*
X224381961Y-67001383D01*
X224157667Y-66844309D01*
X224153505Y-66839046D01*
X224152921Y-66832361D01*
X224156104Y-66826456D01*
X224249797Y-66732763D01*
X224255804Y-66729560D01*
X224479202Y-66685551D01*
X224484736Y-66685797D01*
G37*
G04 #@! TD.AperFunction*
G04 #@! TA.AperFunction,Conductor*
G36*
X225086395Y-68162735D02*
G01*
X225127775Y-68173690D01*
X225134052Y-68177864D01*
X225136481Y-68185000D01*
X225134052Y-68192137D01*
X225127775Y-68196310D01*
X224447735Y-68376328D01*
X224439953Y-68375693D01*
X224188912Y-68263100D01*
X224183879Y-68258784D01*
X224182000Y-68252425D01*
X224182000Y-68117575D01*
X224183879Y-68111216D01*
X224188912Y-68106900D01*
X224205511Y-68099455D01*
X224439955Y-67994305D01*
X224447733Y-67993671D01*
X225086395Y-68162735D01*
G37*
G04 #@! TD.AperFunction*
G04 #@! TA.AperFunction,Conductor*
G36*
X232108894Y-70620157D02*
G01*
X232240115Y-70670265D01*
X232259926Y-70674231D01*
X232278895Y-70679630D01*
X232323886Y-70696412D01*
X232380515Y-70702500D01*
X232921484Y-70702499D01*
X232978114Y-70696412D01*
X233106226Y-70648628D01*
X233122115Y-70636733D01*
X233157268Y-70618346D01*
X233196427Y-70612000D01*
X233655573Y-70612000D01*
X233694732Y-70618346D01*
X233729884Y-70636733D01*
X233745774Y-70648628D01*
X233831961Y-70680774D01*
X233866617Y-70693701D01*
X233866618Y-70693701D01*
X233873886Y-70696412D01*
X233930515Y-70702500D01*
X234318001Y-70702499D01*
X234380000Y-70719112D01*
X234425387Y-70764499D01*
X234442000Y-70826499D01*
X234442000Y-72699500D01*
X234425387Y-72761500D01*
X234380000Y-72806887D01*
X234318000Y-72823500D01*
X233029351Y-72823500D01*
X232979931Y-72813226D01*
X232938700Y-72784107D01*
X231955777Y-71730975D01*
X231928081Y-71683382D01*
X231923724Y-71628491D01*
X231932500Y-71568260D01*
X231932500Y-71301740D01*
X231922573Y-71233607D01*
X231871198Y-71128517D01*
X231788483Y-71045802D01*
X231779256Y-71041291D01*
X231779253Y-71041289D01*
X231692045Y-70998656D01*
X231692041Y-70998654D01*
X231683393Y-70994427D01*
X231663865Y-70991581D01*
X231619697Y-70985146D01*
X231619690Y-70985145D01*
X231615260Y-70984500D01*
X231610778Y-70984500D01*
X231391000Y-70984500D01*
X231329000Y-70967887D01*
X231283613Y-70922500D01*
X231267000Y-70860500D01*
X231267000Y-70736000D01*
X231283613Y-70674000D01*
X231329000Y-70628613D01*
X231391000Y-70612000D01*
X232064660Y-70612000D01*
X232108894Y-70620157D01*
G37*
G04 #@! TD.AperFunction*
G04 #@! TA.AperFunction,Conductor*
G36*
X236677002Y-66295310D02*
G01*
X236678615Y-66296561D01*
X236684135Y-66302081D01*
X236825602Y-66385744D01*
X236983431Y-66431598D01*
X237020306Y-66434500D01*
X237449249Y-66434500D01*
X237451694Y-66434500D01*
X237488569Y-66431598D01*
X237646398Y-66385744D01*
X237647160Y-66388367D01*
X237692261Y-66381069D01*
X237749613Y-66400983D01*
X237790638Y-66445737D01*
X237805500Y-66504601D01*
X237805500Y-66797481D01*
X237796061Y-66844934D01*
X237769181Y-66885162D01*
X237691681Y-66962662D01*
X237636094Y-66994756D01*
X237571906Y-66994756D01*
X237516319Y-66962662D01*
X237419488Y-66865831D01*
X237419487Y-66865830D01*
X237414185Y-66860528D01*
X237388389Y-66844934D01*
X237275021Y-66776400D01*
X237275020Y-66776399D01*
X237268606Y-66772522D01*
X237239500Y-66763452D01*
X237112457Y-66723864D01*
X237112448Y-66723862D01*
X237106196Y-66721914D01*
X237099662Y-66721320D01*
X237099661Y-66721320D01*
X237038425Y-66715755D01*
X237038419Y-66715754D01*
X237035616Y-66715500D01*
X236522384Y-66715500D01*
X236519581Y-66715754D01*
X236519574Y-66715755D01*
X236458338Y-66721320D01*
X236458335Y-66721320D01*
X236451804Y-66721914D01*
X236445553Y-66723861D01*
X236445542Y-66723864D01*
X236296550Y-66770292D01*
X236289394Y-66772522D01*
X236282982Y-66776398D01*
X236282978Y-66776400D01*
X236150232Y-66856648D01*
X236150227Y-66856651D01*
X236143815Y-66860528D01*
X236138512Y-66865830D01*
X236138513Y-66865830D01*
X236134288Y-66870055D01*
X236078700Y-66902145D01*
X236014515Y-66902143D01*
X235958930Y-66870050D01*
X235735061Y-66646181D01*
X235704811Y-66596818D01*
X235700269Y-66539102D01*
X235722424Y-66485615D01*
X235766447Y-66448015D01*
X235822742Y-66434500D01*
X236179249Y-66434500D01*
X236181694Y-66434500D01*
X236218569Y-66431598D01*
X236376398Y-66385744D01*
X236517865Y-66302081D01*
X236523384Y-66296561D01*
X236524998Y-66295310D01*
X236573950Y-66272274D01*
X236628050Y-66272274D01*
X236677002Y-66295310D01*
G37*
G04 #@! TD.AperFunction*
G04 #@! TA.AperFunction,Conductor*
G36*
X235124430Y-62983423D02*
G01*
X235173793Y-63013673D01*
X235354181Y-63194061D01*
X235381061Y-63234289D01*
X235390500Y-63281742D01*
X235390500Y-63514660D01*
X235375424Y-63573918D01*
X235237297Y-63827814D01*
X235237289Y-63827829D01*
X235235784Y-63830597D01*
X235234566Y-63833505D01*
X235234565Y-63833509D01*
X235229629Y-63845303D01*
X235221981Y-63860539D01*
X235218224Y-63866891D01*
X235218222Y-63866895D01*
X235214256Y-63873602D01*
X235212082Y-63881082D01*
X235212078Y-63881093D01*
X235208206Y-63894419D01*
X235203522Y-63907681D01*
X235200799Y-63914189D01*
X235196093Y-63925433D01*
X235195180Y-63928442D01*
X235195172Y-63928465D01*
X235195145Y-63928555D01*
X235195132Y-63928576D01*
X235194106Y-63931428D01*
X235193542Y-63931225D01*
X235175789Y-63960802D01*
X235174605Y-64010078D01*
X235170167Y-64025351D01*
X235170164Y-64025363D01*
X235168402Y-64031431D01*
X235167906Y-64037733D01*
X235167905Y-64037739D01*
X235165691Y-64065871D01*
X235165690Y-64065886D01*
X235165500Y-64068306D01*
X235165500Y-64070751D01*
X235165500Y-65051796D01*
X235151985Y-65108091D01*
X235114385Y-65152114D01*
X235060898Y-65174269D01*
X235003182Y-65169727D01*
X234953819Y-65139477D01*
X234590822Y-64776480D01*
X234580127Y-64764285D01*
X234566860Y-64746995D01*
X234566856Y-64746991D01*
X234561913Y-64740549D01*
X234531732Y-64717390D01*
X234531730Y-64717388D01*
X234452750Y-64656785D01*
X234412833Y-64603774D01*
X234405968Y-64537767D01*
X234434124Y-64477674D01*
X234489235Y-64440705D01*
X234530947Y-64426883D01*
X234680269Y-64334781D01*
X234804325Y-64210725D01*
X234896427Y-64061403D01*
X234937822Y-63936480D01*
X234957065Y-63907023D01*
X234953138Y-63879921D01*
X234962113Y-63792078D01*
X234962112Y-63101353D01*
X234975627Y-63045059D01*
X235013227Y-63001036D01*
X235066714Y-62978881D01*
X235124430Y-62983423D01*
G37*
G04 #@! TD.AperFunction*
G04 #@! TA.AperFunction,Conductor*
G36*
X232034943Y-59258103D02*
G01*
X232074026Y-59282718D01*
X232428629Y-59612662D01*
X232465327Y-59646808D01*
X232468539Y-59649907D01*
X232586344Y-59767712D01*
X232592485Y-59771500D01*
X232592488Y-59771502D01*
X232617741Y-59787078D01*
X232735666Y-59859814D01*
X232902203Y-59914999D01*
X233004991Y-59925500D01*
X234355008Y-59925499D01*
X234457797Y-59914999D01*
X234624334Y-59859814D01*
X234773656Y-59767712D01*
X234897712Y-59643656D01*
X234935961Y-59581643D01*
X234982015Y-59537940D01*
X235043664Y-59522759D01*
X235104745Y-59540081D01*
X235149246Y-59585366D01*
X235165500Y-59646740D01*
X235165500Y-60899694D01*
X235165690Y-60902114D01*
X235165691Y-60902128D01*
X235167904Y-60930251D01*
X235167905Y-60930258D01*
X235168402Y-60936569D01*
X235170168Y-60942650D01*
X235170170Y-60942657D01*
X235192999Y-61021231D01*
X235195552Y-61079958D01*
X235170772Y-61133262D01*
X235124226Y-61169164D01*
X235066377Y-61179596D01*
X235010223Y-61162213D01*
X234968384Y-61120923D01*
X234956165Y-61101113D01*
X234897712Y-61006344D01*
X234773656Y-60882288D01*
X234767515Y-60878500D01*
X234767511Y-60878497D01*
X234630480Y-60793977D01*
X234624334Y-60790186D01*
X234574178Y-60773566D01*
X234464225Y-60737131D01*
X234464224Y-60737130D01*
X234457797Y-60735001D01*
X234451064Y-60734313D01*
X234451059Y-60734312D01*
X234358140Y-60724819D01*
X234358123Y-60724818D01*
X234355009Y-60724500D01*
X234351860Y-60724500D01*
X233008140Y-60724500D01*
X233008120Y-60724500D01*
X233004992Y-60724501D01*
X233001860Y-60724820D01*
X233001858Y-60724821D01*
X232908938Y-60734312D01*
X232908928Y-60734313D01*
X232902203Y-60735001D01*
X232895781Y-60737128D01*
X232895776Y-60737130D01*
X232742521Y-60787914D01*
X232742517Y-60787915D01*
X232735666Y-60790186D01*
X232729522Y-60793975D01*
X232729519Y-60793977D01*
X232592488Y-60878497D01*
X232592480Y-60878503D01*
X232586344Y-60882288D01*
X232581242Y-60887389D01*
X232581238Y-60887393D01*
X232467393Y-61001238D01*
X232467389Y-61001242D01*
X232462288Y-61006344D01*
X232458503Y-61012480D01*
X232458497Y-61012488D01*
X232373977Y-61149519D01*
X232370186Y-61155666D01*
X232367915Y-61162517D01*
X232367914Y-61162521D01*
X232321855Y-61301519D01*
X232315001Y-61322203D01*
X232314313Y-61328933D01*
X232314312Y-61328940D01*
X232304819Y-61421859D01*
X232304818Y-61421877D01*
X232304500Y-61424991D01*
X232304500Y-61428140D01*
X232304500Y-61943969D01*
X232290903Y-62000424D01*
X232253094Y-62044498D01*
X232199364Y-62066526D01*
X232141498Y-62061675D01*
X232117981Y-62053882D01*
X232117972Y-62053880D01*
X232111547Y-62051751D01*
X232104810Y-62051062D01*
X232104807Y-62051062D01*
X232011890Y-62041569D01*
X232011873Y-62041568D01*
X232008759Y-62041250D01*
X232005610Y-62041250D01*
X230611890Y-62041250D01*
X230611870Y-62041250D01*
X230608742Y-62041251D01*
X230605610Y-62041570D01*
X230605608Y-62041571D01*
X230512691Y-62051062D01*
X230512684Y-62051063D01*
X230505953Y-62051751D01*
X230499526Y-62053880D01*
X230499524Y-62053881D01*
X230437580Y-62074406D01*
X230422399Y-62078390D01*
X230400483Y-62082679D01*
X230400467Y-62082683D01*
X230396554Y-62083449D01*
X230392769Y-62084713D01*
X230392757Y-62084717D01*
X229895770Y-62250801D01*
X229829189Y-62254156D01*
X229826631Y-62253579D01*
X229826611Y-62253575D01*
X229824012Y-62252989D01*
X229821370Y-62252628D01*
X229821358Y-62252626D01*
X229809959Y-62251069D01*
X229792149Y-62247287D01*
X229759898Y-62237917D01*
X229759887Y-62237915D01*
X229753819Y-62236152D01*
X229747514Y-62235655D01*
X229747510Y-62235655D01*
X229719378Y-62233441D01*
X229719364Y-62233440D01*
X229716944Y-62233250D01*
X229714499Y-62233250D01*
X229123302Y-62233250D01*
X229066261Y-62219351D01*
X229022007Y-62180771D01*
X229000460Y-62126158D01*
X229006451Y-62067754D01*
X229038637Y-62018653D01*
X229089802Y-61989861D01*
X229271558Y-61938861D01*
X229305058Y-61934250D01*
X229714499Y-61934250D01*
X229716944Y-61934250D01*
X229753819Y-61931348D01*
X229911648Y-61885494D01*
X230053115Y-61801831D01*
X230169331Y-61685615D01*
X230252994Y-61544148D01*
X230298848Y-61386319D01*
X230301750Y-61349444D01*
X230301750Y-60918056D01*
X230298848Y-60881181D01*
X230252994Y-60723352D01*
X230199010Y-60632070D01*
X230173303Y-60588601D01*
X230173302Y-60588599D01*
X230169331Y-60581885D01*
X230053115Y-60465669D01*
X230046401Y-60461698D01*
X230046398Y-60461696D01*
X229918363Y-60385977D01*
X229918361Y-60385976D01*
X229911648Y-60382006D01*
X229904155Y-60379829D01*
X229759907Y-60337920D01*
X229759900Y-60337918D01*
X229753819Y-60336152D01*
X229747508Y-60335655D01*
X229747501Y-60335654D01*
X229719378Y-60333441D01*
X229719364Y-60333440D01*
X229716944Y-60333250D01*
X228560556Y-60333250D01*
X228558136Y-60333440D01*
X228558121Y-60333441D01*
X228529998Y-60335654D01*
X228529989Y-60335655D01*
X228523681Y-60336152D01*
X228517601Y-60337918D01*
X228517592Y-60337920D01*
X228373344Y-60379829D01*
X228373341Y-60379830D01*
X228365852Y-60382006D01*
X228359141Y-60385974D01*
X228359136Y-60385977D01*
X228231101Y-60461696D01*
X228231094Y-60461700D01*
X228224385Y-60465669D01*
X228218870Y-60471183D01*
X228218866Y-60471187D01*
X228113687Y-60576366D01*
X228113683Y-60576370D01*
X228108169Y-60581885D01*
X228104197Y-60588600D01*
X228099416Y-60594765D01*
X228097073Y-60592948D01*
X228062672Y-60626799D01*
X228001250Y-60643080D01*
X227939828Y-60626799D01*
X227905426Y-60592948D01*
X227903084Y-60594765D01*
X227898303Y-60588601D01*
X227894331Y-60581885D01*
X227778115Y-60465669D01*
X227771401Y-60461698D01*
X227771398Y-60461696D01*
X227643363Y-60385977D01*
X227643361Y-60385976D01*
X227636648Y-60382006D01*
X227629155Y-60379829D01*
X227484907Y-60337920D01*
X227484900Y-60337918D01*
X227478819Y-60336152D01*
X227472508Y-60335655D01*
X227472501Y-60335654D01*
X227444378Y-60333441D01*
X227444364Y-60333440D01*
X227441944Y-60333250D01*
X226285556Y-60333250D01*
X226283136Y-60333440D01*
X226283121Y-60333441D01*
X226254998Y-60335654D01*
X226254989Y-60335655D01*
X226248681Y-60336152D01*
X226242601Y-60337918D01*
X226242592Y-60337920D01*
X226098344Y-60379829D01*
X226098341Y-60379830D01*
X226090852Y-60382006D01*
X226084141Y-60385974D01*
X226084136Y-60385977D01*
X225956101Y-60461696D01*
X225956094Y-60461700D01*
X225949385Y-60465669D01*
X225943870Y-60471183D01*
X225943866Y-60471187D01*
X225838687Y-60576366D01*
X225838683Y-60576370D01*
X225833169Y-60581885D01*
X225829200Y-60588594D01*
X225829196Y-60588601D01*
X225753477Y-60716636D01*
X225753474Y-60716641D01*
X225749506Y-60723352D01*
X225747330Y-60730841D01*
X225747329Y-60730844D01*
X225705420Y-60875092D01*
X225705418Y-60875101D01*
X225703652Y-60881181D01*
X225703155Y-60887489D01*
X225703154Y-60887498D01*
X225700941Y-60915621D01*
X225700940Y-60915636D01*
X225700750Y-60918056D01*
X225700750Y-61349444D01*
X225700940Y-61351864D01*
X225700941Y-61351878D01*
X225703154Y-61380001D01*
X225703155Y-61380008D01*
X225703652Y-61386319D01*
X225705418Y-61392400D01*
X225705420Y-61392407D01*
X225732176Y-61484500D01*
X225749506Y-61544148D01*
X225753476Y-61550861D01*
X225753477Y-61550863D01*
X225829196Y-61678898D01*
X225829198Y-61678901D01*
X225833169Y-61685615D01*
X225949385Y-61801831D01*
X226090852Y-61885494D01*
X226248681Y-61931348D01*
X226285556Y-61934250D01*
X227140500Y-61934250D01*
X227202500Y-61950863D01*
X227247887Y-61996250D01*
X227264500Y-62058250D01*
X227264500Y-62109250D01*
X227247887Y-62171250D01*
X227202500Y-62216637D01*
X227140500Y-62233250D01*
X226285556Y-62233250D01*
X226283136Y-62233440D01*
X226283121Y-62233441D01*
X226254989Y-62235655D01*
X226254983Y-62235656D01*
X226248681Y-62236152D01*
X226242609Y-62237915D01*
X226242598Y-62237918D01*
X226210349Y-62247287D01*
X226192540Y-62251069D01*
X226181125Y-62252628D01*
X226181107Y-62252631D01*
X226178487Y-62252989D01*
X226175902Y-62253572D01*
X226174769Y-62253777D01*
X226113415Y-62249361D01*
X225620742Y-62084717D01*
X225620729Y-62084713D01*
X225616945Y-62083449D01*
X225613025Y-62082682D01*
X225613014Y-62082679D01*
X225591112Y-62078394D01*
X225575921Y-62074408D01*
X225513975Y-62053881D01*
X225513974Y-62053880D01*
X225507547Y-62051751D01*
X225500814Y-62051063D01*
X225500809Y-62051062D01*
X225407890Y-62041569D01*
X225407873Y-62041568D01*
X225404759Y-62041250D01*
X225401610Y-62041250D01*
X224007890Y-62041250D01*
X224007870Y-62041250D01*
X224004742Y-62041251D01*
X224001610Y-62041570D01*
X224001608Y-62041571D01*
X223908683Y-62051063D01*
X223908678Y-62051064D01*
X223901953Y-62051751D01*
X223895534Y-62053877D01*
X223895529Y-62053879D01*
X223836928Y-62073296D01*
X223831095Y-62075071D01*
X223787829Y-62087080D01*
X223780408Y-62089141D01*
X223776141Y-62091055D01*
X223776121Y-62091063D01*
X223761579Y-62097589D01*
X223749830Y-62102159D01*
X223742270Y-62104664D01*
X223742265Y-62104666D01*
X223735416Y-62106936D01*
X223729276Y-62110722D01*
X223729265Y-62110728D01*
X223728047Y-62111480D01*
X223715021Y-62118382D01*
X223715024Y-62118388D01*
X223714836Y-62118480D01*
X223713770Y-62119046D01*
X223712956Y-62119411D01*
X223712928Y-62119424D01*
X223710791Y-62120384D01*
X223708748Y-62121492D01*
X223708718Y-62121508D01*
X223151499Y-62424033D01*
X223045080Y-62481810D01*
X223032343Y-62488725D01*
X222973179Y-62503750D01*
X220919671Y-62503750D01*
X220912183Y-62503524D01*
X220859631Y-62500344D01*
X220859623Y-62500344D01*
X220852144Y-62499892D01*
X220844768Y-62501243D01*
X220844761Y-62501244D01*
X220792978Y-62510733D01*
X220785578Y-62511860D01*
X220733319Y-62518206D01*
X220733315Y-62518206D01*
X220725878Y-62519110D01*
X220718869Y-62521767D01*
X220718864Y-62521769D01*
X220716393Y-62522706D01*
X220694803Y-62528724D01*
X220692199Y-62529201D01*
X220692188Y-62529204D01*
X220684819Y-62530555D01*
X220677987Y-62533629D01*
X220677983Y-62533631D01*
X220629962Y-62555243D01*
X220623046Y-62558107D01*
X220573832Y-62576772D01*
X220573827Y-62576774D01*
X220566820Y-62579432D01*
X220560657Y-62583685D01*
X220560647Y-62583691D01*
X220558477Y-62585190D01*
X220538935Y-62596212D01*
X220536533Y-62597293D01*
X220536530Y-62597294D01*
X220529693Y-62600372D01*
X220523793Y-62604993D01*
X220523785Y-62604999D01*
X220482347Y-62637463D01*
X220476318Y-62641899D01*
X220432998Y-62671801D01*
X220432986Y-62671810D01*
X220426821Y-62676067D01*
X220421852Y-62681675D01*
X220421846Y-62681681D01*
X220386934Y-62721088D01*
X220381801Y-62726540D01*
X218059162Y-65049181D01*
X218018934Y-65076061D01*
X217971481Y-65085500D01*
X217745122Y-65085500D01*
X217683122Y-65068887D01*
X217637735Y-65023500D01*
X217621122Y-64961500D01*
X217621121Y-64031237D01*
X217621121Y-64027926D01*
X217614713Y-63968315D01*
X217564418Y-63833467D01*
X217478168Y-63718252D01*
X217461538Y-63705803D01*
X217370053Y-63637317D01*
X217370052Y-63637316D01*
X217362953Y-63632002D01*
X217262780Y-63594640D01*
X217235374Y-63584418D01*
X217235372Y-63584417D01*
X217228105Y-63581707D01*
X217220392Y-63580877D01*
X217220389Y-63580877D01*
X217171802Y-63575653D01*
X217171791Y-63575652D01*
X217168495Y-63575298D01*
X217165173Y-63575298D01*
X216340978Y-63575298D01*
X216288931Y-63563846D01*
X216246497Y-63531606D01*
X216150641Y-63418834D01*
X216128736Y-63381307D01*
X216121122Y-63338526D01*
X216121122Y-62684120D01*
X216130561Y-62636667D01*
X216157441Y-62596439D01*
X216272070Y-62481810D01*
X216620963Y-62132915D01*
X216669171Y-62103048D01*
X217023944Y-61983927D01*
X217148966Y-61941949D01*
X217188435Y-61935500D01*
X217233797Y-61935500D01*
X217236616Y-61935500D01*
X217307196Y-61929086D01*
X217469606Y-61878478D01*
X217615185Y-61790472D01*
X217717319Y-61688337D01*
X217772906Y-61656244D01*
X217837094Y-61656244D01*
X217892681Y-61688337D01*
X217994815Y-61790472D01*
X218140394Y-61878478D01*
X218259859Y-61915704D01*
X218296542Y-61927135D01*
X218296544Y-61927135D01*
X218302804Y-61929086D01*
X218373384Y-61935500D01*
X218883797Y-61935500D01*
X218886616Y-61935500D01*
X218957196Y-61929086D01*
X219119606Y-61878478D01*
X219265185Y-61790472D01*
X219385472Y-61670185D01*
X219473478Y-61524606D01*
X219524086Y-61362196D01*
X219530500Y-61291616D01*
X219530500Y-61259595D01*
X219539398Y-61213471D01*
X219763307Y-60654705D01*
X219790725Y-60613153D01*
X221118060Y-59285819D01*
X221158289Y-59258939D01*
X221205742Y-59249500D01*
X231989560Y-59249500D01*
X232034943Y-59258103D01*
G37*
G04 #@! TD.AperFunction*
G04 #@! TA.AperFunction,Conductor*
G36*
X247504418Y-56000816D02*
G01*
X247569734Y-56005487D01*
X247569740Y-56005488D01*
X247712449Y-56016719D01*
X247729054Y-56019168D01*
X247818500Y-56038625D01*
X247820979Y-56039192D01*
X247932570Y-56065983D01*
X247946925Y-56070365D01*
X248037735Y-56104236D01*
X248041696Y-56105794D01*
X248142794Y-56147670D01*
X248154758Y-56153394D01*
X248241588Y-56200807D01*
X248246915Y-56203892D01*
X248338433Y-56259974D01*
X248347951Y-56266432D01*
X248427845Y-56326241D01*
X248434037Y-56331193D01*
X248485198Y-56374889D01*
X248515086Y-56400416D01*
X248522235Y-56407025D01*
X248592973Y-56477763D01*
X248599582Y-56484912D01*
X248668793Y-56565947D01*
X248673770Y-56572169D01*
X248733564Y-56652045D01*
X248740024Y-56661565D01*
X248796100Y-56753072D01*
X248799206Y-56758436D01*
X248846602Y-56845237D01*
X248852330Y-56857209D01*
X248875679Y-56913578D01*
X248894181Y-56958245D01*
X248895785Y-56962324D01*
X248910630Y-57002124D01*
X248929627Y-57053056D01*
X248934019Y-57067442D01*
X248960793Y-57178964D01*
X248961385Y-57181553D01*
X248980828Y-57270933D01*
X248983280Y-57287562D01*
X248994485Y-57429934D01*
X248994551Y-57430815D01*
X248999184Y-57495580D01*
X248999500Y-57504428D01*
X248999500Y-92495572D01*
X248999184Y-92504420D01*
X248994551Y-92569183D01*
X248994485Y-92570064D01*
X248983280Y-92712438D01*
X248980828Y-92729067D01*
X248961390Y-92818423D01*
X248960798Y-92821012D01*
X248934019Y-92932556D01*
X248929627Y-92946942D01*
X248895790Y-93037663D01*
X248894169Y-93041784D01*
X248852330Y-93142789D01*
X248846602Y-93154761D01*
X248799206Y-93241562D01*
X248796100Y-93246926D01*
X248740024Y-93338433D01*
X248733564Y-93347953D01*
X248673770Y-93427829D01*
X248668793Y-93434051D01*
X248599582Y-93515086D01*
X248592973Y-93522235D01*
X248522235Y-93592973D01*
X248515086Y-93599582D01*
X248434051Y-93668793D01*
X248427829Y-93673770D01*
X248347953Y-93733564D01*
X248338433Y-93740024D01*
X248246926Y-93796100D01*
X248241562Y-93799206D01*
X248154761Y-93846602D01*
X248142789Y-93852330D01*
X248041784Y-93894169D01*
X248037663Y-93895790D01*
X247946942Y-93929627D01*
X247932556Y-93934019D01*
X247821012Y-93960798D01*
X247818423Y-93961390D01*
X247729067Y-93980828D01*
X247712438Y-93983280D01*
X247570064Y-93994485D01*
X247569183Y-93994551D01*
X247513010Y-93998569D01*
X247504416Y-93999184D01*
X247495572Y-93999500D01*
X202504428Y-93999500D01*
X202495583Y-93999184D01*
X202485521Y-93998464D01*
X202430815Y-93994551D01*
X202429934Y-93994485D01*
X202287560Y-93983280D01*
X202270931Y-93980828D01*
X202181575Y-93961390D01*
X202178986Y-93960798D01*
X202067442Y-93934019D01*
X202053056Y-93929627D01*
X201999050Y-93909484D01*
X201962324Y-93895785D01*
X201958245Y-93894181D01*
X201913578Y-93875679D01*
X201857209Y-93852330D01*
X201845237Y-93846602D01*
X201758436Y-93799206D01*
X201753072Y-93796100D01*
X201661565Y-93740024D01*
X201652045Y-93733564D01*
X201587542Y-93685278D01*
X201572162Y-93673764D01*
X201565955Y-93668799D01*
X201484912Y-93599582D01*
X201477763Y-93592973D01*
X201407025Y-93522235D01*
X201400416Y-93515086D01*
X201331193Y-93434037D01*
X201326241Y-93427845D01*
X201266432Y-93347951D01*
X201259974Y-93338433D01*
X201203898Y-93246926D01*
X201200807Y-93241588D01*
X201153394Y-93154758D01*
X201147668Y-93142789D01*
X201105794Y-93041696D01*
X201104236Y-93037735D01*
X201070365Y-92946925D01*
X201065983Y-92932570D01*
X201039192Y-92820979D01*
X201038625Y-92818500D01*
X201019168Y-92729054D01*
X201016719Y-92712449D01*
X201005488Y-92569740D01*
X201005487Y-92569734D01*
X201000816Y-92504418D01*
X201000500Y-92495574D01*
X201000500Y-90000000D01*
X201294422Y-90000000D01*
X201294592Y-90003244D01*
X201307010Y-90240199D01*
X201314722Y-90387338D01*
X201315227Y-90390531D01*
X201315229Y-90390543D01*
X201374889Y-90767224D01*
X201374891Y-90767237D01*
X201375398Y-90770433D01*
X201475786Y-91145087D01*
X201614786Y-91507194D01*
X201616255Y-91510077D01*
X201616259Y-91510086D01*
X201789400Y-91849895D01*
X201790875Y-91852789D01*
X202002124Y-92178084D01*
X202246219Y-92479516D01*
X202520484Y-92753781D01*
X202821916Y-92997876D01*
X203147211Y-93209125D01*
X203492806Y-93385214D01*
X203854913Y-93524214D01*
X204229567Y-93624602D01*
X204612662Y-93685278D01*
X205000000Y-93705578D01*
X205387338Y-93685278D01*
X205770433Y-93624602D01*
X206145087Y-93524214D01*
X206507194Y-93385214D01*
X206852789Y-93209125D01*
X207178084Y-92997876D01*
X207479516Y-92753781D01*
X207753781Y-92479516D01*
X207997876Y-92178084D01*
X208209125Y-91852789D01*
X208385214Y-91507194D01*
X208524214Y-91145087D01*
X208624602Y-90770433D01*
X208685278Y-90387338D01*
X208705578Y-90000000D01*
X208685278Y-89612662D01*
X208624602Y-89229567D01*
X208524214Y-88854913D01*
X208385214Y-88492806D01*
X208209125Y-88147211D01*
X207997876Y-87821916D01*
X207753781Y-87520484D01*
X207479516Y-87246219D01*
X207178084Y-87002124D01*
X206852789Y-86790875D01*
X206849901Y-86789403D01*
X206849895Y-86789400D01*
X206510086Y-86616259D01*
X206510077Y-86616255D01*
X206507194Y-86614786D01*
X206504162Y-86613622D01*
X206148110Y-86476946D01*
X206148102Y-86476943D01*
X206145087Y-86475786D01*
X206141962Y-86474948D01*
X206141957Y-86474947D01*
X205773566Y-86376237D01*
X205773557Y-86376235D01*
X205770433Y-86375398D01*
X205767237Y-86374891D01*
X205767224Y-86374889D01*
X205390543Y-86315229D01*
X205390531Y-86315227D01*
X205387338Y-86314722D01*
X205384103Y-86314552D01*
X205384099Y-86314552D01*
X205003244Y-86294592D01*
X205000000Y-86294422D01*
X204996756Y-86294592D01*
X204615900Y-86314552D01*
X204615894Y-86314552D01*
X204612662Y-86314722D01*
X204609470Y-86315227D01*
X204609456Y-86315229D01*
X204232775Y-86374889D01*
X204232758Y-86374892D01*
X204229567Y-86375398D01*
X204226446Y-86376234D01*
X204226433Y-86376237D01*
X203858042Y-86474947D01*
X203858031Y-86474950D01*
X203854913Y-86475786D01*
X203851902Y-86476941D01*
X203851889Y-86476946D01*
X203495837Y-86613622D01*
X203495828Y-86613625D01*
X203492806Y-86614786D01*
X203489929Y-86616251D01*
X203489913Y-86616259D01*
X203150104Y-86789400D01*
X203150090Y-86789408D01*
X203147211Y-86790875D01*
X203144491Y-86792641D01*
X203144483Y-86792646D01*
X202824644Y-87000352D01*
X202824638Y-87000355D01*
X202821916Y-87002124D01*
X202819396Y-87004164D01*
X202819390Y-87004169D01*
X202523002Y-87244179D01*
X202522991Y-87244188D01*
X202520484Y-87246219D01*
X202518199Y-87248503D01*
X202518189Y-87248513D01*
X202248513Y-87518189D01*
X202248503Y-87518199D01*
X202246219Y-87520484D01*
X202244188Y-87522991D01*
X202244179Y-87523002D01*
X202004169Y-87819390D01*
X202004164Y-87819396D01*
X202002124Y-87821916D01*
X202000355Y-87824638D01*
X202000352Y-87824644D01*
X201792646Y-88144483D01*
X201792641Y-88144491D01*
X201790875Y-88147211D01*
X201789408Y-88150090D01*
X201789400Y-88150104D01*
X201616259Y-88489913D01*
X201616251Y-88489929D01*
X201614786Y-88492806D01*
X201613625Y-88495828D01*
X201613622Y-88495837D01*
X201476946Y-88851889D01*
X201476941Y-88851902D01*
X201475786Y-88854913D01*
X201474950Y-88858031D01*
X201474947Y-88858042D01*
X201376237Y-89226433D01*
X201376234Y-89226446D01*
X201375398Y-89229567D01*
X201374892Y-89232758D01*
X201374889Y-89232775D01*
X201315229Y-89609456D01*
X201315227Y-89609470D01*
X201314722Y-89612662D01*
X201314552Y-89615894D01*
X201314552Y-89615900D01*
X201298667Y-89919000D01*
X201294422Y-90000000D01*
X201000500Y-90000000D01*
X201000500Y-83361795D01*
X203509500Y-83361795D01*
X203509501Y-83364216D01*
X203509691Y-83366635D01*
X203509692Y-83366651D01*
X203519494Y-83491208D01*
X203519904Y-83496412D01*
X203521179Y-83501473D01*
X203521180Y-83501477D01*
X203566308Y-83680568D01*
X203574904Y-83714683D01*
X203667993Y-83919626D01*
X203671165Y-83924205D01*
X203671166Y-83924206D01*
X203793005Y-84100071D01*
X203793010Y-84100077D01*
X203796181Y-84104654D01*
X203955346Y-84263819D01*
X203959923Y-84266990D01*
X203959928Y-84266994D01*
X204075963Y-84347383D01*
X204140374Y-84392007D01*
X204345317Y-84485096D01*
X204563588Y-84540096D01*
X204695783Y-84550500D01*
X209324216Y-84550499D01*
X209456412Y-84540096D01*
X209674683Y-84485096D01*
X209879626Y-84392007D01*
X210064654Y-84263819D01*
X210223819Y-84104654D01*
X210352007Y-83919626D01*
X210354310Y-83914555D01*
X210355022Y-83913301D01*
X210400469Y-83867344D01*
X210462868Y-83850500D01*
X210579209Y-83850500D01*
X210579217Y-83850500D01*
X210579221Y-83850501D01*
X210801366Y-83850501D01*
X210806779Y-83850501D01*
X210857617Y-83841536D01*
X210868296Y-83840131D01*
X210919692Y-83835635D01*
X210969542Y-83822276D01*
X210980053Y-83819946D01*
X211030880Y-83810985D01*
X211079360Y-83793338D01*
X211089643Y-83790095D01*
X211139496Y-83776739D01*
X211186240Y-83754940D01*
X211196235Y-83750800D01*
X211244715Y-83733156D01*
X211289398Y-83707356D01*
X211298982Y-83702368D01*
X211345734Y-83680568D01*
X211387997Y-83650973D01*
X211397100Y-83645175D01*
X211441786Y-83619377D01*
X211481306Y-83586214D01*
X211489873Y-83579640D01*
X211532139Y-83550047D01*
X211693047Y-83389139D01*
X211693049Y-83389135D01*
X213037663Y-82044521D01*
X213077892Y-82017641D01*
X213125345Y-82008202D01*
X213845396Y-82008202D01*
X213848105Y-82008202D01*
X214018013Y-81993337D01*
X214237817Y-81934441D01*
X214329095Y-81891876D01*
X214389610Y-81880524D01*
X214448125Y-81899678D01*
X214490214Y-81944616D01*
X214505500Y-82004259D01*
X214505500Y-89919000D01*
X214506028Y-89923017D01*
X214506029Y-89923019D01*
X214522194Y-90045807D01*
X214522196Y-90045819D01*
X214522725Y-90049834D01*
X214539338Y-90111834D01*
X214589837Y-90233750D01*
X214594783Y-90240196D01*
X214594785Y-90240199D01*
X214663731Y-90330049D01*
X214670171Y-90338442D01*
X214715558Y-90383829D01*
X214820250Y-90464163D01*
X214942166Y-90514662D01*
X215004166Y-90531275D01*
X215135000Y-90548500D01*
X217189840Y-90548500D01*
X217233173Y-90556318D01*
X217306838Y-90583793D01*
X217366448Y-90590202D01*
X220822193Y-90590201D01*
X220881804Y-90583793D01*
X220955468Y-90556318D01*
X220998802Y-90548500D01*
X229741947Y-90548500D01*
X229746000Y-90548500D01*
X229876834Y-90531275D01*
X229938834Y-90514662D01*
X230060750Y-90464163D01*
X230165442Y-90383829D01*
X230210829Y-90338442D01*
X230291163Y-90233750D01*
X230341662Y-90111834D01*
X230358275Y-90049834D01*
X230364836Y-90000000D01*
X241294422Y-90000000D01*
X241294592Y-90003244D01*
X241307010Y-90240199D01*
X241314722Y-90387338D01*
X241315227Y-90390531D01*
X241315229Y-90390543D01*
X241374889Y-90767224D01*
X241374891Y-90767237D01*
X241375398Y-90770433D01*
X241475786Y-91145087D01*
X241614786Y-91507194D01*
X241616255Y-91510077D01*
X241616259Y-91510086D01*
X241789400Y-91849895D01*
X241790875Y-91852789D01*
X242002124Y-92178084D01*
X242246219Y-92479516D01*
X242520484Y-92753781D01*
X242821916Y-92997876D01*
X243147211Y-93209125D01*
X243492806Y-93385214D01*
X243854913Y-93524214D01*
X244229567Y-93624602D01*
X244612662Y-93685278D01*
X245000000Y-93705578D01*
X245387338Y-93685278D01*
X245770433Y-93624602D01*
X246145087Y-93524214D01*
X246507194Y-93385214D01*
X246852789Y-93209125D01*
X247178084Y-92997876D01*
X247479516Y-92753781D01*
X247753781Y-92479516D01*
X247997876Y-92178084D01*
X248209125Y-91852789D01*
X248385214Y-91507194D01*
X248524214Y-91145087D01*
X248624602Y-90770433D01*
X248685278Y-90387338D01*
X248705578Y-90000000D01*
X248685278Y-89612662D01*
X248624602Y-89229567D01*
X248524214Y-88854913D01*
X248385214Y-88492806D01*
X248209125Y-88147211D01*
X247997876Y-87821916D01*
X247753781Y-87520484D01*
X247479516Y-87246219D01*
X247178084Y-87002124D01*
X246852789Y-86790875D01*
X246849901Y-86789403D01*
X246849895Y-86789400D01*
X246510086Y-86616259D01*
X246510077Y-86616255D01*
X246507194Y-86614786D01*
X246504162Y-86613622D01*
X246148110Y-86476946D01*
X246148102Y-86476943D01*
X246145087Y-86475786D01*
X246141962Y-86474948D01*
X246141957Y-86474947D01*
X245773566Y-86376237D01*
X245773557Y-86376235D01*
X245770433Y-86375398D01*
X245767237Y-86374891D01*
X245767224Y-86374889D01*
X245390543Y-86315229D01*
X245390531Y-86315227D01*
X245387338Y-86314722D01*
X245384103Y-86314552D01*
X245384099Y-86314552D01*
X245003244Y-86294592D01*
X245000000Y-86294422D01*
X244996756Y-86294592D01*
X244615900Y-86314552D01*
X244615894Y-86314552D01*
X244612662Y-86314722D01*
X244609470Y-86315227D01*
X244609456Y-86315229D01*
X244232775Y-86374889D01*
X244232758Y-86374892D01*
X244229567Y-86375398D01*
X244226446Y-86376234D01*
X244226433Y-86376237D01*
X243858042Y-86474947D01*
X243858031Y-86474950D01*
X243854913Y-86475786D01*
X243851902Y-86476941D01*
X243851889Y-86476946D01*
X243495837Y-86613622D01*
X243495828Y-86613625D01*
X243492806Y-86614786D01*
X243489929Y-86616251D01*
X243489913Y-86616259D01*
X243150104Y-86789400D01*
X243150090Y-86789408D01*
X243147211Y-86790875D01*
X243144491Y-86792641D01*
X243144483Y-86792646D01*
X242824644Y-87000352D01*
X242824638Y-87000355D01*
X242821916Y-87002124D01*
X242819396Y-87004164D01*
X242819390Y-87004169D01*
X242523002Y-87244179D01*
X242522991Y-87244188D01*
X242520484Y-87246219D01*
X242518199Y-87248503D01*
X242518189Y-87248513D01*
X242248513Y-87518189D01*
X242248503Y-87518199D01*
X242246219Y-87520484D01*
X242244188Y-87522991D01*
X242244179Y-87523002D01*
X242004169Y-87819390D01*
X242004164Y-87819396D01*
X242002124Y-87821916D01*
X242000355Y-87824638D01*
X242000352Y-87824644D01*
X241792646Y-88144483D01*
X241792641Y-88144491D01*
X241790875Y-88147211D01*
X241789408Y-88150090D01*
X241789400Y-88150104D01*
X241616259Y-88489913D01*
X241616251Y-88489929D01*
X241614786Y-88492806D01*
X241613625Y-88495828D01*
X241613622Y-88495837D01*
X241476946Y-88851889D01*
X241476941Y-88851902D01*
X241475786Y-88854913D01*
X241474950Y-88858031D01*
X241474947Y-88858042D01*
X241376237Y-89226433D01*
X241376234Y-89226446D01*
X241375398Y-89229567D01*
X241374892Y-89232758D01*
X241374889Y-89232775D01*
X241315229Y-89609456D01*
X241315227Y-89609470D01*
X241314722Y-89612662D01*
X241314552Y-89615894D01*
X241314552Y-89615900D01*
X241298667Y-89919000D01*
X241294422Y-90000000D01*
X230364836Y-90000000D01*
X230375500Y-89919000D01*
X230375500Y-87077786D01*
X230365799Y-86979230D01*
X230356372Y-86931806D01*
X230327642Y-86837031D01*
X230280985Y-86749676D01*
X230254137Y-86709463D01*
X230191345Y-86632884D01*
X230114828Y-86570016D01*
X230112304Y-86568327D01*
X230112297Y-86568322D01*
X230077177Y-86544824D01*
X230077170Y-86544820D01*
X230074643Y-86543129D01*
X230071959Y-86541692D01*
X230071954Y-86541689D01*
X229990027Y-86497826D01*
X229990023Y-86497824D01*
X229987337Y-86496386D01*
X229984532Y-86495221D01*
X229984518Y-86495215D01*
X226681281Y-85124061D01*
X226249966Y-84945024D01*
X226197144Y-84903325D01*
X226173884Y-84840173D01*
X226187038Y-84774172D01*
X226232732Y-84724763D01*
X226297506Y-84706500D01*
X229841780Y-84706500D01*
X229844878Y-84706500D01*
X229945252Y-84696434D01*
X229993515Y-84686656D01*
X230089890Y-84656861D01*
X239008013Y-80888639D01*
X239094574Y-80841648D01*
X239134404Y-80814694D01*
X239210216Y-80751801D01*
X239272391Y-80675401D01*
X239298970Y-80635317D01*
X239345149Y-80548307D01*
X239373576Y-80453993D01*
X239382903Y-80406811D01*
X239392500Y-80308780D01*
X239392500Y-79294361D01*
X239406015Y-79238066D01*
X239443615Y-79194043D01*
X239497102Y-79171888D01*
X239554818Y-79176430D01*
X239604181Y-79206680D01*
X239769181Y-79371680D01*
X239796061Y-79411908D01*
X239805500Y-79459361D01*
X239805500Y-82738172D01*
X239805165Y-82745102D01*
X239805246Y-82745106D01*
X239805034Y-82749752D01*
X239805033Y-82749774D01*
X239804927Y-82752125D01*
X239805000Y-82754490D01*
X239805000Y-82754496D01*
X239805441Y-82768775D01*
X239805500Y-82772601D01*
X239805500Y-82842079D01*
X239805274Y-82849567D01*
X239802094Y-82902118D01*
X239802094Y-82902126D01*
X239801642Y-82909606D01*
X239802993Y-82916982D01*
X239802994Y-82916987D01*
X239812483Y-82968771D01*
X239813610Y-82976171D01*
X239819955Y-83028425D01*
X239819956Y-83028430D01*
X239820860Y-83035872D01*
X239823519Y-83042885D01*
X239823521Y-83042891D01*
X239824450Y-83045340D01*
X239830475Y-83066952D01*
X239830951Y-83069551D01*
X239830954Y-83069560D01*
X239832305Y-83076932D01*
X239835382Y-83083769D01*
X239835383Y-83083772D01*
X239856991Y-83131784D01*
X239859857Y-83138702D01*
X239881182Y-83194930D01*
X239885442Y-83201102D01*
X239885445Y-83201107D01*
X239886937Y-83203268D01*
X239897959Y-83222810D01*
X239899040Y-83225212D01*
X239899045Y-83225220D01*
X239902122Y-83232057D01*
X239904377Y-83234936D01*
X239916825Y-83264238D01*
X240209466Y-84365771D01*
X240212343Y-84376598D01*
X240216500Y-84408436D01*
X240216500Y-85024858D01*
X240216500Y-85024877D01*
X240216501Y-85028008D01*
X240216820Y-85031140D01*
X240216821Y-85031141D01*
X240226312Y-85124061D01*
X240226313Y-85124069D01*
X240227001Y-85130797D01*
X240282186Y-85297334D01*
X240285977Y-85303480D01*
X240370497Y-85440511D01*
X240370500Y-85440515D01*
X240374288Y-85446656D01*
X240498344Y-85570712D01*
X240504485Y-85574500D01*
X240504488Y-85574502D01*
X240561558Y-85609702D01*
X240647666Y-85662814D01*
X240814203Y-85717999D01*
X240916991Y-85728500D01*
X243017008Y-85728499D01*
X243119797Y-85717999D01*
X243286334Y-85662814D01*
X243435656Y-85570712D01*
X243559712Y-85446656D01*
X243651814Y-85297334D01*
X243706999Y-85130797D01*
X243717500Y-85028009D01*
X243717499Y-83627992D01*
X243706999Y-83525203D01*
X243651814Y-83358666D01*
X243581053Y-83243943D01*
X243563502Y-83215488D01*
X243563500Y-83215485D01*
X243559712Y-83209344D01*
X243435656Y-83085288D01*
X243429515Y-83081500D01*
X243429511Y-83081497D01*
X243292480Y-82996977D01*
X243286334Y-82993186D01*
X243234986Y-82976171D01*
X243126225Y-82940131D01*
X243126224Y-82940130D01*
X243119797Y-82938001D01*
X243113064Y-82937313D01*
X243113059Y-82937312D01*
X243020140Y-82927819D01*
X243020123Y-82927818D01*
X243017009Y-82927500D01*
X243013860Y-82927500D01*
X242492504Y-82927500D01*
X242446036Y-82918464D01*
X241284032Y-82448781D01*
X241243322Y-82421998D01*
X241216075Y-82381597D01*
X241206500Y-82333817D01*
X241206500Y-79959500D01*
X241223113Y-79897500D01*
X241268500Y-79852113D01*
X241330500Y-79835500D01*
X246168984Y-79835499D01*
X246295008Y-79835499D01*
X246397797Y-79824999D01*
X246564334Y-79769814D01*
X246713656Y-79677712D01*
X246837712Y-79553656D01*
X246929814Y-79404334D01*
X246984999Y-79237797D01*
X246995500Y-79135009D01*
X246995499Y-78534992D01*
X246984999Y-78432203D01*
X246929814Y-78265666D01*
X246837712Y-78116344D01*
X246713656Y-77992288D01*
X246707515Y-77988500D01*
X246707511Y-77988497D01*
X246629757Y-77940539D01*
X246586576Y-77895432D01*
X246570853Y-77835000D01*
X246586576Y-77774568D01*
X246629757Y-77729461D01*
X246673669Y-77702376D01*
X246713656Y-77677712D01*
X246837712Y-77553656D01*
X246929814Y-77404334D01*
X246984999Y-77237797D01*
X246995500Y-77135009D01*
X246995499Y-76534992D01*
X246984999Y-76432203D01*
X246929814Y-76265666D01*
X246864578Y-76159901D01*
X246841502Y-76122488D01*
X246841500Y-76122485D01*
X246837712Y-76116344D01*
X246713656Y-75992288D01*
X246707515Y-75988500D01*
X246707511Y-75988497D01*
X246570480Y-75903977D01*
X246564334Y-75900186D01*
X246531177Y-75889199D01*
X246404225Y-75847131D01*
X246404224Y-75847130D01*
X246397797Y-75845001D01*
X246391064Y-75844313D01*
X246391059Y-75844312D01*
X246298140Y-75834819D01*
X246298123Y-75834818D01*
X246295009Y-75834500D01*
X246291860Y-75834500D01*
X246169778Y-75834500D01*
X241362499Y-75834500D01*
X241300500Y-75817888D01*
X241255113Y-75772501D01*
X241238500Y-75710501D01*
X241238500Y-73368183D01*
X241248075Y-73320403D01*
X241275321Y-73280002D01*
X241316031Y-73253219D01*
X242478035Y-72783535D01*
X242524504Y-72774499D01*
X243045859Y-72774499D01*
X243049008Y-72774499D01*
X243151797Y-72763999D01*
X243318334Y-72708814D01*
X243467656Y-72616712D01*
X243591712Y-72492656D01*
X243683814Y-72343334D01*
X243738999Y-72176797D01*
X243749500Y-72074009D01*
X243749499Y-70673992D01*
X243738999Y-70571203D01*
X243683814Y-70404666D01*
X243605922Y-70278382D01*
X243595502Y-70261488D01*
X243595500Y-70261485D01*
X243591712Y-70255344D01*
X243467656Y-70131288D01*
X243461515Y-70127500D01*
X243461511Y-70127497D01*
X243324480Y-70042977D01*
X243318334Y-70039186D01*
X243299234Y-70032857D01*
X243158225Y-69986131D01*
X243158224Y-69986130D01*
X243151797Y-69984001D01*
X243145064Y-69983313D01*
X243145059Y-69983312D01*
X243052140Y-69973819D01*
X243052123Y-69973818D01*
X243049009Y-69973500D01*
X243045860Y-69973500D01*
X240952140Y-69973500D01*
X240952120Y-69973500D01*
X240948992Y-69973501D01*
X240945860Y-69973820D01*
X240945858Y-69973821D01*
X240852938Y-69983312D01*
X240852928Y-69983313D01*
X240846203Y-69984001D01*
X240839781Y-69986128D01*
X240839776Y-69986130D01*
X240686521Y-70036914D01*
X240686517Y-70036915D01*
X240679666Y-70039186D01*
X240673522Y-70042975D01*
X240673519Y-70042977D01*
X240536488Y-70127497D01*
X240536480Y-70127503D01*
X240530344Y-70131288D01*
X240525242Y-70136389D01*
X240525238Y-70136393D01*
X240411393Y-70250238D01*
X240411389Y-70250242D01*
X240406288Y-70255344D01*
X240402503Y-70261480D01*
X240402497Y-70261488D01*
X240322552Y-70391102D01*
X240314186Y-70404666D01*
X240311915Y-70411517D01*
X240311914Y-70411521D01*
X240261131Y-70564774D01*
X240259001Y-70571203D01*
X240258313Y-70577933D01*
X240258312Y-70577940D01*
X240248819Y-70670859D01*
X240248818Y-70670877D01*
X240248500Y-70673991D01*
X240248500Y-70677140D01*
X240248500Y-71293559D01*
X240244343Y-71325397D01*
X239948824Y-72437761D01*
X239936377Y-72467064D01*
X239934122Y-72469943D01*
X239931049Y-72476768D01*
X239931046Y-72476775D01*
X239929962Y-72479185D01*
X239918940Y-72498727D01*
X239917441Y-72500898D01*
X239917437Y-72500904D01*
X239913182Y-72507070D01*
X239910526Y-72514070D01*
X239910522Y-72514080D01*
X239891853Y-72563305D01*
X239888989Y-72570219D01*
X239867382Y-72618229D01*
X239867379Y-72618235D01*
X239864305Y-72625068D01*
X239862953Y-72632439D01*
X239862951Y-72632449D01*
X239862474Y-72635053D01*
X239856456Y-72656643D01*
X239855519Y-72659114D01*
X239855517Y-72659119D01*
X239852860Y-72666128D01*
X239851956Y-72673565D01*
X239851956Y-72673569D01*
X239845610Y-72725827D01*
X239844483Y-72733226D01*
X239834994Y-72785010D01*
X239834993Y-72785018D01*
X239833642Y-72792394D01*
X239834094Y-72799873D01*
X239834094Y-72799881D01*
X239837274Y-72852433D01*
X239837500Y-72859921D01*
X239837500Y-72929391D01*
X239837440Y-72933217D01*
X239836927Y-72949867D01*
X239837033Y-72952218D01*
X239837034Y-72952240D01*
X239837246Y-72956888D01*
X239837166Y-72956891D01*
X239837500Y-72963821D01*
X239837500Y-74561639D01*
X239823985Y-74617934D01*
X239786385Y-74661957D01*
X239732898Y-74684112D01*
X239675182Y-74679570D01*
X239625819Y-74649320D01*
X237761082Y-72784583D01*
X237732907Y-72741100D01*
X237724961Y-72689903D01*
X237733417Y-72540410D01*
X237729609Y-72450158D01*
X237729499Y-72444931D01*
X237729499Y-71210141D01*
X237729499Y-71206992D01*
X237718999Y-71104203D01*
X237663814Y-70937666D01*
X237571712Y-70788344D01*
X237447656Y-70664288D01*
X237441515Y-70660500D01*
X237441511Y-70660497D01*
X237307663Y-70577940D01*
X237298334Y-70572186D01*
X237275972Y-70564776D01*
X237138225Y-70519131D01*
X237138224Y-70519130D01*
X237131797Y-70517001D01*
X237125064Y-70516313D01*
X237125059Y-70516312D01*
X237032140Y-70506819D01*
X237032123Y-70506818D01*
X237029009Y-70506500D01*
X237025860Y-70506500D01*
X236307141Y-70506500D01*
X236307121Y-70506500D01*
X236303992Y-70506501D01*
X236300860Y-70506820D01*
X236300858Y-70506821D01*
X236207938Y-70516312D01*
X236207928Y-70516313D01*
X236201203Y-70517001D01*
X236194781Y-70519128D01*
X236194776Y-70519130D01*
X236114504Y-70545730D01*
X236056637Y-70550581D01*
X236002907Y-70528554D01*
X235965097Y-70484479D01*
X235951500Y-70428024D01*
X235951500Y-68938768D01*
X235951500Y-68931806D01*
X235942981Y-68894484D01*
X235940653Y-68880777D01*
X235938364Y-68860464D01*
X235936368Y-68842745D01*
X235934069Y-68836175D01*
X235934068Y-68836170D01*
X235923725Y-68806613D01*
X235919879Y-68793266D01*
X235911360Y-68755939D01*
X235908341Y-68749670D01*
X235908340Y-68749667D01*
X235894749Y-68721447D01*
X235889431Y-68708608D01*
X235876789Y-68672478D01*
X235856424Y-68640068D01*
X235849704Y-68627908D01*
X235836115Y-68599688D01*
X235836109Y-68599679D01*
X235833092Y-68593413D01*
X235828750Y-68587968D01*
X235828748Y-68587965D01*
X235818476Y-68575084D01*
X235793762Y-68521742D01*
X235796395Y-68463011D01*
X235825784Y-68412094D01*
X235875322Y-68380435D01*
X235933874Y-68375152D01*
X235988277Y-68397431D01*
X236049331Y-68441762D01*
X236095354Y-68475178D01*
X236110180Y-68487837D01*
X236143815Y-68521472D01*
X236289394Y-68609478D01*
X236387608Y-68640082D01*
X236445542Y-68658135D01*
X236445544Y-68658135D01*
X236451804Y-68660086D01*
X236522384Y-68666500D01*
X237032797Y-68666500D01*
X237035616Y-68666500D01*
X237106196Y-68660086D01*
X237268606Y-68609478D01*
X237296068Y-68592876D01*
X237353172Y-68575191D01*
X237411916Y-68586281D01*
X237458645Y-68623568D01*
X237482496Y-68678386D01*
X237477927Y-68737993D01*
X237453780Y-68810865D01*
X237453779Y-68810869D01*
X237451651Y-68817292D01*
X237450963Y-68824022D01*
X237450962Y-68824029D01*
X237441819Y-68913523D01*
X237441818Y-68913541D01*
X237441500Y-68916655D01*
X237441500Y-68919802D01*
X237441500Y-68919803D01*
X237441500Y-69510194D01*
X237441500Y-69510213D01*
X237441501Y-69513344D01*
X237441820Y-69516476D01*
X237441821Y-69516477D01*
X237450962Y-69605972D01*
X237450963Y-69605980D01*
X237451651Y-69612708D01*
X237453779Y-69619131D01*
X237453780Y-69619134D01*
X237491744Y-69733703D01*
X237504997Y-69773697D01*
X237508788Y-69779843D01*
X237508789Y-69779845D01*
X237574452Y-69886301D01*
X237594032Y-69918044D01*
X237713956Y-70037968D01*
X237858303Y-70127003D01*
X238019292Y-70180349D01*
X238118655Y-70190500D01*
X238665344Y-70190499D01*
X238764708Y-70180349D01*
X238925697Y-70127003D01*
X239070044Y-70037968D01*
X239189968Y-69918044D01*
X239279003Y-69773697D01*
X239332349Y-69612708D01*
X239342500Y-69513345D01*
X239342499Y-68916656D01*
X239332349Y-68817292D01*
X239323260Y-68789865D01*
X239319115Y-68771741D01*
X239318946Y-68771776D01*
X239238759Y-68374535D01*
X239238144Y-68328745D01*
X239254190Y-68285857D01*
X239272478Y-68255606D01*
X239323086Y-68093196D01*
X239329500Y-68022616D01*
X239329500Y-67359384D01*
X239323086Y-67288804D01*
X239317453Y-67270728D01*
X239279606Y-67149270D01*
X239272478Y-67126394D01*
X239224382Y-67046835D01*
X239206500Y-66982686D01*
X239206500Y-66326294D01*
X239209541Y-66299002D01*
X239234845Y-66186854D01*
X239286976Y-65955806D01*
X239287425Y-65950680D01*
X239287820Y-65948572D01*
X239287982Y-65947537D01*
X239288013Y-65947541D01*
X239291872Y-65926926D01*
X239303598Y-65886569D01*
X239306500Y-65849694D01*
X239306500Y-64068306D01*
X239303598Y-64031431D01*
X239257744Y-63873602D01*
X239174081Y-63732135D01*
X239057865Y-63615919D01*
X239051151Y-63611948D01*
X239051148Y-63611946D01*
X238923113Y-63536227D01*
X238923111Y-63536226D01*
X238916398Y-63532256D01*
X238891602Y-63525052D01*
X238764657Y-63488170D01*
X238764650Y-63488168D01*
X238758569Y-63486402D01*
X238752258Y-63485905D01*
X238752251Y-63485904D01*
X238724128Y-63483691D01*
X238724114Y-63483690D01*
X238721694Y-63483500D01*
X238290306Y-63483500D01*
X238287886Y-63483690D01*
X238287871Y-63483691D01*
X238259748Y-63485904D01*
X238259739Y-63485905D01*
X238253431Y-63486402D01*
X238247351Y-63488168D01*
X238247342Y-63488170D01*
X238103094Y-63530079D01*
X238103091Y-63530080D01*
X238095602Y-63532256D01*
X238088891Y-63536224D01*
X238088886Y-63536227D01*
X237998621Y-63589610D01*
X237936474Y-63606874D01*
X237874063Y-63590588D01*
X237828275Y-63545159D01*
X237811500Y-63482878D01*
X237811500Y-63164840D01*
X237812561Y-63148655D01*
X237815404Y-63127059D01*
X237816465Y-63119000D01*
X237811500Y-63081286D01*
X237811500Y-63081280D01*
X237796687Y-62968764D01*
X237738698Y-62828767D01*
X237734989Y-62823933D01*
X237669612Y-62738732D01*
X237671802Y-62737051D01*
X237671800Y-62737047D01*
X237669609Y-62738729D01*
X237651395Y-62714992D01*
X237651394Y-62714991D01*
X237646451Y-62708549D01*
X237622717Y-62690337D01*
X237610523Y-62679643D01*
X236659360Y-61728480D01*
X236648665Y-61716285D01*
X236635398Y-61698995D01*
X236635394Y-61698991D01*
X236630451Y-61692549D01*
X236600270Y-61669390D01*
X236600268Y-61669388D01*
X236510233Y-61600302D01*
X236497157Y-61594885D01*
X236444007Y-61552817D01*
X236420920Y-61489083D01*
X236434796Y-61422732D01*
X236481487Y-61373594D01*
X236517865Y-61352081D01*
X236523384Y-61346561D01*
X236524998Y-61345310D01*
X236573950Y-61322274D01*
X236628050Y-61322274D01*
X236677002Y-61345310D01*
X236678615Y-61346561D01*
X236684135Y-61352081D01*
X236825602Y-61435744D01*
X236983431Y-61481598D01*
X237020306Y-61484500D01*
X237449249Y-61484500D01*
X237451694Y-61484500D01*
X237488569Y-61481598D01*
X237646398Y-61435744D01*
X237787865Y-61352081D01*
X237793384Y-61346561D01*
X237794998Y-61345310D01*
X237843950Y-61322274D01*
X237898050Y-61322274D01*
X237947002Y-61345310D01*
X237948615Y-61346561D01*
X237954135Y-61352081D01*
X238095602Y-61435744D01*
X238253431Y-61481598D01*
X238290306Y-61484500D01*
X238719249Y-61484500D01*
X238721694Y-61484500D01*
X238758569Y-61481598D01*
X238916398Y-61435744D01*
X239057865Y-61352081D01*
X239063384Y-61346561D01*
X239064998Y-61345310D01*
X239113950Y-61322274D01*
X239168050Y-61322274D01*
X239217002Y-61345310D01*
X239218615Y-61346561D01*
X239224135Y-61352081D01*
X239365602Y-61435744D01*
X239523431Y-61481598D01*
X239560306Y-61484500D01*
X239989249Y-61484500D01*
X239991694Y-61484500D01*
X240028569Y-61481598D01*
X240186398Y-61435744D01*
X240327865Y-61352081D01*
X240444081Y-61235865D01*
X240527744Y-61094398D01*
X240573598Y-60936569D01*
X240576500Y-60899694D01*
X240576500Y-60000000D01*
X241294422Y-60000000D01*
X241294592Y-60003244D01*
X241314442Y-60382006D01*
X241314722Y-60387338D01*
X241315227Y-60390531D01*
X241315229Y-60390543D01*
X241374889Y-60767224D01*
X241374891Y-60767237D01*
X241375398Y-60770433D01*
X241376235Y-60773557D01*
X241376237Y-60773566D01*
X241474947Y-61141957D01*
X241475786Y-61145087D01*
X241476943Y-61148102D01*
X241476946Y-61148110D01*
X241607834Y-61489083D01*
X241614786Y-61507194D01*
X241616255Y-61510077D01*
X241616259Y-61510086D01*
X241766934Y-61805803D01*
X241790875Y-61852789D01*
X242002124Y-62178084D01*
X242146735Y-62356664D01*
X242170749Y-62386319D01*
X242246219Y-62479516D01*
X242520484Y-62753781D01*
X242821916Y-62997876D01*
X243147211Y-63209125D01*
X243150104Y-63210599D01*
X243438178Y-63357380D01*
X243492806Y-63385214D01*
X243854913Y-63524214D01*
X244229567Y-63624602D01*
X244612662Y-63685278D01*
X245000000Y-63705578D01*
X245387338Y-63685278D01*
X245770433Y-63624602D01*
X246145087Y-63524214D01*
X246507194Y-63385214D01*
X246852789Y-63209125D01*
X247178084Y-62997876D01*
X247479516Y-62753781D01*
X247753781Y-62479516D01*
X247997876Y-62178084D01*
X248209125Y-61852789D01*
X248385214Y-61507194D01*
X248524214Y-61145087D01*
X248624602Y-60770433D01*
X248685278Y-60387338D01*
X248705578Y-60000000D01*
X248685278Y-59612662D01*
X248624602Y-59229567D01*
X248524214Y-58854913D01*
X248385214Y-58492806D01*
X248209125Y-58147211D01*
X247997876Y-57821916D01*
X247753781Y-57520484D01*
X247479516Y-57246219D01*
X247178084Y-57002124D01*
X246852789Y-56790875D01*
X246849901Y-56789403D01*
X246849895Y-56789400D01*
X246510086Y-56616259D01*
X246510077Y-56616255D01*
X246507194Y-56614786D01*
X246464734Y-56598487D01*
X246148110Y-56476946D01*
X246148102Y-56476943D01*
X246145087Y-56475786D01*
X246141962Y-56474948D01*
X246141957Y-56474947D01*
X245773566Y-56376237D01*
X245773557Y-56376235D01*
X245770433Y-56375398D01*
X245767237Y-56374891D01*
X245767224Y-56374889D01*
X245390543Y-56315229D01*
X245390531Y-56315227D01*
X245387338Y-56314722D01*
X245384103Y-56314552D01*
X245384099Y-56314552D01*
X245003244Y-56294592D01*
X245000000Y-56294422D01*
X244996756Y-56294592D01*
X244615900Y-56314552D01*
X244615894Y-56314552D01*
X244612662Y-56314722D01*
X244609470Y-56315227D01*
X244609456Y-56315229D01*
X244232775Y-56374889D01*
X244232758Y-56374892D01*
X244229567Y-56375398D01*
X244226446Y-56376234D01*
X244226433Y-56376237D01*
X243858042Y-56474947D01*
X243858031Y-56474950D01*
X243854913Y-56475786D01*
X243851902Y-56476941D01*
X243851889Y-56476946D01*
X243495837Y-56613622D01*
X243495828Y-56613625D01*
X243492806Y-56614786D01*
X243489929Y-56616251D01*
X243489913Y-56616259D01*
X243150104Y-56789400D01*
X243150090Y-56789408D01*
X243147211Y-56790875D01*
X243144491Y-56792641D01*
X243144483Y-56792646D01*
X242824644Y-57000352D01*
X242824638Y-57000355D01*
X242821916Y-57002124D01*
X242819396Y-57004164D01*
X242819390Y-57004169D01*
X242523002Y-57244179D01*
X242522991Y-57244188D01*
X242520484Y-57246219D01*
X242518199Y-57248503D01*
X242518189Y-57248513D01*
X242248513Y-57518189D01*
X242248503Y-57518199D01*
X242246219Y-57520484D01*
X242244188Y-57522991D01*
X242244179Y-57523002D01*
X242004169Y-57819390D01*
X242004164Y-57819396D01*
X242002124Y-57821916D01*
X242000355Y-57824638D01*
X242000352Y-57824644D01*
X241792646Y-58144483D01*
X241792641Y-58144491D01*
X241790875Y-58147211D01*
X241789408Y-58150090D01*
X241789400Y-58150104D01*
X241616259Y-58489913D01*
X241616251Y-58489929D01*
X241614786Y-58492806D01*
X241613625Y-58495828D01*
X241613622Y-58495837D01*
X241476946Y-58851889D01*
X241476941Y-58851902D01*
X241475786Y-58854913D01*
X241474950Y-58858031D01*
X241474947Y-58858042D01*
X241376237Y-59226433D01*
X241376234Y-59226446D01*
X241375398Y-59229567D01*
X241374892Y-59232758D01*
X241374889Y-59232775D01*
X241315229Y-59609456D01*
X241315227Y-59609470D01*
X241314722Y-59612662D01*
X241314552Y-59615894D01*
X241314552Y-59615900D01*
X241298326Y-59925500D01*
X241294422Y-60000000D01*
X240576500Y-60000000D01*
X240576500Y-59118306D01*
X240573598Y-59081431D01*
X240527744Y-58923602D01*
X240444081Y-58782135D01*
X240327865Y-58665919D01*
X240321151Y-58661948D01*
X240321148Y-58661946D01*
X240193113Y-58586227D01*
X240193111Y-58586226D01*
X240186398Y-58582256D01*
X240178905Y-58580079D01*
X240034657Y-58538170D01*
X240034650Y-58538168D01*
X240028569Y-58536402D01*
X240022258Y-58535905D01*
X240022251Y-58535904D01*
X239994128Y-58533691D01*
X239994114Y-58533690D01*
X239991694Y-58533500D01*
X239560306Y-58533500D01*
X239557886Y-58533690D01*
X239557871Y-58533691D01*
X239529748Y-58535904D01*
X239529739Y-58535905D01*
X239523431Y-58536402D01*
X239517351Y-58538168D01*
X239517342Y-58538170D01*
X239373094Y-58580079D01*
X239373091Y-58580080D01*
X239365602Y-58582256D01*
X239358891Y-58586224D01*
X239358886Y-58586227D01*
X239230847Y-58661949D01*
X239230844Y-58661951D01*
X239224135Y-58665919D01*
X239218621Y-58671432D01*
X239216999Y-58672691D01*
X239168049Y-58695725D01*
X239113951Y-58695725D01*
X239065001Y-58672691D01*
X239063378Y-58671432D01*
X239057865Y-58665919D01*
X238916398Y-58582256D01*
X238908905Y-58580079D01*
X238764657Y-58538170D01*
X238764650Y-58538168D01*
X238758569Y-58536402D01*
X238752258Y-58535905D01*
X238752251Y-58535904D01*
X238724128Y-58533691D01*
X238724114Y-58533690D01*
X238721694Y-58533500D01*
X238290306Y-58533500D01*
X238287886Y-58533690D01*
X238287871Y-58533691D01*
X238259748Y-58535904D01*
X238259739Y-58535905D01*
X238253431Y-58536402D01*
X238247351Y-58538168D01*
X238247342Y-58538170D01*
X238103094Y-58580079D01*
X238103091Y-58580080D01*
X238095602Y-58582256D01*
X238088891Y-58586224D01*
X238088886Y-58586227D01*
X237960847Y-58661949D01*
X237960844Y-58661951D01*
X237954135Y-58665919D01*
X237948621Y-58671432D01*
X237946999Y-58672691D01*
X237898049Y-58695725D01*
X237843951Y-58695725D01*
X237795001Y-58672691D01*
X237793378Y-58671432D01*
X237787865Y-58665919D01*
X237646398Y-58582256D01*
X237638905Y-58580079D01*
X237494657Y-58538170D01*
X237494650Y-58538168D01*
X237488569Y-58536402D01*
X237482258Y-58535905D01*
X237482251Y-58535904D01*
X237454128Y-58533691D01*
X237454114Y-58533690D01*
X237451694Y-58533500D01*
X237020306Y-58533500D01*
X237017886Y-58533690D01*
X237017871Y-58533691D01*
X236989748Y-58535904D01*
X236989739Y-58535905D01*
X236983431Y-58536402D01*
X236887258Y-58564343D01*
X236822387Y-58565513D01*
X236765804Y-58533760D01*
X236733003Y-58477778D01*
X236732965Y-58412897D01*
X236735669Y-58402900D01*
X236737636Y-58396357D01*
X236766349Y-58309708D01*
X236776500Y-58210345D01*
X236776499Y-57613656D01*
X236766349Y-57514292D01*
X236713003Y-57353303D01*
X236623968Y-57208956D01*
X236504044Y-57089032D01*
X236497894Y-57085238D01*
X236497892Y-57085237D01*
X236365845Y-57003789D01*
X236365843Y-57003788D01*
X236359697Y-56999997D01*
X236352842Y-56997725D01*
X236352841Y-56997725D01*
X236205136Y-56948781D01*
X236205135Y-56948780D01*
X236198708Y-56946651D01*
X236191975Y-56945963D01*
X236191970Y-56945962D01*
X236102476Y-56936819D01*
X236102459Y-56936818D01*
X236099345Y-56936500D01*
X236096196Y-56936500D01*
X235668033Y-56936500D01*
X235654589Y-56935735D01*
X235650650Y-56934995D01*
X235646173Y-56934810D01*
X235646170Y-56934810D01*
X235579839Y-56932074D01*
X235579822Y-56932073D01*
X235577618Y-56931983D01*
X235575401Y-56932052D01*
X235575392Y-56932052D01*
X234925370Y-56952299D01*
X234925363Y-56952299D01*
X234922394Y-56952392D01*
X234919461Y-56952767D01*
X234919443Y-56952769D01*
X234890346Y-56956496D01*
X234874595Y-56957500D01*
X216305910Y-56957500D01*
X216298423Y-56957274D01*
X216245881Y-56954095D01*
X216245873Y-56954095D01*
X216238394Y-56953643D01*
X216231019Y-56954994D01*
X216231009Y-56954995D01*
X216179242Y-56964481D01*
X216171843Y-56965608D01*
X216119567Y-56971956D01*
X216119561Y-56971957D01*
X216112128Y-56972860D01*
X216105123Y-56975516D01*
X216105112Y-56975519D01*
X216102639Y-56976457D01*
X216081041Y-56982478D01*
X216078451Y-56982952D01*
X216078444Y-56982954D01*
X216071068Y-56984306D01*
X216064227Y-56987384D01*
X216064223Y-56987386D01*
X216016228Y-57008986D01*
X216009313Y-57011850D01*
X215960081Y-57030522D01*
X215960073Y-57030525D01*
X215953070Y-57033182D01*
X215946909Y-57037434D01*
X215946898Y-57037440D01*
X215944725Y-57038941D01*
X215925188Y-57049960D01*
X215922778Y-57051044D01*
X215922768Y-57051049D01*
X215915943Y-57054122D01*
X215910048Y-57058739D01*
X215910040Y-57058745D01*
X215868597Y-57091213D01*
X215862568Y-57095649D01*
X215819248Y-57125551D01*
X215819236Y-57125560D01*
X215813071Y-57129817D01*
X215808102Y-57135425D01*
X215808096Y-57135431D01*
X215773184Y-57174838D01*
X215768051Y-57180290D01*
X212501290Y-60447051D01*
X212495838Y-60452184D01*
X212456431Y-60487096D01*
X212456425Y-60487102D01*
X212450817Y-60492071D01*
X212446560Y-60498236D01*
X212446551Y-60498248D01*
X212416649Y-60541568D01*
X212412213Y-60547597D01*
X212379749Y-60589035D01*
X212379743Y-60589043D01*
X212375122Y-60594943D01*
X212372044Y-60601780D01*
X212372043Y-60601783D01*
X212370962Y-60604185D01*
X212359940Y-60623727D01*
X212358441Y-60625898D01*
X212358437Y-60625904D01*
X212354182Y-60632070D01*
X212351526Y-60639070D01*
X212351522Y-60639080D01*
X212332853Y-60688305D01*
X212329989Y-60695219D01*
X212308382Y-60743229D01*
X212308379Y-60743235D01*
X212305305Y-60750068D01*
X212303953Y-60757439D01*
X212303951Y-60757449D01*
X212303474Y-60760053D01*
X212297456Y-60781643D01*
X212296519Y-60784114D01*
X212296517Y-60784119D01*
X212293860Y-60791128D01*
X212292956Y-60798565D01*
X212292956Y-60798569D01*
X212286610Y-60850827D01*
X212285483Y-60858226D01*
X212275994Y-60910010D01*
X212275993Y-60910018D01*
X212274642Y-60917394D01*
X212275094Y-60924873D01*
X212275094Y-60924881D01*
X212278274Y-60977433D01*
X212278500Y-60984921D01*
X212278500Y-66473073D01*
X212276468Y-66495424D01*
X212274642Y-66505394D01*
X212275094Y-66512873D01*
X212275094Y-66512881D01*
X212278274Y-66565433D01*
X212278500Y-66572921D01*
X212278500Y-67666079D01*
X212278274Y-67673567D01*
X212275094Y-67726118D01*
X212275094Y-67726126D01*
X212274642Y-67733606D01*
X212275993Y-67740982D01*
X212275994Y-67740987D01*
X212285483Y-67792771D01*
X212286610Y-67800171D01*
X212292955Y-67852425D01*
X212292956Y-67852430D01*
X212293860Y-67859872D01*
X212296519Y-67866885D01*
X212296521Y-67866891D01*
X212297450Y-67869340D01*
X212303475Y-67890952D01*
X212303951Y-67893551D01*
X212303954Y-67893560D01*
X212305305Y-67900932D01*
X212308382Y-67907769D01*
X212308383Y-67907772D01*
X212329991Y-67955784D01*
X212332857Y-67962702D01*
X212354182Y-68018930D01*
X212358442Y-68025102D01*
X212358445Y-68025107D01*
X212359937Y-68027268D01*
X212370959Y-68046810D01*
X212372039Y-68049210D01*
X212372044Y-68049219D01*
X212375122Y-68056057D01*
X212379745Y-68061958D01*
X212379747Y-68061961D01*
X212399099Y-68086661D01*
X212409123Y-68099457D01*
X212412216Y-68103404D01*
X212416636Y-68109410D01*
X212450817Y-68158929D01*
X212456434Y-68163905D01*
X212495829Y-68198806D01*
X212501283Y-68203940D01*
X213101052Y-68803708D01*
X213106186Y-68809162D01*
X213146071Y-68854183D01*
X213152243Y-68858443D01*
X213152244Y-68858444D01*
X213195573Y-68888352D01*
X213201603Y-68892788D01*
X213248944Y-68929878D01*
X213258180Y-68934034D01*
X213277727Y-68945059D01*
X213286070Y-68950818D01*
X213342214Y-68972110D01*
X213342298Y-68972142D01*
X213349203Y-68975001D01*
X213397018Y-68996521D01*
X213435551Y-69023696D01*
X213461155Y-69063297D01*
X213470122Y-69109594D01*
X213470122Y-70200358D01*
X213470122Y-70200376D01*
X213470123Y-70203670D01*
X213470475Y-70206948D01*
X213470476Y-70206959D01*
X213475701Y-70255566D01*
X213475702Y-70255571D01*
X213476531Y-70263281D01*
X213479241Y-70270547D01*
X213479242Y-70270551D01*
X213490232Y-70300015D01*
X213526826Y-70398129D01*
X213532140Y-70405228D01*
X213532141Y-70405229D01*
X213591467Y-70484479D01*
X213613076Y-70513344D01*
X213728291Y-70599594D01*
X213863139Y-70649889D01*
X213922749Y-70656298D01*
X217057940Y-70656297D01*
X217074038Y-70657346D01*
X217075377Y-70657521D01*
X217078985Y-70658212D01*
X217084442Y-70658601D01*
X217130734Y-70656432D01*
X217136535Y-70656297D01*
X217165170Y-70656297D01*
X217168494Y-70656297D01*
X217191705Y-70653801D01*
X217194900Y-70653555D01*
X217195967Y-70653377D01*
X217202864Y-70653054D01*
X217203317Y-70653034D01*
X217203334Y-70653400D01*
X217206058Y-70653691D01*
X217205906Y-70652275D01*
X217205905Y-70652275D01*
X217228105Y-70649889D01*
X217273053Y-70633123D01*
X217281750Y-70630242D01*
X217317547Y-70619845D01*
X217322585Y-70617711D01*
X217329316Y-70613867D01*
X217347464Y-70605370D01*
X217362953Y-70599594D01*
X217384536Y-70583435D01*
X217397365Y-70575020D01*
X217422826Y-70560485D01*
X217422836Y-70560477D01*
X217426009Y-70558667D01*
X217761142Y-70310804D01*
X217796059Y-70292733D01*
X217834877Y-70286500D01*
X218795258Y-70286500D01*
X218851553Y-70300015D01*
X218895576Y-70337615D01*
X218917731Y-70391102D01*
X218913189Y-70448818D01*
X218882939Y-70498181D01*
X217862838Y-71518280D01*
X217810036Y-71549592D01*
X217748686Y-71551741D01*
X217693823Y-71524198D01*
X217460132Y-71321131D01*
X217460126Y-71321126D01*
X217457145Y-71318536D01*
X217453853Y-71316343D01*
X217453843Y-71316336D01*
X217411843Y-71288365D01*
X217406266Y-71284425D01*
X217370057Y-71257319D01*
X217370051Y-71257316D01*
X217362953Y-71252002D01*
X217354642Y-71248901D01*
X217354448Y-71248796D01*
X217351496Y-71247629D01*
X217348079Y-71246201D01*
X217344528Y-71244444D01*
X217321898Y-71236647D01*
X217318989Y-71235604D01*
X217228105Y-71201707D01*
X217220388Y-71200877D01*
X217220387Y-71200877D01*
X217171802Y-71195653D01*
X217171791Y-71195652D01*
X217168495Y-71195298D01*
X217165173Y-71195298D01*
X217133496Y-71195298D01*
X217124069Y-71194939D01*
X217098084Y-71192957D01*
X217098072Y-71192956D01*
X217094127Y-71192656D01*
X217088219Y-71192962D01*
X217084320Y-71193670D01*
X217080376Y-71194129D01*
X217080342Y-71193843D01*
X217064189Y-71195298D01*
X213926061Y-71195298D01*
X213926042Y-71195298D01*
X213922750Y-71195299D01*
X213919472Y-71195651D01*
X213919460Y-71195652D01*
X213870853Y-71200877D01*
X213870847Y-71200878D01*
X213863139Y-71201707D01*
X213855874Y-71204416D01*
X213855868Y-71204418D01*
X213736602Y-71248902D01*
X213736600Y-71248902D01*
X213728291Y-71252002D01*
X213721194Y-71257314D01*
X213721190Y-71257317D01*
X213620172Y-71332939D01*
X213620168Y-71332942D01*
X213613076Y-71338252D01*
X213607766Y-71345344D01*
X213607763Y-71345348D01*
X213532141Y-71446366D01*
X213532138Y-71446370D01*
X213526826Y-71453467D01*
X213523726Y-71461776D01*
X213523726Y-71461778D01*
X213479242Y-71581045D01*
X213479241Y-71581048D01*
X213476531Y-71588315D01*
X213475701Y-71596025D01*
X213475701Y-71596030D01*
X213470477Y-71644617D01*
X213470476Y-71644629D01*
X213470122Y-71647925D01*
X213470122Y-71651246D01*
X213470122Y-71651247D01*
X213470122Y-72740358D01*
X213470122Y-72740376D01*
X213470123Y-72743670D01*
X213470475Y-72746948D01*
X213470476Y-72746959D01*
X213475701Y-72795566D01*
X213475702Y-72795571D01*
X213476531Y-72803281D01*
X213479241Y-72810547D01*
X213479242Y-72810551D01*
X213494172Y-72850579D01*
X213526826Y-72938129D01*
X213532140Y-72945228D01*
X213532141Y-72945229D01*
X213592402Y-73025728D01*
X213613076Y-73053344D01*
X213728291Y-73139594D01*
X213863139Y-73189889D01*
X213922749Y-73196298D01*
X217168494Y-73196297D01*
X217228105Y-73189889D01*
X217362953Y-73139594D01*
X217478168Y-73053344D01*
X217564418Y-72938129D01*
X217572378Y-72916785D01*
X217605141Y-72868373D01*
X217676428Y-72803554D01*
X217715128Y-72779643D01*
X217759848Y-72771298D01*
X217953362Y-72771298D01*
X217969547Y-72772359D01*
X217999202Y-72776263D01*
X218036916Y-72771298D01*
X218036922Y-72771298D01*
X218149438Y-72756485D01*
X218289435Y-72698496D01*
X218326413Y-72670122D01*
X218379470Y-72629410D01*
X218379472Y-72629407D01*
X218409653Y-72606249D01*
X218427867Y-72582511D01*
X218438552Y-72570326D01*
X220178060Y-70830819D01*
X220218289Y-70803939D01*
X220265742Y-70794500D01*
X220350500Y-70794500D01*
X220412500Y-70811113D01*
X220457887Y-70856500D01*
X220474500Y-70918499D01*
X220474500Y-70918500D01*
X220474500Y-71072270D01*
X220474797Y-71075287D01*
X220474798Y-71075304D01*
X220477012Y-71097776D01*
X220484213Y-71170888D01*
X220484807Y-71173874D01*
X220491394Y-71206992D01*
X220493652Y-71218341D01*
X220494537Y-71221260D01*
X220494539Y-71221266D01*
X220503863Y-71252002D01*
X220522419Y-71313172D01*
X220525288Y-71318540D01*
X220525290Y-71318544D01*
X220567704Y-71397893D01*
X220567710Y-71397903D01*
X220569134Y-71400567D01*
X220570813Y-71403080D01*
X220570818Y-71403088D01*
X220588005Y-71428809D01*
X220596014Y-71440795D01*
X220597936Y-71443137D01*
X220597945Y-71443149D01*
X220656947Y-71515042D01*
X220656952Y-71515048D01*
X220658877Y-71517393D01*
X220661028Y-71519544D01*
X220661029Y-71519545D01*
X220674238Y-71532754D01*
X220692096Y-71555339D01*
X220706946Y-71579415D01*
X220719112Y-71605506D01*
X220729469Y-71636760D01*
X220735121Y-71663156D01*
X220735356Y-71665455D01*
X220735999Y-71678064D01*
X220735999Y-73863934D01*
X220735356Y-73876540D01*
X220735121Y-73878847D01*
X220729470Y-73905236D01*
X220719113Y-73936491D01*
X220706946Y-73962584D01*
X220692097Y-73986658D01*
X220674245Y-74009237D01*
X220661028Y-74022454D01*
X220661009Y-74022474D01*
X220658877Y-74024607D01*
X220656954Y-74026949D01*
X220656945Y-74026960D01*
X220597945Y-74098850D01*
X220597928Y-74098871D01*
X220596014Y-74101205D01*
X220594329Y-74103725D01*
X220594325Y-74103732D01*
X220570818Y-74138911D01*
X220570807Y-74138928D01*
X220569134Y-74141433D01*
X220567715Y-74144087D01*
X220567704Y-74144106D01*
X220525290Y-74223455D01*
X220525286Y-74223463D01*
X220522419Y-74228828D01*
X220520649Y-74234659D01*
X220520649Y-74234662D01*
X220494539Y-74320733D01*
X220494536Y-74320744D01*
X220493652Y-74323659D01*
X220493058Y-74326644D01*
X220493055Y-74326657D01*
X220484807Y-74368125D01*
X220484213Y-74371112D01*
X220483915Y-74374135D01*
X220483915Y-74374137D01*
X220474798Y-74466695D01*
X220474797Y-74466713D01*
X220474500Y-74469730D01*
X220474500Y-74998922D01*
X220474870Y-75002294D01*
X220474871Y-75002298D01*
X220486203Y-75105366D01*
X220486205Y-75105378D01*
X220486576Y-75108752D01*
X220498283Y-75161347D01*
X220499378Y-75164559D01*
X220519642Y-75224008D01*
X220533932Y-75265928D01*
X220591451Y-75360265D01*
X220624361Y-75402929D01*
X220701004Y-75482517D01*
X221383898Y-76051595D01*
X221455869Y-76101672D01*
X221493039Y-76123007D01*
X221572594Y-76159901D01*
X221657328Y-76182489D01*
X221699541Y-76189895D01*
X221786894Y-76197500D01*
X225466447Y-76197500D01*
X225470500Y-76197500D01*
X225601334Y-76180275D01*
X225663334Y-76163662D01*
X225785250Y-76113163D01*
X225889942Y-76032829D01*
X225935329Y-75987442D01*
X226015663Y-75882750D01*
X226066162Y-75760834D01*
X226074630Y-75729230D01*
X226106723Y-75673644D01*
X226137712Y-75642656D01*
X226229814Y-75493334D01*
X226284999Y-75326797D01*
X226295500Y-75224009D01*
X226295499Y-73873992D01*
X226284999Y-73771203D01*
X226229814Y-73604666D01*
X226157623Y-73487625D01*
X226141502Y-73461488D01*
X226141500Y-73461485D01*
X226137712Y-73455344D01*
X226119361Y-73436993D01*
X226097241Y-73406929D01*
X226085441Y-73372719D01*
X226085332Y-73371818D01*
X226071148Y-73314229D01*
X226027992Y-73200351D01*
X225958855Y-73100099D01*
X225919547Y-73055685D01*
X225885772Y-73025728D01*
X225850398Y-72972116D01*
X225846591Y-72907999D01*
X225875373Y-72850580D01*
X226070726Y-72630809D01*
X226109735Y-72580959D01*
X226127134Y-72555600D01*
X226131654Y-72547148D01*
X226138554Y-72538296D01*
X226137646Y-72537713D01*
X226170811Y-72486105D01*
X226180295Y-72470752D01*
X226184810Y-72463142D01*
X226193727Y-72447483D01*
X226196659Y-72442113D01*
X226207129Y-72426153D01*
X226207080Y-72426116D01*
X226207593Y-72425434D01*
X226208191Y-72424665D01*
X226216882Y-72412763D01*
X226217427Y-72411967D01*
X226217935Y-72411251D01*
X226217984Y-72411285D01*
X226229992Y-72396463D01*
X226234183Y-72392069D01*
X226298918Y-72308048D01*
X226326028Y-72263965D01*
X226371808Y-72168277D01*
X226396611Y-72065142D01*
X226403366Y-72013833D01*
X226406101Y-71907793D01*
X226396224Y-71854858D01*
X226394794Y-71819229D01*
X226403562Y-71784663D01*
X226438934Y-71699271D01*
X226438934Y-71699268D01*
X226442044Y-71691762D01*
X226457500Y-71574361D01*
X226457499Y-71295640D01*
X226442044Y-71178238D01*
X226433436Y-71157457D01*
X226423995Y-71110000D01*
X226433436Y-71062543D01*
X226438934Y-71049270D01*
X226438934Y-71049269D01*
X226442044Y-71041762D01*
X226457500Y-70924361D01*
X226457499Y-70645640D01*
X226442044Y-70528238D01*
X226433433Y-70507449D01*
X226423995Y-70459997D01*
X226433436Y-70412542D01*
X226433859Y-70411521D01*
X226442044Y-70391762D01*
X226457500Y-70274361D01*
X226457499Y-69995640D01*
X226442044Y-69878238D01*
X226433436Y-69857457D01*
X226423995Y-69810000D01*
X226433436Y-69762543D01*
X226438934Y-69749270D01*
X226438934Y-69749269D01*
X226442044Y-69741762D01*
X226457500Y-69624361D01*
X226457499Y-69345640D01*
X226442044Y-69228238D01*
X226438933Y-69220728D01*
X226417328Y-69168569D01*
X226381536Y-69082159D01*
X226285282Y-68956718D01*
X226254861Y-68933375D01*
X226219136Y-68889844D01*
X226206348Y-68835000D01*
X226219136Y-68780156D01*
X226254862Y-68736624D01*
X226285282Y-68713282D01*
X226381536Y-68587841D01*
X226442044Y-68441762D01*
X226457500Y-68324361D01*
X226457499Y-68045640D01*
X226442044Y-67928238D01*
X226433433Y-67907449D01*
X226423995Y-67859997D01*
X226433436Y-67812542D01*
X226442044Y-67791762D01*
X226457500Y-67674361D01*
X226457499Y-67395640D01*
X226442044Y-67278238D01*
X226433436Y-67257457D01*
X226423995Y-67210000D01*
X226433436Y-67162543D01*
X226438934Y-67149270D01*
X226438934Y-67149269D01*
X226442044Y-67141762D01*
X226457500Y-67024361D01*
X226457499Y-66745640D01*
X226442044Y-66628238D01*
X226429029Y-66596818D01*
X226405618Y-66540298D01*
X226381536Y-66482159D01*
X226285282Y-66356718D01*
X226159841Y-66260464D01*
X226059608Y-66218946D01*
X226021271Y-66203066D01*
X226021268Y-66203065D01*
X226013762Y-66199956D01*
X226005708Y-66198895D01*
X226005702Y-66198894D01*
X225900381Y-66185029D01*
X225900377Y-66185028D01*
X225896361Y-66184500D01*
X225892308Y-66184500D01*
X224539754Y-66184500D01*
X224519502Y-66182835D01*
X224510851Y-66181402D01*
X224510836Y-66181400D01*
X224507185Y-66180796D01*
X224503476Y-66180631D01*
X224503475Y-66180631D01*
X224501651Y-66180550D01*
X224501655Y-66180440D01*
X224499786Y-66180245D01*
X224499881Y-66179332D01*
X224455962Y-66170644D01*
X224413703Y-66140734D01*
X224387340Y-66096176D01*
X224340208Y-65955806D01*
X224247948Y-65681030D01*
X224241500Y-65641564D01*
X224241500Y-65596203D01*
X224241500Y-65593384D01*
X224235086Y-65522804D01*
X224228774Y-65502549D01*
X224219766Y-65473641D01*
X224184478Y-65360394D01*
X224096472Y-65214815D01*
X223976185Y-65094528D01*
X223830606Y-65006522D01*
X223801500Y-64997452D01*
X223674457Y-64957864D01*
X223674448Y-64957862D01*
X223668196Y-64955914D01*
X223661662Y-64955320D01*
X223661661Y-64955320D01*
X223600425Y-64949755D01*
X223600419Y-64949754D01*
X223597616Y-64949500D01*
X222934384Y-64949500D01*
X222931581Y-64949754D01*
X222931574Y-64949755D01*
X222870338Y-64955320D01*
X222870335Y-64955320D01*
X222863804Y-64955914D01*
X222857553Y-64957861D01*
X222857542Y-64957864D01*
X222708550Y-65004292D01*
X222701394Y-65006522D01*
X222694982Y-65010398D01*
X222694978Y-65010400D01*
X222562232Y-65090648D01*
X222562227Y-65090651D01*
X222555815Y-65094528D01*
X222550515Y-65099827D01*
X222550511Y-65099831D01*
X222440831Y-65209511D01*
X222440827Y-65209515D01*
X222435528Y-65214815D01*
X222431651Y-65221227D01*
X222431648Y-65221232D01*
X222351400Y-65353978D01*
X222351398Y-65353982D01*
X222347522Y-65360394D01*
X222345292Y-65367548D01*
X222345292Y-65367550D01*
X222298864Y-65516542D01*
X222298861Y-65516553D01*
X222296914Y-65522804D01*
X222290500Y-65593384D01*
X222290500Y-65596203D01*
X222290500Y-65641560D01*
X222284051Y-65681030D01*
X222122949Y-66160828D01*
X222093079Y-66209039D01*
X221798138Y-66503981D01*
X221757913Y-66530859D01*
X221710460Y-66540298D01*
X218851275Y-66540298D01*
X218791031Y-66524680D01*
X218745963Y-66481761D01*
X218727423Y-66422351D01*
X218740081Y-66361417D01*
X218771035Y-66325558D01*
X218769140Y-66323419D01*
X218774752Y-66318446D01*
X218780929Y-66314183D01*
X218820822Y-66269151D01*
X218825924Y-66263731D01*
X221148587Y-63941069D01*
X221188816Y-63914189D01*
X221236269Y-63904750D01*
X222973180Y-63904750D01*
X223032342Y-63919774D01*
X223710787Y-64288114D01*
X223712922Y-64289072D01*
X223713730Y-64289435D01*
X223714807Y-64290005D01*
X223715028Y-64290115D01*
X223715024Y-64290121D01*
X223728059Y-64297026D01*
X223735416Y-64301564D01*
X223749831Y-64306340D01*
X223761581Y-64310909D01*
X223780391Y-64319352D01*
X223784908Y-64320606D01*
X223784911Y-64320607D01*
X223831118Y-64333434D01*
X223836957Y-64335211D01*
X223901953Y-64356749D01*
X224004741Y-64367250D01*
X225404758Y-64367249D01*
X225507547Y-64356749D01*
X225674084Y-64301564D01*
X225823406Y-64209462D01*
X225857435Y-64175431D01*
X225870623Y-64163985D01*
X226276437Y-63859110D01*
X226311657Y-63840629D01*
X226350917Y-63834250D01*
X227439499Y-63834250D01*
X227441944Y-63834250D01*
X227478819Y-63831348D01*
X227636648Y-63785494D01*
X227778115Y-63701831D01*
X227894331Y-63585615D01*
X227898304Y-63578896D01*
X227903084Y-63572735D01*
X227905448Y-63574569D01*
X227939754Y-63540743D01*
X228001250Y-63524419D01*
X228062746Y-63540743D01*
X228097051Y-63574569D01*
X228099416Y-63572735D01*
X228104196Y-63578898D01*
X228108169Y-63585615D01*
X228224385Y-63701831D01*
X228231099Y-63705802D01*
X228231101Y-63705803D01*
X228264150Y-63725348D01*
X228365852Y-63785494D01*
X228523681Y-63831348D01*
X228560556Y-63834250D01*
X229662583Y-63834250D01*
X229701843Y-63840629D01*
X229737063Y-63859110D01*
X230015517Y-64068306D01*
X230142882Y-64163992D01*
X230156082Y-64175450D01*
X230190094Y-64209462D01*
X230196235Y-64213250D01*
X230196238Y-64213252D01*
X230196243Y-64213255D01*
X230339416Y-64301564D01*
X230505953Y-64356749D01*
X230608741Y-64367250D01*
X232008758Y-64367249D01*
X232111547Y-64356749D01*
X232176574Y-64335199D01*
X232182379Y-64333434D01*
X232228591Y-64320606D01*
X232228592Y-64320605D01*
X232233108Y-64319352D01*
X232251914Y-64310911D01*
X232263674Y-64306338D01*
X232278084Y-64301564D01*
X232285438Y-64297026D01*
X232298479Y-64290118D01*
X232298476Y-64290111D01*
X232298758Y-64289971D01*
X232299785Y-64289427D01*
X232302712Y-64288114D01*
X232314395Y-64281770D01*
X232364912Y-64267048D01*
X232416987Y-64274599D01*
X232461241Y-64303065D01*
X232492957Y-64334781D01*
X232499098Y-64338569D01*
X232499101Y-64338571D01*
X232642279Y-64426883D01*
X232641120Y-64428760D01*
X232683281Y-64464927D01*
X232704061Y-64528410D01*
X232688893Y-64593462D01*
X232642178Y-64641207D01*
X232635278Y-64645190D01*
X232627768Y-64648301D01*
X232621322Y-64653246D01*
X232621317Y-64653250D01*
X232537763Y-64717362D01*
X232537729Y-64717390D01*
X232513992Y-64735604D01*
X232513988Y-64735607D01*
X232507549Y-64740549D01*
X232502607Y-64746988D01*
X232502601Y-64746995D01*
X232489332Y-64764287D01*
X232478641Y-64776477D01*
X231781477Y-65473641D01*
X231769287Y-65484332D01*
X231751995Y-65497601D01*
X231751988Y-65497607D01*
X231745549Y-65502549D01*
X231740607Y-65508988D01*
X231740604Y-65508992D01*
X231722390Y-65532729D01*
X231722387Y-65532731D01*
X231722388Y-65532732D01*
X231659489Y-65614701D01*
X231659485Y-65614707D01*
X231653302Y-65622766D01*
X231653302Y-65622767D01*
X231648152Y-65635198D01*
X231648152Y-65635199D01*
X231598423Y-65755254D01*
X231598421Y-65755259D01*
X231595313Y-65762764D01*
X231594252Y-65770815D01*
X231594251Y-65770823D01*
X231584190Y-65847249D01*
X231580500Y-65875280D01*
X231580500Y-65875286D01*
X231575535Y-65913000D01*
X231576596Y-65921059D01*
X231579439Y-65942655D01*
X231580500Y-65958840D01*
X231580500Y-66651588D01*
X231571061Y-66699041D01*
X231544181Y-66739269D01*
X231539770Y-66743680D01*
X231499542Y-66770560D01*
X231452089Y-66779999D01*
X231270712Y-66779999D01*
X231269756Y-66780027D01*
X231269755Y-66780028D01*
X231241045Y-66780898D01*
X231240999Y-66780900D01*
X231240079Y-66780928D01*
X231238646Y-66781015D01*
X231237758Y-66781096D01*
X231237701Y-66781101D01*
X231208282Y-66783807D01*
X231208235Y-66783811D01*
X231207355Y-66783893D01*
X231206439Y-66784006D01*
X231206421Y-66784008D01*
X230822654Y-66831376D01*
X230822647Y-66831377D01*
X230818631Y-66831873D01*
X230816485Y-66832429D01*
X230794554Y-66834500D01*
X230171694Y-66834500D01*
X230171678Y-66834500D01*
X230167640Y-66834501D01*
X230163626Y-66835029D01*
X230163617Y-66835030D01*
X230058296Y-66848895D01*
X230058294Y-66848895D01*
X230050238Y-66849956D01*
X230042738Y-66853062D01*
X230042729Y-66853065D01*
X229911666Y-66907354D01*
X229911662Y-66907355D01*
X229904159Y-66910464D01*
X229897714Y-66915408D01*
X229897711Y-66915411D01*
X229785164Y-67001771D01*
X229785160Y-67001774D01*
X229778718Y-67006718D01*
X229773774Y-67013160D01*
X229773771Y-67013164D01*
X229687411Y-67125711D01*
X229687408Y-67125714D01*
X229682464Y-67132159D01*
X229679355Y-67139662D01*
X229679354Y-67139666D01*
X229625066Y-67270728D01*
X229625064Y-67270733D01*
X229621956Y-67278238D01*
X229620896Y-67286289D01*
X229620894Y-67286297D01*
X229607029Y-67391618D01*
X229606500Y-67395639D01*
X229606500Y-67399691D01*
X229606500Y-67399692D01*
X229606500Y-67670305D01*
X229606500Y-67670320D01*
X229606501Y-67674360D01*
X229607029Y-67678374D01*
X229607030Y-67678382D01*
X229620895Y-67783703D01*
X229621956Y-67791762D01*
X229625064Y-67799265D01*
X229625065Y-67799269D01*
X229630566Y-67812549D01*
X229640004Y-67859999D01*
X229630567Y-67907449D01*
X229625066Y-67920728D01*
X229625064Y-67920732D01*
X229621956Y-67928238D01*
X229620895Y-67936293D01*
X229620894Y-67936299D01*
X229607029Y-68041618D01*
X229606500Y-68045639D01*
X229606500Y-68049691D01*
X229606500Y-68049692D01*
X229606500Y-68320305D01*
X229606500Y-68320320D01*
X229606501Y-68324360D01*
X229607029Y-68328374D01*
X229607030Y-68328382D01*
X229613187Y-68375152D01*
X229621956Y-68441762D01*
X229625063Y-68449263D01*
X229625065Y-68449270D01*
X229670120Y-68558040D01*
X229682464Y-68587841D01*
X229778718Y-68713282D01*
X229785164Y-68718228D01*
X229809139Y-68736625D01*
X229844864Y-68780157D01*
X229857651Y-68835000D01*
X229844864Y-68889843D01*
X229809139Y-68933375D01*
X229785163Y-68951772D01*
X229785160Y-68951774D01*
X229778718Y-68956718D01*
X229773774Y-68963160D01*
X229773771Y-68963164D01*
X229687411Y-69075711D01*
X229687408Y-69075714D01*
X229682464Y-69082159D01*
X229679355Y-69089662D01*
X229679354Y-69089666D01*
X229625066Y-69220728D01*
X229625066Y-69220729D01*
X229621956Y-69228238D01*
X229620896Y-69236289D01*
X229620894Y-69236297D01*
X229607029Y-69341618D01*
X229606500Y-69345639D01*
X229606500Y-69349691D01*
X229606500Y-69349692D01*
X229606500Y-69620305D01*
X229606500Y-69620320D01*
X229606501Y-69624360D01*
X229621956Y-69741762D01*
X229625063Y-69749263D01*
X229625065Y-69749270D01*
X229630565Y-69762546D01*
X229640004Y-69809997D01*
X229630567Y-69857448D01*
X229625066Y-69870728D01*
X229625064Y-69870733D01*
X229621956Y-69878238D01*
X229620896Y-69886289D01*
X229620894Y-69886297D01*
X229607029Y-69991618D01*
X229606500Y-69995639D01*
X229606500Y-69999691D01*
X229606500Y-69999692D01*
X229606500Y-70270305D01*
X229606500Y-70270320D01*
X229606501Y-70274360D01*
X229607029Y-70278374D01*
X229607030Y-70278382D01*
X229620895Y-70383703D01*
X229621956Y-70391762D01*
X229625064Y-70399265D01*
X229625065Y-70399269D01*
X229630566Y-70412549D01*
X229640004Y-70459999D01*
X229630567Y-70507449D01*
X229625066Y-70520728D01*
X229625064Y-70520732D01*
X229621956Y-70528238D01*
X229620895Y-70536293D01*
X229620894Y-70536299D01*
X229607029Y-70641618D01*
X229606500Y-70645639D01*
X229606500Y-70649691D01*
X229606500Y-70649692D01*
X229606500Y-70920305D01*
X229606500Y-70920320D01*
X229606501Y-70924360D01*
X229607029Y-70928374D01*
X229607030Y-70928382D01*
X229609155Y-70944521D01*
X229621956Y-71041762D01*
X229625064Y-71049265D01*
X229625065Y-71049269D01*
X229630566Y-71062549D01*
X229640004Y-71110000D01*
X229630566Y-71157451D01*
X229625066Y-71170728D01*
X229625064Y-71170733D01*
X229621956Y-71178238D01*
X229620896Y-71186289D01*
X229620894Y-71186297D01*
X229607029Y-71291618D01*
X229606500Y-71295639D01*
X229606500Y-71299691D01*
X229606500Y-71299692D01*
X229606500Y-71570305D01*
X229606500Y-71570320D01*
X229606501Y-71574360D01*
X229607029Y-71578374D01*
X229607030Y-71578382D01*
X229618190Y-71663156D01*
X229621956Y-71691762D01*
X229625063Y-71699263D01*
X229625065Y-71699270D01*
X229679354Y-71830333D01*
X229682464Y-71837841D01*
X229778718Y-71963282D01*
X229904159Y-72059536D01*
X230050238Y-72120044D01*
X230167639Y-72135500D01*
X230213655Y-72135499D01*
X230279263Y-72154277D01*
X230325001Y-72204926D01*
X230337014Y-72272104D01*
X230334615Y-72295581D01*
X230325211Y-72331869D01*
X230322939Y-72337163D01*
X230322936Y-72337171D01*
X230320460Y-72342942D01*
X230319195Y-72349092D01*
X230319195Y-72349096D01*
X230280765Y-72536100D01*
X230280764Y-72536106D01*
X230279500Y-72542259D01*
X230279500Y-72548547D01*
X230279500Y-73049500D01*
X230262887Y-73111500D01*
X230217500Y-73156887D01*
X230155500Y-73173500D01*
X229572141Y-73173500D01*
X229572121Y-73173500D01*
X229568992Y-73173501D01*
X229565860Y-73173820D01*
X229565858Y-73173821D01*
X229472938Y-73183312D01*
X229472928Y-73183313D01*
X229466203Y-73184001D01*
X229459781Y-73186128D01*
X229459776Y-73186130D01*
X229306521Y-73236914D01*
X229306517Y-73236915D01*
X229299666Y-73239186D01*
X229293522Y-73242975D01*
X229293519Y-73242977D01*
X229156488Y-73327497D01*
X229156480Y-73327503D01*
X229150344Y-73331288D01*
X229145242Y-73336389D01*
X229145238Y-73336393D01*
X229132181Y-73349451D01*
X229076594Y-73381545D01*
X229012406Y-73381545D01*
X228956819Y-73349451D01*
X228943761Y-73336393D01*
X228938656Y-73331288D01*
X228932515Y-73327500D01*
X228932511Y-73327497D01*
X228795480Y-73242977D01*
X228789334Y-73239186D01*
X228658832Y-73195942D01*
X228629225Y-73186131D01*
X228629224Y-73186130D01*
X228622797Y-73184001D01*
X228616064Y-73183313D01*
X228616059Y-73183312D01*
X228523140Y-73173819D01*
X228523123Y-73173818D01*
X228520009Y-73173500D01*
X228516860Y-73173500D01*
X227798141Y-73173500D01*
X227798121Y-73173500D01*
X227794992Y-73173501D01*
X227791860Y-73173820D01*
X227791858Y-73173821D01*
X227698938Y-73183312D01*
X227698928Y-73183313D01*
X227692203Y-73184001D01*
X227685781Y-73186128D01*
X227685776Y-73186130D01*
X227532521Y-73236914D01*
X227532517Y-73236915D01*
X227525666Y-73239186D01*
X227519522Y-73242975D01*
X227519519Y-73242977D01*
X227382488Y-73327497D01*
X227382480Y-73327503D01*
X227376344Y-73331288D01*
X227371242Y-73336389D01*
X227371238Y-73336393D01*
X227257393Y-73450238D01*
X227257389Y-73450242D01*
X227252288Y-73455344D01*
X227248503Y-73461480D01*
X227248497Y-73461488D01*
X227175782Y-73579380D01*
X227160186Y-73604666D01*
X227157915Y-73611517D01*
X227157914Y-73611521D01*
X227107131Y-73764774D01*
X227105001Y-73771203D01*
X227104313Y-73777933D01*
X227104312Y-73777940D01*
X227094819Y-73870859D01*
X227094818Y-73870877D01*
X227094500Y-73873991D01*
X227094500Y-73877138D01*
X227094500Y-73877139D01*
X227094500Y-75220859D01*
X227094500Y-75220878D01*
X227094501Y-75224008D01*
X227094820Y-75227140D01*
X227094821Y-75227141D01*
X227104312Y-75320061D01*
X227104313Y-75320069D01*
X227105001Y-75326797D01*
X227107129Y-75333219D01*
X227107130Y-75333223D01*
X227157321Y-75484689D01*
X227160186Y-75493334D01*
X227163977Y-75499480D01*
X227248497Y-75636511D01*
X227248500Y-75636515D01*
X227252288Y-75642656D01*
X227376344Y-75766712D01*
X227382485Y-75770500D01*
X227382488Y-75770502D01*
X227388307Y-75774091D01*
X227525666Y-75858814D01*
X227692203Y-75913999D01*
X227794991Y-75924500D01*
X228520008Y-75924499D01*
X228622797Y-75913999D01*
X228789334Y-75858814D01*
X228938656Y-75766712D01*
X228956818Y-75748549D01*
X229012406Y-75716455D01*
X229076594Y-75716455D01*
X229132181Y-75748549D01*
X229150344Y-75766712D01*
X229156485Y-75770500D01*
X229156488Y-75770502D01*
X229162307Y-75774091D01*
X229299666Y-75858814D01*
X229466203Y-75913999D01*
X229568991Y-75924500D01*
X230206316Y-75924499D01*
X230254252Y-75934139D01*
X230294735Y-75961561D01*
X230321469Y-76002502D01*
X230335019Y-76036424D01*
X230338179Y-76045298D01*
X230355841Y-76101588D01*
X230367729Y-76123007D01*
X230370603Y-76128184D01*
X230377337Y-76142363D01*
X230386290Y-76164778D01*
X230386292Y-76164783D01*
X230388623Y-76170617D01*
X230392082Y-76175866D01*
X230392085Y-76175871D01*
X230421080Y-76219867D01*
X230425961Y-76227923D01*
X230451536Y-76273999D01*
X230451538Y-76274002D01*
X230454591Y-76279502D01*
X230458689Y-76284275D01*
X230474404Y-76302581D01*
X230483855Y-76315116D01*
X230497133Y-76335263D01*
X230497138Y-76335269D01*
X230500598Y-76340519D01*
X230505044Y-76344965D01*
X230505045Y-76344966D01*
X230542298Y-76382218D01*
X230548704Y-76389129D01*
X230587134Y-76433895D01*
X230592108Y-76437745D01*
X230592111Y-76437748D01*
X230611192Y-76452518D01*
X230622972Y-76462893D01*
X231565432Y-77405352D01*
X231567625Y-77407601D01*
X231627941Y-77471053D01*
X231633100Y-77474644D01*
X231633104Y-77474647D01*
X231676362Y-77504755D01*
X231683871Y-77510416D01*
X231729593Y-77547698D01*
X231750772Y-77558761D01*
X231756556Y-77561782D01*
X231769980Y-77569915D01*
X231794951Y-77587295D01*
X231849163Y-77610559D01*
X231857673Y-77614601D01*
X231909951Y-77641909D01*
X231939195Y-77650276D01*
X231953979Y-77655539D01*
X231981942Y-77667540D01*
X232039727Y-77679414D01*
X232048869Y-77681657D01*
X232105582Y-77697886D01*
X232111857Y-77698363D01*
X232111858Y-77698364D01*
X232115331Y-77698628D01*
X232135915Y-77700195D01*
X232151459Y-77702376D01*
X232175096Y-77707234D01*
X232175100Y-77707234D01*
X232181259Y-77708500D01*
X232240244Y-77708500D01*
X232249660Y-77708858D01*
X232308476Y-77713337D01*
X232338651Y-77709493D01*
X232354317Y-77708500D01*
X232960217Y-77708500D01*
X233007670Y-77717939D01*
X233047898Y-77744819D01*
X233606114Y-78303035D01*
X233638398Y-78359340D01*
X233637815Y-78424241D01*
X233604526Y-78479957D01*
X233526435Y-78555293D01*
X233526423Y-78555305D01*
X233523873Y-78557766D01*
X233521626Y-78560495D01*
X233521617Y-78560506D01*
X233490276Y-78598589D01*
X233490267Y-78598600D01*
X233488018Y-78601334D01*
X233486091Y-78604314D01*
X233486086Y-78604322D01*
X233429037Y-78692581D01*
X233429033Y-78692587D01*
X233425172Y-78698562D01*
X233422770Y-78705258D01*
X233422769Y-78705262D01*
X233387291Y-78804201D01*
X233387288Y-78804210D01*
X233386095Y-78807538D01*
X233385288Y-78810987D01*
X233385288Y-78810991D01*
X233374066Y-78859016D01*
X233374063Y-78859030D01*
X233373257Y-78862482D01*
X233372851Y-78866003D01*
X233372848Y-78866021D01*
X233360407Y-78973954D01*
X233359999Y-78977497D01*
X233359999Y-78981061D01*
X233359999Y-80069934D01*
X233359356Y-80082549D01*
X233359121Y-80084847D01*
X233353470Y-80111236D01*
X233343113Y-80142491D01*
X233330946Y-80168583D01*
X233316096Y-80192659D01*
X233298238Y-80215244D01*
X233278244Y-80235238D01*
X233255659Y-80253096D01*
X233231583Y-80267946D01*
X233205492Y-80280112D01*
X233174238Y-80290469D01*
X233147848Y-80296121D01*
X233146399Y-80296269D01*
X233145548Y-80296356D01*
X233132935Y-80296999D01*
X230097065Y-80296999D01*
X230084456Y-80296356D01*
X230082157Y-80296121D01*
X230055762Y-80290470D01*
X230024507Y-80280113D01*
X229998415Y-80267946D01*
X229974339Y-80253096D01*
X229951754Y-80235238D01*
X229931760Y-80215244D01*
X229913902Y-80192659D01*
X229899052Y-80168583D01*
X229886886Y-80142492D01*
X229876529Y-80111238D01*
X229870873Y-80084809D01*
X229870637Y-80082496D01*
X229870000Y-80069936D01*
X229870000Y-79912095D01*
X229870000Y-79908670D01*
X229857755Y-79798087D01*
X229845886Y-79745147D01*
X229809743Y-79639913D01*
X229751453Y-79545135D01*
X229718117Y-79502330D01*
X229640510Y-79422606D01*
X229547342Y-79361791D01*
X229544294Y-79360250D01*
X229544285Y-79360245D01*
X229501974Y-79338857D01*
X229501962Y-79338852D01*
X229498922Y-79337315D01*
X229495727Y-79336120D01*
X229495719Y-79336117D01*
X229401118Y-79300751D01*
X229401114Y-79300750D01*
X229394705Y-79298354D01*
X229387927Y-79297418D01*
X229387919Y-79297416D01*
X229287879Y-79283603D01*
X229287877Y-79283602D01*
X229284489Y-79283135D01*
X229281087Y-79283043D01*
X229281071Y-79283042D01*
X229233679Y-79281766D01*
X229233676Y-79281766D01*
X229230259Y-79281674D01*
X229226862Y-79281957D01*
X229226853Y-79281958D01*
X229122774Y-79290653D01*
X229122767Y-79290653D01*
X229119379Y-79290937D01*
X229116039Y-79291591D01*
X229116031Y-79291593D01*
X228824140Y-79348826D01*
X228778140Y-79349150D01*
X228743709Y-79335950D01*
X228743346Y-79336731D01*
X228736801Y-79333679D01*
X228730655Y-79329888D01*
X228685919Y-79315064D01*
X228570546Y-79276833D01*
X228570545Y-79276832D01*
X228564118Y-79274703D01*
X228557385Y-79274015D01*
X228557380Y-79274014D01*
X228464461Y-79264521D01*
X228464444Y-79264520D01*
X228461330Y-79264202D01*
X228458181Y-79264202D01*
X227064461Y-79264202D01*
X227064441Y-79264202D01*
X227061313Y-79264203D01*
X227058181Y-79264522D01*
X227058179Y-79264523D01*
X226965259Y-79274014D01*
X226965249Y-79274015D01*
X226958524Y-79274703D01*
X226952102Y-79276830D01*
X226952097Y-79276832D01*
X226798842Y-79327616D01*
X226798838Y-79327617D01*
X226791987Y-79329888D01*
X226785846Y-79333675D01*
X226785839Y-79333679D01*
X226744725Y-79359039D01*
X226679629Y-79377500D01*
X225216871Y-79377500D01*
X225214167Y-79377740D01*
X225214147Y-79377741D01*
X225130514Y-79385168D01*
X225130493Y-79385170D01*
X225127788Y-79385411D01*
X225125096Y-79385892D01*
X225125088Y-79385894D01*
X225087481Y-79392627D01*
X225087478Y-79392627D01*
X225084767Y-79393113D01*
X225082125Y-79393832D01*
X225082112Y-79393835D01*
X225071700Y-79396669D01*
X225009363Y-79397390D01*
X224954553Y-79367685D01*
X224921125Y-79315064D01*
X224917527Y-79252827D01*
X224918454Y-79248165D01*
X224920407Y-79241898D01*
X224926821Y-79171318D01*
X224926821Y-78658086D01*
X224920407Y-78587506D01*
X224869799Y-78425096D01*
X224781793Y-78279517D01*
X224661506Y-78159230D01*
X224617342Y-78132532D01*
X224522342Y-78075102D01*
X224522341Y-78075101D01*
X224515927Y-78071224D01*
X224486821Y-78062154D01*
X224359778Y-78022566D01*
X224359769Y-78022564D01*
X224353517Y-78020616D01*
X224346983Y-78020022D01*
X224346982Y-78020022D01*
X224285746Y-78014457D01*
X224285740Y-78014456D01*
X224282937Y-78014202D01*
X223619705Y-78014202D01*
X223616902Y-78014456D01*
X223616895Y-78014457D01*
X223555661Y-78020021D01*
X223555651Y-78020022D01*
X223549125Y-78020616D01*
X223542868Y-78022565D01*
X223542856Y-78022568D01*
X223459961Y-78048398D01*
X223456240Y-78049494D01*
X223431416Y-78056385D01*
X223423485Y-78058586D01*
X223366948Y-78060881D01*
X223315276Y-78037818D01*
X223279231Y-77994197D01*
X223266320Y-77939104D01*
X223266320Y-77626141D01*
X223266320Y-77622830D01*
X223259912Y-77563219D01*
X223209617Y-77428371D01*
X223123367Y-77313156D01*
X223022700Y-77237797D01*
X223015252Y-77232221D01*
X223015251Y-77232220D01*
X223008152Y-77226906D01*
X222873304Y-77176611D01*
X222865591Y-77175781D01*
X222865588Y-77175781D01*
X222817001Y-77170557D01*
X222816990Y-77170556D01*
X222813694Y-77170202D01*
X222810371Y-77170202D01*
X220811260Y-77170202D01*
X220811241Y-77170202D01*
X220807949Y-77170203D01*
X220804671Y-77170555D01*
X220804659Y-77170556D01*
X220756052Y-77175781D01*
X220756046Y-77175782D01*
X220748338Y-77176611D01*
X220741073Y-77179320D01*
X220741067Y-77179322D01*
X220621801Y-77223806D01*
X220621799Y-77223806D01*
X220613490Y-77226906D01*
X220606393Y-77232218D01*
X220606389Y-77232221D01*
X220505371Y-77307843D01*
X220505367Y-77307846D01*
X220498275Y-77313156D01*
X220492965Y-77320248D01*
X220492962Y-77320252D01*
X220417340Y-77421270D01*
X220417337Y-77421274D01*
X220412025Y-77428371D01*
X220408925Y-77436680D01*
X220408925Y-77436682D01*
X220364441Y-77555949D01*
X220364440Y-77555952D01*
X220361730Y-77563219D01*
X220360900Y-77570929D01*
X220360900Y-77570934D01*
X220355676Y-77619521D01*
X220355675Y-77619533D01*
X220355321Y-77622829D01*
X220355321Y-77626150D01*
X220355321Y-77626151D01*
X220355321Y-78325262D01*
X220355321Y-78325280D01*
X220355322Y-78328574D01*
X220355674Y-78331852D01*
X220355675Y-78331863D01*
X220360900Y-78380470D01*
X220360901Y-78380475D01*
X220361730Y-78388185D01*
X220364440Y-78395451D01*
X220364441Y-78395455D01*
X220395000Y-78477387D01*
X220412025Y-78523033D01*
X220417339Y-78530132D01*
X220417340Y-78530133D01*
X220422024Y-78536390D01*
X220443923Y-78584340D01*
X220443924Y-78637053D01*
X220422029Y-78685005D01*
X220417343Y-78691265D01*
X220417338Y-78691272D01*
X220412025Y-78698371D01*
X220408925Y-78706680D01*
X220408925Y-78706682D01*
X220364441Y-78825949D01*
X220364440Y-78825952D01*
X220361730Y-78833219D01*
X220360900Y-78840929D01*
X220360900Y-78840934D01*
X220355676Y-78889521D01*
X220355675Y-78889533D01*
X220355321Y-78892829D01*
X220355321Y-78896150D01*
X220355321Y-78896151D01*
X220355321Y-79595262D01*
X220355321Y-79595280D01*
X220355322Y-79598574D01*
X220355674Y-79601852D01*
X220355675Y-79601863D01*
X220360900Y-79650470D01*
X220360901Y-79650475D01*
X220361730Y-79658185D01*
X220364440Y-79665451D01*
X220364441Y-79665455D01*
X220392958Y-79741912D01*
X220412025Y-79793033D01*
X220417339Y-79800132D01*
X220417341Y-79800135D01*
X220422027Y-79806395D01*
X220443923Y-79854345D01*
X220443923Y-79907059D01*
X220422027Y-79955009D01*
X220417341Y-79961268D01*
X220417337Y-79961274D01*
X220412025Y-79968371D01*
X220408925Y-79976680D01*
X220408925Y-79976682D01*
X220364441Y-80095949D01*
X220364440Y-80095952D01*
X220361730Y-80103219D01*
X220360900Y-80110929D01*
X220360900Y-80110934D01*
X220355676Y-80159521D01*
X220355675Y-80159533D01*
X220355321Y-80162829D01*
X220355321Y-80166150D01*
X220355321Y-80166151D01*
X220355321Y-80865262D01*
X220355321Y-80865280D01*
X220355322Y-80868574D01*
X220355674Y-80871852D01*
X220355675Y-80871863D01*
X220360900Y-80920470D01*
X220360901Y-80920475D01*
X220361730Y-80928185D01*
X220364440Y-80935451D01*
X220364441Y-80935455D01*
X220385603Y-80992192D01*
X220412025Y-81063033D01*
X220417338Y-81070130D01*
X220417341Y-81070135D01*
X220422027Y-81076395D01*
X220443923Y-81124345D01*
X220443923Y-81177059D01*
X220422027Y-81225009D01*
X220417341Y-81231268D01*
X220417337Y-81231274D01*
X220412025Y-81238371D01*
X220408925Y-81246680D01*
X220408925Y-81246682D01*
X220364441Y-81365949D01*
X220364440Y-81365952D01*
X220361730Y-81373219D01*
X220360900Y-81380929D01*
X220360900Y-81380934D01*
X220355676Y-81429521D01*
X220355675Y-81429533D01*
X220355321Y-81432829D01*
X220355321Y-81436150D01*
X220355321Y-81436151D01*
X220355321Y-82135262D01*
X220355321Y-82135280D01*
X220355322Y-82138574D01*
X220355674Y-82141852D01*
X220355675Y-82141863D01*
X220360900Y-82190470D01*
X220360901Y-82190475D01*
X220361730Y-82198185D01*
X220364440Y-82205451D01*
X220364441Y-82205455D01*
X220374503Y-82232431D01*
X220412025Y-82333033D01*
X220417339Y-82340132D01*
X220417340Y-82340133D01*
X220484588Y-82429965D01*
X220502975Y-82465117D01*
X220509321Y-82504276D01*
X220509321Y-82519126D01*
X220509736Y-82522694D01*
X220509737Y-82522695D01*
X220522455Y-82631808D01*
X220522456Y-82631817D01*
X220522873Y-82635389D01*
X220523699Y-82638885D01*
X220523701Y-82638895D01*
X220535162Y-82687389D01*
X220535992Y-82690900D01*
X220537223Y-82694292D01*
X220573466Y-82794166D01*
X220573468Y-82794170D01*
X220575923Y-82800935D01*
X220640093Y-82898836D01*
X220642402Y-82901598D01*
X220642404Y-82901601D01*
X220667181Y-82931242D01*
X220666789Y-82931569D01*
X220673188Y-82937778D01*
X220691073Y-82961669D01*
X220714150Y-83015780D01*
X220722612Y-83067030D01*
X220722616Y-83067051D01*
X220723170Y-83070402D01*
X220724088Y-83073674D01*
X220724090Y-83073680D01*
X220736893Y-83119281D01*
X220737815Y-83122564D01*
X220739087Y-83125716D01*
X220739090Y-83125722D01*
X220778142Y-83222421D01*
X220778147Y-83222433D01*
X220779419Y-83225581D01*
X220781032Y-83228578D01*
X220781037Y-83228587D01*
X221038843Y-83707370D01*
X221053665Y-83765900D01*
X221039087Y-83824492D01*
X220998566Y-83869253D01*
X220946756Y-83903878D01*
X220946743Y-83903888D01*
X220943140Y-83906296D01*
X220939905Y-83909186D01*
X220939899Y-83909192D01*
X220895198Y-83949146D01*
X220895194Y-83949149D01*
X220891954Y-83952046D01*
X220889157Y-83955358D01*
X220889148Y-83955368D01*
X220806406Y-84053369D01*
X220800788Y-84060023D01*
X220797233Y-84067967D01*
X220797230Y-84067973D01*
X220779055Y-84108596D01*
X220743074Y-84189016D01*
X220741870Y-84193193D01*
X220741869Y-84193198D01*
X220725274Y-84250805D01*
X220725271Y-84250817D01*
X220724072Y-84254981D01*
X220723466Y-84259272D01*
X220723464Y-84259283D01*
X220722512Y-84266033D01*
X220700859Y-84320455D01*
X220656643Y-84358868D01*
X220599729Y-84372701D01*
X219339048Y-84372701D01*
X219306243Y-84368283D01*
X219230057Y-84347383D01*
X219227396Y-84346653D01*
X219224682Y-84346163D01*
X219224676Y-84346162D01*
X219186793Y-84339328D01*
X219186786Y-84339327D01*
X219184064Y-84338836D01*
X219181316Y-84338590D01*
X219181308Y-84338589D01*
X219099832Y-84331299D01*
X219094322Y-84330806D01*
X219088812Y-84331299D01*
X219007335Y-84338589D01*
X219007324Y-84338590D01*
X219004580Y-84338836D01*
X219001860Y-84339326D01*
X219001850Y-84339328D01*
X218963966Y-84346162D01*
X218963955Y-84346164D01*
X218961247Y-84346653D01*
X218958590Y-84347381D01*
X218958585Y-84347383D01*
X218882400Y-84368283D01*
X218849595Y-84372701D01*
X217608321Y-84372701D01*
X217546321Y-84356088D01*
X217500934Y-84310701D01*
X217484321Y-84248701D01*
X217484321Y-83020635D01*
X217490666Y-82981479D01*
X217509048Y-82946332D01*
X217515444Y-82937788D01*
X217521846Y-82931577D01*
X217521454Y-82931249D01*
X217548543Y-82898843D01*
X217612717Y-82800940D01*
X217652650Y-82690900D01*
X217665769Y-82635389D01*
X217679321Y-82519126D01*
X217679321Y-82275764D01*
X217687139Y-82232431D01*
X217697200Y-82205455D01*
X217699912Y-82198185D01*
X217706321Y-82138575D01*
X217706320Y-81432830D01*
X217699912Y-81373219D01*
X217649617Y-81238371D01*
X217639618Y-81225015D01*
X217617717Y-81177062D01*
X217617717Y-81124342D01*
X217639618Y-81076388D01*
X217649617Y-81063033D01*
X217699912Y-80928185D01*
X217706321Y-80868575D01*
X217706320Y-80162830D01*
X217699912Y-80103219D01*
X217649617Y-79968371D01*
X217563367Y-79853156D01*
X217539780Y-79835499D01*
X217455252Y-79772221D01*
X217455251Y-79772220D01*
X217448152Y-79766906D01*
X217313304Y-79716611D01*
X217305591Y-79715781D01*
X217305588Y-79715781D01*
X217257001Y-79710557D01*
X217256990Y-79710556D01*
X217253694Y-79710202D01*
X217250372Y-79710202D01*
X215315734Y-79710202D01*
X215303591Y-79709606D01*
X215038753Y-79683546D01*
X215038750Y-79683545D01*
X215038749Y-79683544D01*
X215038746Y-79683544D01*
X214555990Y-79636042D01*
X214497010Y-79614213D01*
X214490740Y-79609823D01*
X214444055Y-79577134D01*
X214337083Y-79527252D01*
X214242726Y-79483252D01*
X214242724Y-79483251D01*
X214237817Y-79480963D01*
X214232592Y-79479563D01*
X214232584Y-79479560D01*
X214023237Y-79423466D01*
X214023228Y-79423464D01*
X214018013Y-79422067D01*
X214012625Y-79421595D01*
X214012622Y-79421595D01*
X213850805Y-79407438D01*
X213850800Y-79407437D01*
X213848105Y-79407202D01*
X213845396Y-79407202D01*
X212649089Y-79407202D01*
X212649081Y-79407201D01*
X212649077Y-79407201D01*
X212421519Y-79407201D01*
X212416194Y-79408139D01*
X212416192Y-79408140D01*
X212395968Y-79411705D01*
X212370707Y-79416159D01*
X212359994Y-79417570D01*
X212313997Y-79421595D01*
X212313993Y-79421595D01*
X212308606Y-79422067D01*
X212303386Y-79423465D01*
X212303378Y-79423467D01*
X212258775Y-79435418D01*
X212248221Y-79437758D01*
X212202740Y-79445778D01*
X212202734Y-79445779D01*
X212197418Y-79446717D01*
X212192335Y-79448566D01*
X212192331Y-79448568D01*
X212148950Y-79464357D01*
X212138635Y-79467610D01*
X212094029Y-79479562D01*
X212094024Y-79479563D01*
X212088802Y-79480963D01*
X212048232Y-79499881D01*
X212042054Y-79502762D01*
X212032061Y-79506901D01*
X211988667Y-79522695D01*
X211988661Y-79522697D01*
X211983583Y-79524546D01*
X211978900Y-79527249D01*
X211978895Y-79527252D01*
X211938902Y-79550341D01*
X211929313Y-79555333D01*
X211887462Y-79574849D01*
X211887453Y-79574853D01*
X211882564Y-79577134D01*
X211878142Y-79580229D01*
X211878137Y-79580233D01*
X211840313Y-79606717D01*
X211831195Y-79612526D01*
X211791196Y-79635620D01*
X211791190Y-79635623D01*
X211786512Y-79638325D01*
X211782372Y-79641798D01*
X211782366Y-79641803D01*
X211746999Y-79671479D01*
X211738420Y-79678061D01*
X211700603Y-79704541D01*
X211700586Y-79704554D01*
X211696159Y-79707655D01*
X211692333Y-79711480D01*
X211692327Y-79711486D01*
X211535248Y-79868566D01*
X210403406Y-81000407D01*
X210344220Y-81033408D01*
X210276524Y-81030366D01*
X210224363Y-80994801D01*
X210223819Y-80995346D01*
X210064654Y-80836181D01*
X210060077Y-80833010D01*
X210060071Y-80833005D01*
X209884206Y-80711166D01*
X209884205Y-80711165D01*
X209879626Y-80707993D01*
X209719624Y-80635317D01*
X209679756Y-80617208D01*
X209679753Y-80617207D01*
X209674683Y-80614904D01*
X209669278Y-80613542D01*
X209461479Y-80561180D01*
X209461470Y-80561178D01*
X209456412Y-80559904D01*
X209451211Y-80559494D01*
X209451207Y-80559494D01*
X209326651Y-80549691D01*
X209326636Y-80549690D01*
X209324217Y-80549500D01*
X209321771Y-80549500D01*
X204698229Y-80549500D01*
X204698203Y-80549500D01*
X204695784Y-80549501D01*
X204693365Y-80549691D01*
X204693348Y-80549692D01*
X204568791Y-80559494D01*
X204568784Y-80559495D01*
X204563588Y-80559904D01*
X204558528Y-80561179D01*
X204558522Y-80561180D01*
X204350721Y-80613542D01*
X204350717Y-80613543D01*
X204345317Y-80614904D01*
X204340249Y-80617205D01*
X204340243Y-80617208D01*
X204145448Y-80705688D01*
X204145445Y-80705689D01*
X204140374Y-80707993D01*
X204135798Y-80711162D01*
X204135793Y-80711166D01*
X203959928Y-80833005D01*
X203959916Y-80833014D01*
X203955346Y-80836181D01*
X203951409Y-80840117D01*
X203951403Y-80840123D01*
X203800123Y-80991403D01*
X203800117Y-80991409D01*
X203796181Y-80995346D01*
X203793014Y-80999916D01*
X203793005Y-80999928D01*
X203671166Y-81175793D01*
X203671162Y-81175798D01*
X203667993Y-81180374D01*
X203665689Y-81185445D01*
X203665688Y-81185448D01*
X203577208Y-81380243D01*
X203577205Y-81380249D01*
X203574904Y-81385317D01*
X203573543Y-81390717D01*
X203573542Y-81390721D01*
X203521180Y-81598520D01*
X203521178Y-81598531D01*
X203519904Y-81603588D01*
X203519494Y-81608786D01*
X203519494Y-81608792D01*
X203509691Y-81733348D01*
X203509690Y-81733364D01*
X203509500Y-81735783D01*
X203509500Y-81738227D01*
X203509500Y-81738228D01*
X203509500Y-83361770D01*
X203509500Y-83361795D01*
X201000500Y-83361795D01*
X201000500Y-78325280D01*
X214795321Y-78325280D01*
X214795322Y-78328574D01*
X214795674Y-78331852D01*
X214795675Y-78331863D01*
X214800900Y-78380470D01*
X214800901Y-78380475D01*
X214801730Y-78388185D01*
X214804440Y-78395451D01*
X214804441Y-78395455D01*
X214835000Y-78477387D01*
X214852025Y-78523033D01*
X214857339Y-78530132D01*
X214857340Y-78530133D01*
X214900289Y-78587506D01*
X214938275Y-78638248D01*
X215053490Y-78724498D01*
X215188338Y-78774793D01*
X215247948Y-78781202D01*
X217253693Y-78781201D01*
X217313304Y-78774793D01*
X217448152Y-78724498D01*
X217563367Y-78638248D01*
X217649617Y-78523033D01*
X217699912Y-78388185D01*
X217706321Y-78328575D01*
X217706320Y-77622830D01*
X217699912Y-77563219D01*
X217649617Y-77428371D01*
X217563367Y-77313156D01*
X217462700Y-77237797D01*
X217455252Y-77232221D01*
X217455251Y-77232220D01*
X217448152Y-77226906D01*
X217313304Y-77176611D01*
X217305591Y-77175781D01*
X217305588Y-77175781D01*
X217257001Y-77170557D01*
X217256990Y-77170556D01*
X217253694Y-77170202D01*
X217250371Y-77170202D01*
X215251260Y-77170202D01*
X215251241Y-77170202D01*
X215247949Y-77170203D01*
X215244671Y-77170555D01*
X215244659Y-77170556D01*
X215196052Y-77175781D01*
X215196046Y-77175782D01*
X215188338Y-77176611D01*
X215181073Y-77179320D01*
X215181067Y-77179322D01*
X215061801Y-77223806D01*
X215061799Y-77223806D01*
X215053490Y-77226906D01*
X215046393Y-77232218D01*
X215046389Y-77232221D01*
X214945371Y-77307843D01*
X214945367Y-77307846D01*
X214938275Y-77313156D01*
X214932965Y-77320248D01*
X214932962Y-77320252D01*
X214857340Y-77421270D01*
X214857337Y-77421274D01*
X214852025Y-77428371D01*
X214848925Y-77436680D01*
X214848925Y-77436682D01*
X214804441Y-77555949D01*
X214804440Y-77555952D01*
X214801730Y-77563219D01*
X214800900Y-77570929D01*
X214800900Y-77570934D01*
X214795676Y-77619521D01*
X214795675Y-77619533D01*
X214795321Y-77622829D01*
X214795321Y-77626150D01*
X214795321Y-77626151D01*
X214795321Y-78325262D01*
X214795321Y-78325280D01*
X201000500Y-78325280D01*
X201000500Y-60000000D01*
X201294422Y-60000000D01*
X201294592Y-60003244D01*
X201314442Y-60382006D01*
X201314722Y-60387338D01*
X201315227Y-60390531D01*
X201315229Y-60390543D01*
X201374889Y-60767224D01*
X201374891Y-60767237D01*
X201375398Y-60770433D01*
X201376235Y-60773557D01*
X201376237Y-60773566D01*
X201474947Y-61141957D01*
X201475786Y-61145087D01*
X201476943Y-61148102D01*
X201476946Y-61148110D01*
X201607834Y-61489083D01*
X201614786Y-61507194D01*
X201616255Y-61510077D01*
X201616259Y-61510086D01*
X201766934Y-61805803D01*
X201790875Y-61852789D01*
X202002124Y-62178084D01*
X202146735Y-62356664D01*
X202170749Y-62386319D01*
X202246219Y-62479516D01*
X202520484Y-62753781D01*
X202821916Y-62997876D01*
X203147211Y-63209125D01*
X203150104Y-63210599D01*
X203438178Y-63357380D01*
X203492806Y-63385214D01*
X203854913Y-63524214D01*
X204229567Y-63624602D01*
X204612662Y-63685278D01*
X205000000Y-63705578D01*
X205387338Y-63685278D01*
X205770433Y-63624602D01*
X206145087Y-63524214D01*
X206507194Y-63385214D01*
X206852789Y-63209125D01*
X207178084Y-62997876D01*
X207479516Y-62753781D01*
X207753781Y-62479516D01*
X207997876Y-62178084D01*
X208209125Y-61852789D01*
X208385214Y-61507194D01*
X208524214Y-61145087D01*
X208624602Y-60770433D01*
X208685278Y-60387338D01*
X208705578Y-60000000D01*
X208685278Y-59612662D01*
X208624602Y-59229567D01*
X208524214Y-58854913D01*
X208385214Y-58492806D01*
X208209125Y-58147211D01*
X207997876Y-57821916D01*
X207753781Y-57520484D01*
X207479516Y-57246219D01*
X207178084Y-57002124D01*
X206852789Y-56790875D01*
X206849901Y-56789403D01*
X206849895Y-56789400D01*
X206510086Y-56616259D01*
X206510077Y-56616255D01*
X206507194Y-56614786D01*
X206464734Y-56598487D01*
X206148110Y-56476946D01*
X206148102Y-56476943D01*
X206145087Y-56475786D01*
X206141962Y-56474948D01*
X206141957Y-56474947D01*
X205773566Y-56376237D01*
X205773557Y-56376235D01*
X205770433Y-56375398D01*
X205767237Y-56374891D01*
X205767224Y-56374889D01*
X205390543Y-56315229D01*
X205390531Y-56315227D01*
X205387338Y-56314722D01*
X205384103Y-56314552D01*
X205384099Y-56314552D01*
X205003244Y-56294592D01*
X205000000Y-56294422D01*
X204996756Y-56294592D01*
X204615900Y-56314552D01*
X204615894Y-56314552D01*
X204612662Y-56314722D01*
X204609470Y-56315227D01*
X204609456Y-56315229D01*
X204232775Y-56374889D01*
X204232758Y-56374892D01*
X204229567Y-56375398D01*
X204226446Y-56376234D01*
X204226433Y-56376237D01*
X203858042Y-56474947D01*
X203858031Y-56474950D01*
X203854913Y-56475786D01*
X203851902Y-56476941D01*
X203851889Y-56476946D01*
X203495837Y-56613622D01*
X203495828Y-56613625D01*
X203492806Y-56614786D01*
X203489929Y-56616251D01*
X203489913Y-56616259D01*
X203150104Y-56789400D01*
X203150090Y-56789408D01*
X203147211Y-56790875D01*
X203144491Y-56792641D01*
X203144483Y-56792646D01*
X202824644Y-57000352D01*
X202824638Y-57000355D01*
X202821916Y-57002124D01*
X202819396Y-57004164D01*
X202819390Y-57004169D01*
X202523002Y-57244179D01*
X202522991Y-57244188D01*
X202520484Y-57246219D01*
X202518199Y-57248503D01*
X202518189Y-57248513D01*
X202248513Y-57518189D01*
X202248503Y-57518199D01*
X202246219Y-57520484D01*
X202244188Y-57522991D01*
X202244179Y-57523002D01*
X202004169Y-57819390D01*
X202004164Y-57819396D01*
X202002124Y-57821916D01*
X202000355Y-57824638D01*
X202000352Y-57824644D01*
X201792646Y-58144483D01*
X201792641Y-58144491D01*
X201790875Y-58147211D01*
X201789408Y-58150090D01*
X201789400Y-58150104D01*
X201616259Y-58489913D01*
X201616251Y-58489929D01*
X201614786Y-58492806D01*
X201613625Y-58495828D01*
X201613622Y-58495837D01*
X201476946Y-58851889D01*
X201476941Y-58851902D01*
X201475786Y-58854913D01*
X201474950Y-58858031D01*
X201474947Y-58858042D01*
X201376237Y-59226433D01*
X201376234Y-59226446D01*
X201375398Y-59229567D01*
X201374892Y-59232758D01*
X201374889Y-59232775D01*
X201315229Y-59609456D01*
X201315227Y-59609470D01*
X201314722Y-59612662D01*
X201314552Y-59615894D01*
X201314552Y-59615900D01*
X201298326Y-59925500D01*
X201294422Y-60000000D01*
X201000500Y-60000000D01*
X201000500Y-57504426D01*
X201000816Y-57495582D01*
X201000859Y-57494968D01*
X201005490Y-57430227D01*
X201016719Y-57287555D01*
X201019170Y-57270935D01*
X201038631Y-57181471D01*
X201039181Y-57179065D01*
X201065984Y-57067424D01*
X201070365Y-57053074D01*
X201104251Y-56962224D01*
X201105778Y-56958341D01*
X201147676Y-56857190D01*
X201153387Y-56845255D01*
X201200826Y-56758376D01*
X201203871Y-56753118D01*
X201259989Y-56661542D01*
X201266418Y-56652068D01*
X201326264Y-56572123D01*
X201331168Y-56565992D01*
X201400440Y-56484885D01*
X201407000Y-56477789D01*
X201477789Y-56407000D01*
X201484885Y-56400440D01*
X201565992Y-56331168D01*
X201572123Y-56326264D01*
X201652068Y-56266418D01*
X201661542Y-56259989D01*
X201753118Y-56203871D01*
X201758376Y-56200826D01*
X201845255Y-56153387D01*
X201857190Y-56147676D01*
X201958341Y-56105778D01*
X201962224Y-56104251D01*
X202053083Y-56070362D01*
X202067420Y-56065985D01*
X202179060Y-56039182D01*
X202181454Y-56038635D01*
X202270949Y-56019167D01*
X202287546Y-56016719D01*
X202430227Y-56005490D01*
X202495581Y-56000816D01*
X202504426Y-56000500D01*
X247495574Y-56000500D01*
X247504418Y-56000816D01*
G37*
G04 #@! TD.AperFunction*
G04 #@! TA.AperFunction,Conductor*
G36*
X223606136Y-78536877D02*
G01*
X223943685Y-78906279D01*
X223946519Y-78911866D01*
X223946063Y-78918115D01*
X223942449Y-78923232D01*
X223542061Y-79250273D01*
X223534848Y-79252910D01*
X223527554Y-79250507D01*
X223099448Y-78923232D01*
X223066221Y-78897830D01*
X223062338Y-78892552D01*
X223061904Y-78886012D01*
X223065053Y-78880266D01*
X223160590Y-78784729D01*
X223162992Y-78782883D01*
X223591637Y-78534643D01*
X223599279Y-78533205D01*
X223606136Y-78536877D01*
G37*
G04 #@! TD.AperFunction*
G04 #@! TA.AperFunction,Conductor*
G36*
X240708110Y-82761226D02*
G01*
X242346599Y-83423504D01*
X242351495Y-83427226D01*
X242353826Y-83432918D01*
X242352948Y-83439006D01*
X241970112Y-84321821D01*
X241965713Y-84327002D01*
X241959176Y-84328864D01*
X240725836Y-84307575D01*
X240718826Y-84305090D01*
X240714731Y-84298882D01*
X240309906Y-82775075D01*
X240310225Y-82768056D01*
X240314510Y-82762484D01*
X240321214Y-82760373D01*
X240703725Y-82760373D01*
X240708110Y-82761226D01*
G37*
G04 #@! TD.AperFunction*
G04 #@! TA.AperFunction,Conductor*
G36*
X222823000Y-81423613D02*
G01*
X222868387Y-81469000D01*
X222885000Y-81531000D01*
X222885000Y-83823000D01*
X222868387Y-83885000D01*
X222823000Y-83930387D01*
X222761000Y-83947000D01*
X221816064Y-83947000D01*
X221752478Y-83929456D01*
X221706886Y-83881788D01*
X221224497Y-82985923D01*
X221209852Y-82933761D01*
X221209820Y-82933164D01*
X221209820Y-82929830D01*
X221203412Y-82870219D01*
X221153117Y-82735371D01*
X221066867Y-82620156D01*
X221059767Y-82614841D01*
X221053499Y-82608573D01*
X221055028Y-82607043D01*
X221027940Y-82574637D01*
X221014821Y-82519126D01*
X221014821Y-81531000D01*
X221031434Y-81469000D01*
X221076821Y-81423613D01*
X221138821Y-81407000D01*
X222761000Y-81407000D01*
X222823000Y-81423613D01*
G37*
G04 #@! TD.AperFunction*
G04 #@! TA.AperFunction,Conductor*
G36*
X217125579Y-71700105D02*
G01*
X217529376Y-72050986D01*
X217529975Y-72051545D01*
X217627072Y-72148642D01*
X217630147Y-72154066D01*
X217629999Y-72160299D01*
X217626670Y-72165572D01*
X217125372Y-72621389D01*
X217120237Y-72624108D01*
X217114426Y-72624021D01*
X215583190Y-72206930D01*
X215577043Y-72202841D01*
X215574568Y-72195885D01*
X215576750Y-72188832D01*
X215582719Y-72184492D01*
X217114366Y-71697785D01*
X217120274Y-71697479D01*
X217125579Y-71700105D01*
G37*
G04 #@! TD.AperFunction*
G04 #@! TA.AperFunction,Conductor*
G36*
X228907751Y-74007361D02*
G01*
X229272092Y-74047844D01*
X229279518Y-74051669D01*
X229282500Y-74059472D01*
X229282500Y-75038528D01*
X229279518Y-75046331D01*
X229272092Y-75050156D01*
X228725582Y-75110879D01*
X228720422Y-75110293D01*
X228716024Y-75107531D01*
X228164794Y-74557279D01*
X228161760Y-74552031D01*
X228161760Y-74545967D01*
X228164791Y-74540723D01*
X228716026Y-73990466D01*
X228720422Y-73987706D01*
X228725581Y-73987120D01*
X228907751Y-74007361D01*
G37*
G04 #@! TD.AperFunction*
G04 #@! TA.AperFunction,Conductor*
G36*
X222886526Y-67143565D02*
G01*
X223259646Y-67493111D01*
X223263280Y-67500398D01*
X223261277Y-67508293D01*
X222995291Y-67893781D01*
X222990146Y-67897942D01*
X222983566Y-67898647D01*
X222979692Y-67897942D01*
X222935436Y-67889887D01*
X222400605Y-67792546D01*
X222393717Y-67788531D01*
X222391000Y-67781035D01*
X222391000Y-67397923D01*
X222392707Y-67391838D01*
X222397330Y-67387528D01*
X222462628Y-67353793D01*
X222873160Y-67141708D01*
X222880137Y-67140515D01*
X222886526Y-67143565D01*
G37*
G04 #@! TD.AperFunction*
G04 #@! TA.AperFunction,Conductor*
G36*
X225769501Y-71502112D02*
G01*
X225814888Y-71547499D01*
X225831500Y-71609497D01*
X225831501Y-71707872D01*
X225831853Y-71711150D01*
X225831854Y-71711161D01*
X225837079Y-71759768D01*
X225837080Y-71759773D01*
X225837909Y-71767483D01*
X225840619Y-71774749D01*
X225840620Y-71774753D01*
X225850959Y-71802472D01*
X225888204Y-71902331D01*
X225888910Y-71903275D01*
X225902191Y-71947852D01*
X225895436Y-71999161D01*
X225868326Y-72043244D01*
X225830093Y-72083343D01*
X225830088Y-72083348D01*
X225826014Y-72087622D01*
X225822822Y-72092589D01*
X225808638Y-72114658D01*
X225799947Y-72126560D01*
X225783236Y-72146800D01*
X225783232Y-72146804D01*
X225779476Y-72151355D01*
X225776650Y-72156529D01*
X225776640Y-72156545D01*
X225750067Y-72205210D01*
X225745552Y-72212820D01*
X225715581Y-72259455D01*
X225715573Y-72259470D01*
X225712387Y-72264428D01*
X225710310Y-72269614D01*
X225692911Y-72294973D01*
X224948257Y-73132709D01*
X224912065Y-73160715D01*
X224868179Y-73173686D01*
X224773939Y-73183312D01*
X224773930Y-73183313D01*
X224767203Y-73184001D01*
X224760781Y-73186128D01*
X224760776Y-73186130D01*
X224607521Y-73236914D01*
X224607517Y-73236915D01*
X224600666Y-73239186D01*
X224594522Y-73242975D01*
X224594519Y-73242977D01*
X224457488Y-73327497D01*
X224457480Y-73327503D01*
X224451344Y-73331288D01*
X224446242Y-73336389D01*
X224446238Y-73336393D01*
X224332393Y-73450238D01*
X224332389Y-73450242D01*
X224327288Y-73455344D01*
X224323503Y-73461480D01*
X224323497Y-73461488D01*
X224238977Y-73598519D01*
X224235186Y-73604666D01*
X224232915Y-73611517D01*
X224232914Y-73611521D01*
X224182131Y-73764774D01*
X224180001Y-73771203D01*
X224179313Y-73777933D01*
X224179312Y-73777940D01*
X224169819Y-73870859D01*
X224169818Y-73870877D01*
X224169500Y-73873991D01*
X224169500Y-73877140D01*
X224169500Y-73961668D01*
X224161405Y-74005735D01*
X224138179Y-74044049D01*
X224064995Y-74126381D01*
X224023113Y-74157118D01*
X223972316Y-74168000D01*
X222628000Y-74168000D01*
X222566000Y-74151387D01*
X222520613Y-74106000D01*
X222504000Y-74044000D01*
X222504000Y-71609500D01*
X222520613Y-71547500D01*
X222566000Y-71502113D01*
X222628000Y-71485500D01*
X225211864Y-71485500D01*
X225211872Y-71485500D01*
X225211874Y-71485499D01*
X225211880Y-71485499D01*
X225707501Y-71485499D01*
X225769501Y-71502112D01*
G37*
G04 #@! TD.AperFunction*
G04 #@! TA.AperFunction,Conductor*
G36*
X233605855Y-69434503D02*
G01*
X234283344Y-69500743D01*
X234289321Y-69503101D01*
X234293152Y-69508261D01*
X234293680Y-69514666D01*
X234202780Y-69972304D01*
X234200716Y-69976975D01*
X234196860Y-69980322D01*
X233761321Y-70215322D01*
X233755419Y-70216720D01*
X233749609Y-70214975D01*
X233745456Y-70210557D01*
X233383877Y-69536493D01*
X233382612Y-69529254D01*
X233385912Y-69522691D01*
X233481927Y-69426676D01*
X233486252Y-69423936D01*
X233491337Y-69423307D01*
X233605855Y-69434503D01*
G37*
G04 #@! TD.AperFunction*
G04 #@! TA.AperFunction,Conductor*
G36*
X232964541Y-58322955D02*
G01*
X233666654Y-58851696D01*
X233670913Y-58857999D01*
X233670396Y-58865589D01*
X233665321Y-58871257D01*
X232865768Y-59317852D01*
X232858662Y-59319253D01*
X232852093Y-59316203D01*
X232246230Y-58752471D01*
X232243473Y-58748576D01*
X232242500Y-58743905D01*
X232242500Y-58606991D01*
X232244538Y-58600392D01*
X232249943Y-58596093D01*
X232953251Y-58321403D01*
X232959098Y-58320711D01*
X232964541Y-58322955D01*
G37*
G04 #@! TD.AperFunction*
G04 #@! TA.AperFunction,Conductor*
G36*
X225120445Y-70126400D02*
G01*
X225127194Y-70130142D01*
X225130145Y-70137273D01*
X225128014Y-70144690D01*
X225121728Y-70149167D01*
X224484384Y-70334307D01*
X224479536Y-70334663D01*
X224380245Y-70321093D01*
X224192114Y-70295382D01*
X224184885Y-70291484D01*
X224182000Y-70283791D01*
X224182000Y-70150127D01*
X224183335Y-70144699D01*
X224187037Y-70140510D01*
X224207402Y-70126400D01*
X224384891Y-70003425D01*
X224393531Y-70001512D01*
X225120445Y-70126400D01*
G37*
G04 #@! TD.AperFunction*
G04 #@! TA.AperFunction,Conductor*
G36*
X231775751Y-67232765D02*
G01*
X231864959Y-67321973D01*
X231868386Y-67330216D01*
X231865002Y-67338477D01*
X231685358Y-67519978D01*
X231677225Y-67523446D01*
X230904296Y-67535542D01*
X230896434Y-67532670D01*
X230892502Y-67525281D01*
X230870378Y-67346616D01*
X230871215Y-67340616D01*
X230874941Y-67335839D01*
X230880555Y-67333566D01*
X231269279Y-67285586D01*
X231270712Y-67285499D01*
X231626534Y-67285499D01*
X231626864Y-67285499D01*
X231651991Y-67282585D01*
X231754765Y-67237206D01*
X231759206Y-67232764D01*
X231764449Y-67229737D01*
X231770506Y-67229737D01*
X231775751Y-67232765D01*
G37*
G04 #@! TD.AperFunction*
G04 #@! TA.AperFunction,Conductor*
G36*
X233689589Y-66363716D02*
G01*
X234501027Y-66805150D01*
X234505932Y-66810259D01*
X234506990Y-66817263D01*
X234402567Y-67474636D01*
X234398609Y-67481698D01*
X234391012Y-67484500D01*
X234005212Y-67484500D01*
X233997755Y-67481816D01*
X233989074Y-67474636D01*
X233328898Y-66928585D01*
X233324798Y-66921391D01*
X233326488Y-66913286D01*
X233674133Y-66367707D01*
X233681075Y-66362666D01*
X233689589Y-66363716D01*
G37*
G04 #@! TD.AperFunction*
G04 #@! TA.AperFunction,Conductor*
G36*
X232259951Y-69598029D02*
G01*
X232644909Y-69970146D01*
X232648416Y-69977366D01*
X232646445Y-69985148D01*
X232345102Y-70427235D01*
X232338935Y-70431809D01*
X232331260Y-70431575D01*
X231758526Y-70212874D01*
X231753064Y-70208579D01*
X231751000Y-70201944D01*
X231751000Y-70065068D01*
X231751964Y-70060417D01*
X231754696Y-70056534D01*
X232243816Y-69597905D01*
X232251908Y-69594741D01*
X232259951Y-69598029D01*
G37*
G04 #@! TD.AperFunction*
G04 #@! TA.AperFunction,Conductor*
G36*
X235832480Y-57916876D02*
G01*
X235832497Y-57916889D01*
X236250723Y-58241773D01*
X236255040Y-58248831D01*
X236253609Y-58256980D01*
X236002819Y-58679961D01*
X236001028Y-58682267D01*
X235731155Y-58952140D01*
X235724543Y-58955448D01*
X235717268Y-58954132D01*
X235712235Y-58948718D01*
X235396952Y-58256503D01*
X235396238Y-58248867D01*
X235400408Y-58242429D01*
X235818113Y-57916888D01*
X235825295Y-57914417D01*
X235832480Y-57916876D01*
G37*
G04 #@! TD.AperFunction*
G04 #@! TA.AperFunction,Conductor*
G36*
X233425629Y-73988415D02*
G01*
X233973047Y-74146558D01*
X233979151Y-74150766D01*
X233981500Y-74157798D01*
X233981500Y-74940202D01*
X233979151Y-74947234D01*
X233973047Y-74951442D01*
X233425629Y-75109584D01*
X233419469Y-75109676D01*
X233414116Y-75106624D01*
X232863794Y-74557279D01*
X232860760Y-74552031D01*
X232860760Y-74545967D01*
X232863790Y-74540724D01*
X233414119Y-73991372D01*
X233419469Y-73988323D01*
X233425629Y-73988415D01*
G37*
G04 #@! TD.AperFunction*
G04 #@! TA.AperFunction,Conductor*
G36*
X231351871Y-71616469D02*
G01*
X231356991Y-71621550D01*
X231699522Y-72286003D01*
X231700586Y-72293707D01*
X231696585Y-72300376D01*
X231287935Y-72638721D01*
X231280655Y-72641408D01*
X231273295Y-72638949D01*
X230854865Y-72313907D01*
X230850608Y-72307142D01*
X230851687Y-72299223D01*
X231065983Y-71891716D01*
X231068060Y-71888897D01*
X231338321Y-71618636D01*
X231344743Y-71615358D01*
X231351871Y-71616469D01*
G37*
G04 #@! TD.AperFunction*
G04 #@! TA.AperFunction,Conductor*
G36*
X222757891Y-78146347D02*
G01*
X222764054Y-78149558D01*
X222767308Y-78155699D01*
X222820217Y-78437268D01*
X222819896Y-78442885D01*
X222816991Y-78447702D01*
X222720098Y-78544595D01*
X222714823Y-78547632D01*
X222708736Y-78547607D01*
X221744840Y-78283722D01*
X221737831Y-78278347D01*
X221736577Y-78269606D01*
X221807461Y-77985621D01*
X221812462Y-77978630D01*
X221820894Y-77976944D01*
X222757891Y-78146347D01*
G37*
G04 #@! TD.AperFunction*
G04 #@! TA.AperFunction,Conductor*
G36*
X215620123Y-63576879D02*
G01*
X215624127Y-63579921D01*
X216038641Y-64067585D01*
X216041417Y-64075629D01*
X216038007Y-64083427D01*
X215553903Y-64568500D01*
X215548654Y-64571535D01*
X215542590Y-64571535D01*
X215537341Y-64568500D01*
X215053236Y-64083427D01*
X215049826Y-64075629D01*
X215052601Y-64067587D01*
X215467118Y-63579920D01*
X215471121Y-63576879D01*
X215476032Y-63575798D01*
X215615212Y-63575798D01*
X215620123Y-63576879D01*
G37*
G04 #@! TD.AperFunction*
G04 #@! TA.AperFunction,Conductor*
G36*
X224025168Y-79502521D02*
G01*
X224029485Y-79507413D01*
X224269422Y-80016370D01*
X224270319Y-80023618D01*
X224266743Y-80029986D01*
X223897445Y-80368341D01*
X223891858Y-80371182D01*
X223885607Y-80370733D01*
X223880485Y-80367122D01*
X223552580Y-79966226D01*
X223549943Y-79959185D01*
X223552135Y-79951993D01*
X223872820Y-79505576D01*
X223876982Y-79501992D01*
X223882322Y-79500702D01*
X224018902Y-79500702D01*
X224025168Y-79502521D01*
G37*
G04 #@! TD.AperFunction*
G04 #@! TA.AperFunction,Conductor*
G36*
X235972317Y-58659001D02*
G01*
X235977390Y-58664274D01*
X236157523Y-59039074D01*
X236158453Y-59046426D01*
X235974869Y-59968702D01*
X235971156Y-59975173D01*
X235964287Y-59978084D01*
X235957055Y-59976252D01*
X235952400Y-59970422D01*
X235666882Y-59186423D01*
X235666218Y-59181430D01*
X235687038Y-58936498D01*
X235690421Y-58929220D01*
X235958574Y-58661067D01*
X235965104Y-58657772D01*
X235972317Y-58659001D01*
G37*
G04 #@! TD.AperFunction*
G04 #@! TA.AperFunction,Conductor*
G36*
X232271761Y-67675146D02*
G01*
X232645438Y-68065151D01*
X232648650Y-68072277D01*
X232646658Y-68079835D01*
X232345458Y-68521712D01*
X232338926Y-68526394D01*
X232330916Y-68525758D01*
X231757826Y-68263128D01*
X231752853Y-68258811D01*
X231751000Y-68252492D01*
X231751000Y-68115357D01*
X231752062Y-68110487D01*
X231755055Y-68106500D01*
X231807178Y-68061508D01*
X232255670Y-67674382D01*
X232263867Y-67671553D01*
X232271761Y-67675146D01*
G37*
G04 #@! TD.AperFunction*
G04 #@! TA.AperFunction,Conductor*
G36*
X231624044Y-69944305D02*
G01*
X231844002Y-70042958D01*
X231875088Y-70056900D01*
X231880121Y-70061216D01*
X231882000Y-70067575D01*
X231882000Y-70202425D01*
X231880121Y-70208784D01*
X231875088Y-70213100D01*
X231624046Y-70325693D01*
X231616264Y-70326328D01*
X230936223Y-70146309D01*
X230929947Y-70142137D01*
X230927518Y-70135000D01*
X230929947Y-70127864D01*
X230936223Y-70123690D01*
X231616266Y-69943671D01*
X231624044Y-69944305D01*
G37*
G04 #@! TD.AperFunction*
G04 #@! TA.AperFunction,Conductor*
G36*
X230092125Y-62831691D02*
G01*
X230098688Y-62835798D01*
X230101250Y-62843104D01*
X230101250Y-63224396D01*
X230098688Y-63231702D01*
X230092125Y-63235808D01*
X230036422Y-63248377D01*
X229712754Y-63321406D01*
X229704901Y-63320435D01*
X229158407Y-63044192D01*
X229152767Y-63037955D01*
X229152767Y-63029545D01*
X229158407Y-63023308D01*
X229704902Y-62747063D01*
X229712753Y-62746093D01*
X230092125Y-62831691D01*
G37*
G04 #@! TD.AperFunction*
G04 #@! TA.AperFunction,Conductor*
G36*
X236040023Y-63685642D02*
G01*
X236044323Y-63690109D01*
X236252171Y-64072166D01*
X236253544Y-64076691D01*
X236253015Y-64081390D01*
X235977122Y-64925953D01*
X235972870Y-64931791D01*
X235966000Y-64934020D01*
X235959130Y-64931791D01*
X235954878Y-64925953D01*
X235678984Y-64081390D01*
X235678455Y-64076691D01*
X235679827Y-64072168D01*
X235887677Y-63690109D01*
X235891977Y-63685642D01*
X235897955Y-63684000D01*
X236034045Y-63684000D01*
X236040023Y-63685642D01*
G37*
G04 #@! TD.AperFunction*
G04 #@! TA.AperFunction,Conductor*
G36*
X223965198Y-62566053D02*
G01*
X224695465Y-63195387D01*
X224699050Y-63200944D01*
X224699050Y-63207556D01*
X224695465Y-63213113D01*
X223965198Y-63842446D01*
X223958809Y-63845216D01*
X223951978Y-63843865D01*
X223148366Y-63407570D01*
X223143895Y-63403272D01*
X223142250Y-63397290D01*
X223142250Y-63011210D01*
X223143895Y-63005228D01*
X223148366Y-63000929D01*
X223951981Y-62564633D01*
X223958809Y-62563283D01*
X223965198Y-62566053D01*
G37*
G04 #@! TD.AperFunction*
G04 #@! TA.AperFunction,Conductor*
G36*
X214989249Y-80186616D02*
G01*
X215255767Y-80212841D01*
X215263290Y-80216627D01*
X215266321Y-80224485D01*
X215266321Y-80807131D01*
X215264756Y-80812976D01*
X215260481Y-80817258D01*
X214646185Y-81172691D01*
X214640448Y-81174263D01*
X214634680Y-81172812D01*
X213804874Y-80715718D01*
X213799880Y-80710338D01*
X213799074Y-80703041D01*
X213802771Y-80696704D01*
X214437504Y-80136073D01*
X214441647Y-80133711D01*
X214446387Y-80133200D01*
X214989249Y-80186616D01*
G37*
G04 #@! TD.AperFunction*
G04 #@! TA.AperFunction,Conductor*
G36*
X235599813Y-57438944D02*
G01*
X235604285Y-57443905D01*
X235823052Y-57903702D01*
X235823901Y-57911301D01*
X235819875Y-57917801D01*
X235408108Y-58253114D01*
X235400607Y-58255741D01*
X235393159Y-58252970D01*
X234930935Y-57861505D01*
X234927881Y-57857497D01*
X234926796Y-57852577D01*
X234926796Y-57469341D01*
X234930095Y-57461198D01*
X234938132Y-57457647D01*
X235261930Y-57447561D01*
X235593356Y-57437238D01*
X235599813Y-57438944D01*
G37*
G04 #@! TD.AperFunction*
G04 #@! TA.AperFunction,Conductor*
G36*
X238512870Y-64986208D02*
G01*
X238517122Y-64992046D01*
X238793581Y-65838339D01*
X238793872Y-65844547D01*
X238708059Y-66224875D01*
X238703952Y-66231438D01*
X238696646Y-66234000D01*
X238315354Y-66234000D01*
X238308048Y-66231438D01*
X238303941Y-66224875D01*
X238218127Y-65844547D01*
X238218417Y-65838342D01*
X238494878Y-64992045D01*
X238499130Y-64986208D01*
X238506000Y-64983979D01*
X238512870Y-64986208D01*
G37*
G04 #@! TD.AperFunction*
G04 #@! TA.AperFunction,Conductor*
G36*
X238703835Y-68292645D02*
G01*
X238707894Y-68299385D01*
X238823440Y-68871798D01*
X238822942Y-68878180D01*
X238819160Y-68883344D01*
X238399828Y-69209903D01*
X238392151Y-69212362D01*
X238384706Y-69209272D01*
X237991752Y-68846786D01*
X237988114Y-68839920D01*
X237989578Y-68832291D01*
X238302614Y-68295802D01*
X238306892Y-68291554D01*
X238312719Y-68290000D01*
X238696425Y-68290000D01*
X238703835Y-68292645D01*
G37*
G04 #@! TD.AperFunction*
G04 #@! TA.AperFunction,Conductor*
G36*
X217125557Y-66619993D02*
G01*
X217616499Y-67037294D01*
X217619541Y-67041297D01*
X217620622Y-67046208D01*
X217620622Y-67185388D01*
X217619541Y-67190299D01*
X217616499Y-67194301D01*
X217395576Y-67382087D01*
X217125559Y-67611601D01*
X217120291Y-67614156D01*
X217114444Y-67613838D01*
X215579773Y-67126950D01*
X215573869Y-67122708D01*
X215571611Y-67115798D01*
X215573869Y-67108888D01*
X215579773Y-67104646D01*
X217114447Y-66617756D01*
X217120291Y-66617439D01*
X217125557Y-66619993D01*
G37*
G04 #@! TD.AperFunction*
G04 #@! TA.AperFunction,Conductor*
G36*
X225456725Y-62562886D02*
G01*
X226259258Y-62831079D01*
X226265044Y-62835339D01*
X226267250Y-62842176D01*
X226267250Y-63227906D01*
X226266017Y-63233134D01*
X226262578Y-63237260D01*
X225547703Y-63774326D01*
X225540923Y-63776669D01*
X225534050Y-63774616D01*
X225533628Y-63774326D01*
X224716262Y-63212845D01*
X224711936Y-63207317D01*
X224711552Y-63200307D01*
X224715249Y-63194340D01*
X225445386Y-62565119D01*
X225450760Y-62562504D01*
X225456725Y-62562886D01*
G37*
G04 #@! TD.AperFunction*
G04 #@! TA.AperFunction,Conductor*
G36*
X234549037Y-61422874D02*
G01*
X234866285Y-61764128D01*
X235150567Y-62069921D01*
X235153696Y-62078099D01*
X235150271Y-62086159D01*
X235054579Y-62181851D01*
X235048876Y-62184992D01*
X234405958Y-62329779D01*
X234400922Y-62329802D01*
X234396344Y-62327705D01*
X233993997Y-62024193D01*
X233695404Y-61798946D01*
X233691052Y-61792246D01*
X233692015Y-61784314D01*
X233697843Y-61778851D01*
X234535864Y-61420083D01*
X234542892Y-61419394D01*
X234549037Y-61422874D01*
G37*
G04 #@! TD.AperFunction*
G04 #@! TA.AperFunction,Conductor*
G36*
X229368577Y-73987706D02*
G01*
X229372975Y-73990468D01*
X229924205Y-74540720D01*
X229927239Y-74545967D01*
X229927239Y-74552031D01*
X229924205Y-74557279D01*
X229372975Y-75107531D01*
X229368577Y-75110293D01*
X229363417Y-75110879D01*
X228816908Y-75050156D01*
X228809482Y-75046331D01*
X228806500Y-75038528D01*
X228806500Y-74059472D01*
X228809482Y-74051669D01*
X228816908Y-74047844D01*
X229129198Y-74013144D01*
X229363418Y-73987120D01*
X229368577Y-73987706D01*
G37*
G04 #@! TD.AperFunction*
G04 #@! TA.AperFunction,Conductor*
G36*
X236677501Y-71894300D02*
G01*
X237225739Y-72503377D01*
X237228080Y-72507322D01*
X237228724Y-72511865D01*
X237204985Y-72931592D01*
X237201577Y-72939204D01*
X236650530Y-73490251D01*
X236644057Y-73493539D01*
X236636891Y-73492375D01*
X236631791Y-73487208D01*
X236259471Y-72742139D01*
X236258237Y-72737012D01*
X236259379Y-72731866D01*
X236658248Y-71897082D01*
X236663499Y-71891700D01*
X236670941Y-71890624D01*
X236677501Y-71894300D01*
G37*
G04 #@! TD.AperFunction*
G04 #@! TA.AperFunction,Conductor*
G36*
X217125442Y-69201755D02*
G01*
X217398423Y-69441144D01*
X217616636Y-69632505D01*
X217619579Y-69636473D01*
X217620622Y-69641302D01*
X217620622Y-69780101D01*
X217619369Y-69785368D01*
X217615879Y-69789508D01*
X217125423Y-70152246D01*
X217120385Y-70154380D01*
X217114928Y-70153991D01*
X215581310Y-69667437D01*
X215575365Y-69663138D01*
X215573149Y-69656143D01*
X215575534Y-69649205D01*
X215581578Y-69645051D01*
X217114466Y-69199317D01*
X217120266Y-69199131D01*
X217125442Y-69201755D01*
G37*
G04 #@! TD.AperFunction*
M02*
