%TF.GenerationSoftware,KiCad,Pcbnew,(7.0.0)*%
%TF.CreationDate,2023-04-27T00:18:31+08:00*%
%TF.ProjectId,DRV-24to12-BrushedMotorDriver,4452562d-3234-4746-9f31-322d42727573,rev?*%
%TF.SameCoordinates,Original*%
%TF.FileFunction,Drillmap*%
%TF.FilePolarity,Positive*%
%FSLAX45Y45*%
G04 Gerber Fmt 4.5, Leading zero omitted, Abs format (unit mm)*
G04 Created by KiCad (PCBNEW (7.0.0)) date 2023-04-27 00:18:31*
%MOMM*%
%LPD*%
G01*
G04 APERTURE LIST*
%ADD10C,0.100000*%
%ADD11C,0.200000*%
%ADD12C,0.320000*%
G04 APERTURE END LIST*
D10*
X20100000Y-9250000D02*
X20100000Y-5750000D01*
X24900000Y-5750000D02*
G75*
G03*
X24750000Y-5600000I-150000J0D01*
G01*
X24900000Y-5750000D02*
X24900000Y-9250000D01*
X20250000Y-5600000D02*
G75*
G03*
X20100000Y-5750000I0J-150000D01*
G01*
X20250000Y-5600000D02*
X24750000Y-5600000D01*
X24750000Y-9400000D02*
G75*
G03*
X24900000Y-9250000I0J150000D01*
G01*
X20100000Y-9250000D02*
G75*
G03*
X20250000Y-9400000I150000J0D01*
G01*
X24750000Y-9400000D02*
X20250000Y-9400000D01*
D11*
D12*
X20340000Y-5840000D02*
X20660000Y-6160000D01*
X20660000Y-5840000D02*
X20340000Y-6160000D01*
X20340000Y-8840000D02*
X20660000Y-9160000D01*
X20660000Y-8840000D02*
X20340000Y-9160000D01*
X24340000Y-5840000D02*
X24660000Y-6160000D01*
X24660000Y-5840000D02*
X24340000Y-6160000D01*
X24340000Y-8840000D02*
X24660000Y-9160000D01*
X24660000Y-8840000D02*
X24340000Y-9160000D01*
D11*
X20342619Y-9698476D02*
X20342619Y-9498476D01*
X20342619Y-9498476D02*
X20390238Y-9498476D01*
X20390238Y-9498476D02*
X20418810Y-9508000D01*
X20418810Y-9508000D02*
X20437857Y-9527048D01*
X20437857Y-9527048D02*
X20447381Y-9546095D01*
X20447381Y-9546095D02*
X20456905Y-9584190D01*
X20456905Y-9584190D02*
X20456905Y-9612762D01*
X20456905Y-9612762D02*
X20447381Y-9650857D01*
X20447381Y-9650857D02*
X20437857Y-9669905D01*
X20437857Y-9669905D02*
X20418810Y-9688952D01*
X20418810Y-9688952D02*
X20390238Y-9698476D01*
X20390238Y-9698476D02*
X20342619Y-9698476D01*
X20542619Y-9698476D02*
X20542619Y-9565143D01*
X20542619Y-9603238D02*
X20552143Y-9584190D01*
X20552143Y-9584190D02*
X20561667Y-9574667D01*
X20561667Y-9574667D02*
X20580714Y-9565143D01*
X20580714Y-9565143D02*
X20599762Y-9565143D01*
X20666429Y-9698476D02*
X20666429Y-9565143D01*
X20666429Y-9498476D02*
X20656905Y-9508000D01*
X20656905Y-9508000D02*
X20666429Y-9517524D01*
X20666429Y-9517524D02*
X20675952Y-9508000D01*
X20675952Y-9508000D02*
X20666429Y-9498476D01*
X20666429Y-9498476D02*
X20666429Y-9517524D01*
X20790238Y-9698476D02*
X20771190Y-9688952D01*
X20771190Y-9688952D02*
X20761667Y-9669905D01*
X20761667Y-9669905D02*
X20761667Y-9498476D01*
X20895000Y-9698476D02*
X20875952Y-9688952D01*
X20875952Y-9688952D02*
X20866429Y-9669905D01*
X20866429Y-9669905D02*
X20866429Y-9498476D01*
X21091190Y-9698476D02*
X21091190Y-9498476D01*
X21091190Y-9498476D02*
X21157857Y-9641333D01*
X21157857Y-9641333D02*
X21224524Y-9498476D01*
X21224524Y-9498476D02*
X21224524Y-9698476D01*
X21405476Y-9698476D02*
X21405476Y-9593714D01*
X21405476Y-9593714D02*
X21395952Y-9574667D01*
X21395952Y-9574667D02*
X21376905Y-9565143D01*
X21376905Y-9565143D02*
X21338809Y-9565143D01*
X21338809Y-9565143D02*
X21319762Y-9574667D01*
X21405476Y-9688952D02*
X21386429Y-9698476D01*
X21386429Y-9698476D02*
X21338809Y-9698476D01*
X21338809Y-9698476D02*
X21319762Y-9688952D01*
X21319762Y-9688952D02*
X21310238Y-9669905D01*
X21310238Y-9669905D02*
X21310238Y-9650857D01*
X21310238Y-9650857D02*
X21319762Y-9631810D01*
X21319762Y-9631810D02*
X21338809Y-9622286D01*
X21338809Y-9622286D02*
X21386429Y-9622286D01*
X21386429Y-9622286D02*
X21405476Y-9612762D01*
X21500714Y-9565143D02*
X21500714Y-9765143D01*
X21500714Y-9574667D02*
X21519762Y-9565143D01*
X21519762Y-9565143D02*
X21557857Y-9565143D01*
X21557857Y-9565143D02*
X21576905Y-9574667D01*
X21576905Y-9574667D02*
X21586429Y-9584190D01*
X21586429Y-9584190D02*
X21595952Y-9603238D01*
X21595952Y-9603238D02*
X21595952Y-9660381D01*
X21595952Y-9660381D02*
X21586429Y-9679429D01*
X21586429Y-9679429D02*
X21576905Y-9688952D01*
X21576905Y-9688952D02*
X21557857Y-9698476D01*
X21557857Y-9698476D02*
X21519762Y-9698476D01*
X21519762Y-9698476D02*
X21500714Y-9688952D01*
X21681667Y-9679429D02*
X21691190Y-9688952D01*
X21691190Y-9688952D02*
X21681667Y-9698476D01*
X21681667Y-9698476D02*
X21672143Y-9688952D01*
X21672143Y-9688952D02*
X21681667Y-9679429D01*
X21681667Y-9679429D02*
X21681667Y-9698476D01*
X21681667Y-9574667D02*
X21691190Y-9584190D01*
X21691190Y-9584190D02*
X21681667Y-9593714D01*
X21681667Y-9593714D02*
X21672143Y-9584190D01*
X21672143Y-9584190D02*
X21681667Y-9574667D01*
X21681667Y-9574667D02*
X21681667Y-9593714D01*
X19895000Y-9945000D02*
X20095000Y-10145000D01*
X20095000Y-9945000D02*
X19895000Y-10145000D01*
X20323571Y-9918476D02*
X20447381Y-9918476D01*
X20447381Y-9918476D02*
X20380714Y-9994667D01*
X20380714Y-9994667D02*
X20409286Y-9994667D01*
X20409286Y-9994667D02*
X20428333Y-10004190D01*
X20428333Y-10004190D02*
X20437857Y-10013714D01*
X20437857Y-10013714D02*
X20447381Y-10032762D01*
X20447381Y-10032762D02*
X20447381Y-10080381D01*
X20447381Y-10080381D02*
X20437857Y-10099429D01*
X20437857Y-10099429D02*
X20428333Y-10108952D01*
X20428333Y-10108952D02*
X20409286Y-10118476D01*
X20409286Y-10118476D02*
X20352143Y-10118476D01*
X20352143Y-10118476D02*
X20333095Y-10108952D01*
X20333095Y-10108952D02*
X20323571Y-10099429D01*
X20533095Y-10099429D02*
X20542619Y-10108952D01*
X20542619Y-10108952D02*
X20533095Y-10118476D01*
X20533095Y-10118476D02*
X20523571Y-10108952D01*
X20523571Y-10108952D02*
X20533095Y-10099429D01*
X20533095Y-10099429D02*
X20533095Y-10118476D01*
X20618810Y-9937524D02*
X20628333Y-9928000D01*
X20628333Y-9928000D02*
X20647381Y-9918476D01*
X20647381Y-9918476D02*
X20695000Y-9918476D01*
X20695000Y-9918476D02*
X20714048Y-9928000D01*
X20714048Y-9928000D02*
X20723571Y-9937524D01*
X20723571Y-9937524D02*
X20733095Y-9956571D01*
X20733095Y-9956571D02*
X20733095Y-9975619D01*
X20733095Y-9975619D02*
X20723571Y-10004190D01*
X20723571Y-10004190D02*
X20609286Y-10118476D01*
X20609286Y-10118476D02*
X20733095Y-10118476D01*
X20856905Y-9918476D02*
X20875952Y-9918476D01*
X20875952Y-9918476D02*
X20895000Y-9928000D01*
X20895000Y-9928000D02*
X20904524Y-9937524D01*
X20904524Y-9937524D02*
X20914048Y-9956571D01*
X20914048Y-9956571D02*
X20923571Y-9994667D01*
X20923571Y-9994667D02*
X20923571Y-10042286D01*
X20923571Y-10042286D02*
X20914048Y-10080381D01*
X20914048Y-10080381D02*
X20904524Y-10099429D01*
X20904524Y-10099429D02*
X20895000Y-10108952D01*
X20895000Y-10108952D02*
X20875952Y-10118476D01*
X20875952Y-10118476D02*
X20856905Y-10118476D01*
X20856905Y-10118476D02*
X20837857Y-10108952D01*
X20837857Y-10108952D02*
X20828333Y-10099429D01*
X20828333Y-10099429D02*
X20818810Y-10080381D01*
X20818810Y-10080381D02*
X20809286Y-10042286D01*
X20809286Y-10042286D02*
X20809286Y-9994667D01*
X20809286Y-9994667D02*
X20818810Y-9956571D01*
X20818810Y-9956571D02*
X20828333Y-9937524D01*
X20828333Y-9937524D02*
X20837857Y-9928000D01*
X20837857Y-9928000D02*
X20856905Y-9918476D01*
X21047381Y-9918476D02*
X21066429Y-9918476D01*
X21066429Y-9918476D02*
X21085476Y-9928000D01*
X21085476Y-9928000D02*
X21095000Y-9937524D01*
X21095000Y-9937524D02*
X21104524Y-9956571D01*
X21104524Y-9956571D02*
X21114048Y-9994667D01*
X21114048Y-9994667D02*
X21114048Y-10042286D01*
X21114048Y-10042286D02*
X21104524Y-10080381D01*
X21104524Y-10080381D02*
X21095000Y-10099429D01*
X21095000Y-10099429D02*
X21085476Y-10108952D01*
X21085476Y-10108952D02*
X21066429Y-10118476D01*
X21066429Y-10118476D02*
X21047381Y-10118476D01*
X21047381Y-10118476D02*
X21028333Y-10108952D01*
X21028333Y-10108952D02*
X21018810Y-10099429D01*
X21018810Y-10099429D02*
X21009286Y-10080381D01*
X21009286Y-10080381D02*
X20999762Y-10042286D01*
X20999762Y-10042286D02*
X20999762Y-9994667D01*
X20999762Y-9994667D02*
X21009286Y-9956571D01*
X21009286Y-9956571D02*
X21018810Y-9937524D01*
X21018810Y-9937524D02*
X21028333Y-9928000D01*
X21028333Y-9928000D02*
X21047381Y-9918476D01*
X21199762Y-10118476D02*
X21199762Y-9985143D01*
X21199762Y-10004190D02*
X21209286Y-9994667D01*
X21209286Y-9994667D02*
X21228333Y-9985143D01*
X21228333Y-9985143D02*
X21256905Y-9985143D01*
X21256905Y-9985143D02*
X21275952Y-9994667D01*
X21275952Y-9994667D02*
X21285476Y-10013714D01*
X21285476Y-10013714D02*
X21285476Y-10118476D01*
X21285476Y-10013714D02*
X21295000Y-9994667D01*
X21295000Y-9994667D02*
X21314048Y-9985143D01*
X21314048Y-9985143D02*
X21342619Y-9985143D01*
X21342619Y-9985143D02*
X21361667Y-9994667D01*
X21361667Y-9994667D02*
X21371191Y-10013714D01*
X21371191Y-10013714D02*
X21371191Y-10118476D01*
X21466429Y-10118476D02*
X21466429Y-9985143D01*
X21466429Y-10004190D02*
X21475952Y-9994667D01*
X21475952Y-9994667D02*
X21495000Y-9985143D01*
X21495000Y-9985143D02*
X21523572Y-9985143D01*
X21523572Y-9985143D02*
X21542619Y-9994667D01*
X21542619Y-9994667D02*
X21552143Y-10013714D01*
X21552143Y-10013714D02*
X21552143Y-10118476D01*
X21552143Y-10013714D02*
X21561667Y-9994667D01*
X21561667Y-9994667D02*
X21580714Y-9985143D01*
X21580714Y-9985143D02*
X21609286Y-9985143D01*
X21609286Y-9985143D02*
X21628333Y-9994667D01*
X21628333Y-9994667D02*
X21637857Y-10013714D01*
X21637857Y-10013714D02*
X21637857Y-10118476D01*
X21995952Y-9908952D02*
X21824524Y-10166095D01*
X22220714Y-9918476D02*
X22239762Y-9918476D01*
X22239762Y-9918476D02*
X22258810Y-9928000D01*
X22258810Y-9928000D02*
X22268333Y-9937524D01*
X22268333Y-9937524D02*
X22277857Y-9956571D01*
X22277857Y-9956571D02*
X22287381Y-9994667D01*
X22287381Y-9994667D02*
X22287381Y-10042286D01*
X22287381Y-10042286D02*
X22277857Y-10080381D01*
X22277857Y-10080381D02*
X22268333Y-10099429D01*
X22268333Y-10099429D02*
X22258810Y-10108952D01*
X22258810Y-10108952D02*
X22239762Y-10118476D01*
X22239762Y-10118476D02*
X22220714Y-10118476D01*
X22220714Y-10118476D02*
X22201667Y-10108952D01*
X22201667Y-10108952D02*
X22192143Y-10099429D01*
X22192143Y-10099429D02*
X22182619Y-10080381D01*
X22182619Y-10080381D02*
X22173095Y-10042286D01*
X22173095Y-10042286D02*
X22173095Y-9994667D01*
X22173095Y-9994667D02*
X22182619Y-9956571D01*
X22182619Y-9956571D02*
X22192143Y-9937524D01*
X22192143Y-9937524D02*
X22201667Y-9928000D01*
X22201667Y-9928000D02*
X22220714Y-9918476D01*
X22373095Y-10099429D02*
X22382619Y-10108952D01*
X22382619Y-10108952D02*
X22373095Y-10118476D01*
X22373095Y-10118476D02*
X22363572Y-10108952D01*
X22363572Y-10108952D02*
X22373095Y-10099429D01*
X22373095Y-10099429D02*
X22373095Y-10118476D01*
X22573095Y-10118476D02*
X22458810Y-10118476D01*
X22515952Y-10118476D02*
X22515952Y-9918476D01*
X22515952Y-9918476D02*
X22496905Y-9947048D01*
X22496905Y-9947048D02*
X22477857Y-9966095D01*
X22477857Y-9966095D02*
X22458810Y-9975619D01*
X22649286Y-9937524D02*
X22658810Y-9928000D01*
X22658810Y-9928000D02*
X22677857Y-9918476D01*
X22677857Y-9918476D02*
X22725476Y-9918476D01*
X22725476Y-9918476D02*
X22744524Y-9928000D01*
X22744524Y-9928000D02*
X22754048Y-9937524D01*
X22754048Y-9937524D02*
X22763571Y-9956571D01*
X22763571Y-9956571D02*
X22763571Y-9975619D01*
X22763571Y-9975619D02*
X22754048Y-10004190D01*
X22754048Y-10004190D02*
X22639762Y-10118476D01*
X22639762Y-10118476D02*
X22763571Y-10118476D01*
X22935000Y-9918476D02*
X22896905Y-9918476D01*
X22896905Y-9918476D02*
X22877857Y-9928000D01*
X22877857Y-9928000D02*
X22868333Y-9937524D01*
X22868333Y-9937524D02*
X22849286Y-9966095D01*
X22849286Y-9966095D02*
X22839762Y-10004190D01*
X22839762Y-10004190D02*
X22839762Y-10080381D01*
X22839762Y-10080381D02*
X22849286Y-10099429D01*
X22849286Y-10099429D02*
X22858810Y-10108952D01*
X22858810Y-10108952D02*
X22877857Y-10118476D01*
X22877857Y-10118476D02*
X22915952Y-10118476D01*
X22915952Y-10118476D02*
X22935000Y-10108952D01*
X22935000Y-10108952D02*
X22944524Y-10099429D01*
X22944524Y-10099429D02*
X22954048Y-10080381D01*
X22954048Y-10080381D02*
X22954048Y-10032762D01*
X22954048Y-10032762D02*
X22944524Y-10013714D01*
X22944524Y-10013714D02*
X22935000Y-10004190D01*
X22935000Y-10004190D02*
X22915952Y-9994667D01*
X22915952Y-9994667D02*
X22877857Y-9994667D01*
X22877857Y-9994667D02*
X22858810Y-10004190D01*
X22858810Y-10004190D02*
X22849286Y-10013714D01*
X22849286Y-10013714D02*
X22839762Y-10032762D01*
X23077857Y-9918476D02*
X23096905Y-9918476D01*
X23096905Y-9918476D02*
X23115952Y-9928000D01*
X23115952Y-9928000D02*
X23125476Y-9937524D01*
X23125476Y-9937524D02*
X23135000Y-9956571D01*
X23135000Y-9956571D02*
X23144524Y-9994667D01*
X23144524Y-9994667D02*
X23144524Y-10042286D01*
X23144524Y-10042286D02*
X23135000Y-10080381D01*
X23135000Y-10080381D02*
X23125476Y-10099429D01*
X23125476Y-10099429D02*
X23115952Y-10108952D01*
X23115952Y-10108952D02*
X23096905Y-10118476D01*
X23096905Y-10118476D02*
X23077857Y-10118476D01*
X23077857Y-10118476D02*
X23058810Y-10108952D01*
X23058810Y-10108952D02*
X23049286Y-10099429D01*
X23049286Y-10099429D02*
X23039762Y-10080381D01*
X23039762Y-10080381D02*
X23030238Y-10042286D01*
X23030238Y-10042286D02*
X23030238Y-9994667D01*
X23030238Y-9994667D02*
X23039762Y-9956571D01*
X23039762Y-9956571D02*
X23049286Y-9937524D01*
X23049286Y-9937524D02*
X23058810Y-9928000D01*
X23058810Y-9928000D02*
X23077857Y-9918476D01*
X23220714Y-9918476D02*
X23220714Y-9956571D01*
X23296905Y-9918476D02*
X23296905Y-9956571D01*
X23559762Y-10194667D02*
X23550238Y-10185143D01*
X23550238Y-10185143D02*
X23531191Y-10156571D01*
X23531191Y-10156571D02*
X23521667Y-10137524D01*
X23521667Y-10137524D02*
X23512143Y-10108952D01*
X23512143Y-10108952D02*
X23502619Y-10061333D01*
X23502619Y-10061333D02*
X23502619Y-10023238D01*
X23502619Y-10023238D02*
X23512143Y-9975619D01*
X23512143Y-9975619D02*
X23521667Y-9947048D01*
X23521667Y-9947048D02*
X23531191Y-9928000D01*
X23531191Y-9928000D02*
X23550238Y-9899429D01*
X23550238Y-9899429D02*
X23559762Y-9889905D01*
X23721667Y-9985143D02*
X23721667Y-10118476D01*
X23674048Y-9908952D02*
X23626429Y-10051810D01*
X23626429Y-10051810D02*
X23750238Y-10051810D01*
X23946429Y-10118476D02*
X23946429Y-9918476D01*
X24032143Y-10118476D02*
X24032143Y-10013714D01*
X24032143Y-10013714D02*
X24022619Y-9994667D01*
X24022619Y-9994667D02*
X24003572Y-9985143D01*
X24003572Y-9985143D02*
X23975000Y-9985143D01*
X23975000Y-9985143D02*
X23955952Y-9994667D01*
X23955952Y-9994667D02*
X23946429Y-10004190D01*
X24155952Y-10118476D02*
X24136905Y-10108952D01*
X24136905Y-10108952D02*
X24127381Y-10099429D01*
X24127381Y-10099429D02*
X24117857Y-10080381D01*
X24117857Y-10080381D02*
X24117857Y-10023238D01*
X24117857Y-10023238D02*
X24127381Y-10004190D01*
X24127381Y-10004190D02*
X24136905Y-9994667D01*
X24136905Y-9994667D02*
X24155952Y-9985143D01*
X24155952Y-9985143D02*
X24184524Y-9985143D01*
X24184524Y-9985143D02*
X24203572Y-9994667D01*
X24203572Y-9994667D02*
X24213095Y-10004190D01*
X24213095Y-10004190D02*
X24222619Y-10023238D01*
X24222619Y-10023238D02*
X24222619Y-10080381D01*
X24222619Y-10080381D02*
X24213095Y-10099429D01*
X24213095Y-10099429D02*
X24203572Y-10108952D01*
X24203572Y-10108952D02*
X24184524Y-10118476D01*
X24184524Y-10118476D02*
X24155952Y-10118476D01*
X24336905Y-10118476D02*
X24317857Y-10108952D01*
X24317857Y-10108952D02*
X24308333Y-10089905D01*
X24308333Y-10089905D02*
X24308333Y-9918476D01*
X24489286Y-10108952D02*
X24470238Y-10118476D01*
X24470238Y-10118476D02*
X24432143Y-10118476D01*
X24432143Y-10118476D02*
X24413095Y-10108952D01*
X24413095Y-10108952D02*
X24403572Y-10089905D01*
X24403572Y-10089905D02*
X24403572Y-10013714D01*
X24403572Y-10013714D02*
X24413095Y-9994667D01*
X24413095Y-9994667D02*
X24432143Y-9985143D01*
X24432143Y-9985143D02*
X24470238Y-9985143D01*
X24470238Y-9985143D02*
X24489286Y-9994667D01*
X24489286Y-9994667D02*
X24498810Y-10013714D01*
X24498810Y-10013714D02*
X24498810Y-10032762D01*
X24498810Y-10032762D02*
X24403572Y-10051810D01*
X24575000Y-10108952D02*
X24594048Y-10118476D01*
X24594048Y-10118476D02*
X24632143Y-10118476D01*
X24632143Y-10118476D02*
X24651191Y-10108952D01*
X24651191Y-10108952D02*
X24660714Y-10089905D01*
X24660714Y-10089905D02*
X24660714Y-10080381D01*
X24660714Y-10080381D02*
X24651191Y-10061333D01*
X24651191Y-10061333D02*
X24632143Y-10051810D01*
X24632143Y-10051810D02*
X24603572Y-10051810D01*
X24603572Y-10051810D02*
X24584524Y-10042286D01*
X24584524Y-10042286D02*
X24575000Y-10023238D01*
X24575000Y-10023238D02*
X24575000Y-10013714D01*
X24575000Y-10013714D02*
X24584524Y-9994667D01*
X24584524Y-9994667D02*
X24603572Y-9985143D01*
X24603572Y-9985143D02*
X24632143Y-9985143D01*
X24632143Y-9985143D02*
X24651191Y-9994667D01*
X24727381Y-10194667D02*
X24736905Y-10185143D01*
X24736905Y-10185143D02*
X24755953Y-10156571D01*
X24755953Y-10156571D02*
X24765476Y-10137524D01*
X24765476Y-10137524D02*
X24775000Y-10108952D01*
X24775000Y-10108952D02*
X24784524Y-10061333D01*
X24784524Y-10061333D02*
X24784524Y-10023238D01*
X24784524Y-10023238D02*
X24775000Y-9975619D01*
X24775000Y-9975619D02*
X24765476Y-9947048D01*
X24765476Y-9947048D02*
X24755953Y-9928000D01*
X24755953Y-9928000D02*
X24736905Y-9899429D01*
X24736905Y-9899429D02*
X24727381Y-9889905D01*
M02*
