%TF.GenerationSoftware,KiCad,Pcbnew,(7.0.0)*%
%TF.CreationDate,2023-04-27T00:18:31+08:00*%
%TF.ProjectId,DRV-24to12-BrushedMotorDriver,4452562d-3234-4746-9f31-322d42727573,rev?*%
%TF.SameCoordinates,Original*%
%TF.FileFunction,Drillmap*%
%TF.FilePolarity,Positive*%
%FSLAX45Y45*%
G04 Gerber Fmt 4.5, Leading zero omitted, Abs format (unit mm)*
G04 Created by KiCad (PCBNEW (7.0.0)) date 2023-04-27 00:18:31*
%MOMM*%
%LPD*%
G01*
G04 APERTURE LIST*
%ADD10C,0.100000*%
%ADD11C,0.200000*%
G04 APERTURE END LIST*
D10*
X20100000Y-9250000D02*
X20100000Y-5750000D01*
X24900000Y-5750000D02*
G75*
G03*
X24750000Y-5600000I-150000J0D01*
G01*
X24900000Y-5750000D02*
X24900000Y-9250000D01*
X20250000Y-5600000D02*
G75*
G03*
X20100000Y-5750000I0J-150000D01*
G01*
X20250000Y-5600000D02*
X24750000Y-5600000D01*
X24750000Y-9400000D02*
G75*
G03*
X24900000Y-9250000I0J150000D01*
G01*
X20100000Y-9250000D02*
G75*
G03*
X20250000Y-9400000I150000J0D01*
G01*
X24750000Y-9400000D02*
X20250000Y-9400000D01*
D11*
X20342619Y-9698476D02*
X20342619Y-9498476D01*
X20342619Y-9498476D02*
X20390238Y-9498476D01*
X20390238Y-9498476D02*
X20418810Y-9508000D01*
X20418810Y-9508000D02*
X20437857Y-9527048D01*
X20437857Y-9527048D02*
X20447381Y-9546095D01*
X20447381Y-9546095D02*
X20456905Y-9584190D01*
X20456905Y-9584190D02*
X20456905Y-9612762D01*
X20456905Y-9612762D02*
X20447381Y-9650857D01*
X20447381Y-9650857D02*
X20437857Y-9669905D01*
X20437857Y-9669905D02*
X20418810Y-9688952D01*
X20418810Y-9688952D02*
X20390238Y-9698476D01*
X20390238Y-9698476D02*
X20342619Y-9698476D01*
X20542619Y-9698476D02*
X20542619Y-9565143D01*
X20542619Y-9603238D02*
X20552143Y-9584190D01*
X20552143Y-9584190D02*
X20561667Y-9574667D01*
X20561667Y-9574667D02*
X20580714Y-9565143D01*
X20580714Y-9565143D02*
X20599762Y-9565143D01*
X20666429Y-9698476D02*
X20666429Y-9565143D01*
X20666429Y-9498476D02*
X20656905Y-9508000D01*
X20656905Y-9508000D02*
X20666429Y-9517524D01*
X20666429Y-9517524D02*
X20675952Y-9508000D01*
X20675952Y-9508000D02*
X20666429Y-9498476D01*
X20666429Y-9498476D02*
X20666429Y-9517524D01*
X20790238Y-9698476D02*
X20771190Y-9688952D01*
X20771190Y-9688952D02*
X20761667Y-9669905D01*
X20761667Y-9669905D02*
X20761667Y-9498476D01*
X20895000Y-9698476D02*
X20875952Y-9688952D01*
X20875952Y-9688952D02*
X20866429Y-9669905D01*
X20866429Y-9669905D02*
X20866429Y-9498476D01*
X21091190Y-9698476D02*
X21091190Y-9498476D01*
X21091190Y-9498476D02*
X21157857Y-9641333D01*
X21157857Y-9641333D02*
X21224524Y-9498476D01*
X21224524Y-9498476D02*
X21224524Y-9698476D01*
X21405476Y-9698476D02*
X21405476Y-9593714D01*
X21405476Y-9593714D02*
X21395952Y-9574667D01*
X21395952Y-9574667D02*
X21376905Y-9565143D01*
X21376905Y-9565143D02*
X21338809Y-9565143D01*
X21338809Y-9565143D02*
X21319762Y-9574667D01*
X21405476Y-9688952D02*
X21386429Y-9698476D01*
X21386429Y-9698476D02*
X21338809Y-9698476D01*
X21338809Y-9698476D02*
X21319762Y-9688952D01*
X21319762Y-9688952D02*
X21310238Y-9669905D01*
X21310238Y-9669905D02*
X21310238Y-9650857D01*
X21310238Y-9650857D02*
X21319762Y-9631810D01*
X21319762Y-9631810D02*
X21338809Y-9622286D01*
X21338809Y-9622286D02*
X21386429Y-9622286D01*
X21386429Y-9622286D02*
X21405476Y-9612762D01*
X21500714Y-9565143D02*
X21500714Y-9765143D01*
X21500714Y-9574667D02*
X21519762Y-9565143D01*
X21519762Y-9565143D02*
X21557857Y-9565143D01*
X21557857Y-9565143D02*
X21576905Y-9574667D01*
X21576905Y-9574667D02*
X21586429Y-9584190D01*
X21586429Y-9584190D02*
X21595952Y-9603238D01*
X21595952Y-9603238D02*
X21595952Y-9660381D01*
X21595952Y-9660381D02*
X21586429Y-9679429D01*
X21586429Y-9679429D02*
X21576905Y-9688952D01*
X21576905Y-9688952D02*
X21557857Y-9698476D01*
X21557857Y-9698476D02*
X21519762Y-9698476D01*
X21519762Y-9698476D02*
X21500714Y-9688952D01*
X21681667Y-9679429D02*
X21691190Y-9688952D01*
X21691190Y-9688952D02*
X21681667Y-9698476D01*
X21681667Y-9698476D02*
X21672143Y-9688952D01*
X21672143Y-9688952D02*
X21681667Y-9679429D01*
X21681667Y-9679429D02*
X21681667Y-9698476D01*
X21681667Y-9574667D02*
X21691190Y-9584190D01*
X21691190Y-9584190D02*
X21681667Y-9593714D01*
X21681667Y-9593714D02*
X21672143Y-9584190D01*
X21672143Y-9584190D02*
X21681667Y-9574667D01*
X21681667Y-9574667D02*
X21681667Y-9593714D01*
M02*
